RecursiveMonoVar-StrictMediumItalic.ufo
<glyph name="exclam" format="1">
  <advance width="600"/>
  <unicode hex="0021"/>
  <outline>
    <contour>
      <point x="337" y="264" type="line"/>
      <point x="365" y="343"/>
      <point x="393" y="423"/>
      <point x="421" y="502" type="curve"/>
      <point x="467" y="689" type="line" smooth="yes"/>
      <point x="469" y="696"/>
      <point x="465" y="700"/>
      <point x="459" y="700" type="curve" smooth="yes"/>
      <point x="414" y="700"/>
      <point x="377" y="700"/>
      <point x="347" y="700" type="curve"/>
      <point x="337" y="662"/>
      <point x="329" y="627"/>
      <point x="319" y="590" type="curve" smooth="yes"/>
      <point x="297" y="502" type="line"/>
      <point x="262" y="276"/>
      <point x="262" y="271"/>
      <point x="265" y="267" type="curve" smooth="yes"/>
      <point x="266" y="265"/>
      <point x="268" y="264"/>
      <point x="272" y="264" type="curve"/>
    </contour>
    <contour>
      <point x="312" y="-7" type="curve"/>
      <point x="349" y="140" type="line" smooth="yes"/>
      <point x="350" y="146"/>
      <point x="347" y="151"/>
      <point x="341" y="151" type="curve" smooth="yes"/>
      <point x="295" y="151"/>
      <point x="237" y="151"/>
      <point x="191" y="151" type="curve"/>
      <point x="154" y="4" type="line" smooth="yes"/>
      <point x="152" y="-2"/>
      <point x="156" y="-7"/>
      <point x="162" y="-7" type="curve" smooth="yes"/>
      <point x="208" y="-7"/>
      <point x="266" y="-7"/>
    </contour>
  </outline>
</glyph>
<glyph name="dollar" format="1">
  <advance width="600"/>
  <unicode hex="0024"/>
  <outline>
    <contour>
      <point x="433" y="718" type="curve" smooth="yes"/>
      <point x="286" y="718"/>
      <point x="171" y="643"/>
      <point x="144" y="537" type="curve" smooth="yes"/>
      <point x="133" y="492" type="line" smooth="yes"/>
      <point x="129" y="475"/>
      <point x="165" y="459"/>
      <point x="218" y="459" type="curve"/>
      <point x="225" y="485"/>
      <point x="231" y="509"/>
      <point x="237" y="532" type="curve" smooth="yes"/>
      <point x="250" y="585"/>
      <point x="310" y="622"/>
      <point x="404" y="622" type="curve" smooth="yes"/>
      <point x="483" y="622"/>
      <point x="532" y="607"/>
      <point x="574" y="564" type="curve"/>
      <point x="590" y="564" type="line"/>
      <point x="594" y="583"/>
      <point x="603" y="618"/>
      <point x="613" y="658" type="curve" smooth="yes"/>
      <point x="614" y="661"/>
      <point x="614" y="664"/>
      <point x="612" y="666" type="curve" smooth="yes"/>
      <point x="586" y="700"/>
      <point x="516" y="718"/>
    </contour>
    <contour>
      <point x="406" y="384" type="curve" smooth="yes"/>
      <point x="317" y="412" type="line" smooth="yes"/>
      <point x="237" y="438"/>
      <point x="218" y="458"/>
      <point x="230" y="507" type="curve" smooth="yes"/>
      <point x="236" y="531"/>
      <point x="240" y="546"/>
      <point x="249" y="583" type="curve"/>
      <point x="195" y="577"/>
      <point x="150" y="559"/>
      <point x="133" y="492" type="curve" smooth="yes"/>
      <point x="117" y="427"/>
      <point x="142" y="364"/>
      <point x="261" y="325" type="curve" smooth="yes"/>
      <point x="350" y="296" type="line" smooth="yes"/>
      <point x="428" y="271"/>
      <point x="439" y="249"/>
      <point x="427" y="198" type="curve" smooth="yes"/>
      <point x="421" y="176"/>
      <point x="412" y="138"/>
      <point x="404" y="110" type="curve"/>
      <point x="444" y="110"/>
      <point x="511" y="168"/>
      <point x="522" y="213" type="curve"/>
      <point x="542" y="293"/>
      <point x="517" y="349"/>
    </contour>
    <contour>
      <point x="218" y="-18" type="curve" smooth="yes"/>
      <point x="368" y="-18"/>
      <point x="483" y="57"/>
      <point x="510" y="163" type="curve" smooth="yes"/>
      <point x="522" y="213" type="line" smooth="yes"/>
      <point x="527" y="230"/>
      <point x="491" y="246"/>
      <point x="438" y="246" type="curve"/>
      <point x="432" y="219"/>
      <point x="425" y="194"/>
      <point x="419" y="168" type="curve" smooth="yes"/>
      <point x="406" y="115"/>
      <point x="346" y="78"/>
      <point x="248" y="78" type="curve" smooth="yes"/>
      <point x="159" y="78"/>
      <point x="104" y="98"/>
      <point x="56" y="147" type="curve"/>
      <point x="40" y="147" type="line"/>
      <point x="35" y="128"/>
      <point x="26" y="93"/>
      <point x="16" y="53" type="curve" smooth="yes"/>
      <point x="16" y="50"/>
      <point x="16" y="47"/>
      <point x="17" y="45" type="curve" smooth="yes"/>
      <point x="47" y="5"/>
      <point x="125" y="-18"/>
    </contour>
    <contour>
      <point x="397" y="463" type="line"/>
      <point x="505" y="774" type="line" smooth="yes"/>
      <point x="508" y="783"/>
      <point x="504" y="787"/>
      <point x="498" y="787" type="curve" smooth="yes"/>
      <point x="466" y="787"/>
      <point x="452" y="787"/>
      <point x="420" y="787" type="curve"/>
      <point x="412" y="756"/>
      <point x="404" y="726"/>
      <point x="397" y="695" type="curve"/>
      <point x="345" y="489" type="line" smooth="yes"/>
      <point x="343" y="481"/>
      <point x="345" y="476"/>
      <point x="352" y="475" type="curve" smooth="yes"/>
    </contour>
    <contour>
      <point x="262" y="246" type="line"/>
      <point x="150" y="-72" type="line" smooth="yes"/>
      <point x="146" y="-82"/>
      <point x="150" y="-86"/>
      <point x="156" y="-86" type="curve" smooth="yes"/>
      <point x="189" y="-86"/>
      <point x="204" y="-86"/>
      <point x="237" y="-86" type="curve"/>
      <point x="244" y="-57"/>
      <point x="252" y="-24"/>
      <point x="260" y="5" type="curve"/>
      <point x="313" y="218" type="line" smooth="yes"/>
      <point x="315" y="227"/>
      <point x="313" y="232"/>
      <point x="306" y="234" type="curve" smooth="yes"/>
    </contour>
  </outline>
</glyph>
<glyph name="ampersand" format="1">
  <advance width="600"/>
  <unicode hex="0026"/>
  <outline>
    <contour>
      <point x="425" y="709" type="curve" smooth="yes"/>
      <point x="287" y="709"/>
      <point x="190" y="632"/>
      <point x="169" y="545" type="curve" smooth="yes"/>
      <point x="156" y="494"/>
      <point x="202" y="487"/>
      <point x="251" y="487" type="curve"/>
      <point x="255" y="503"/>
      <point x="259" y="519"/>
      <point x="264" y="538" type="curve" smooth="yes"/>
      <point x="273" y="577"/>
      <point x="321" y="613"/>
      <point x="395" y="613" type="curve" smooth="yes"/>
      <point x="456" y="613"/>
      <point x="492" y="604"/>
      <point x="530" y="589" type="curve"/>
      <point x="546" y="589" type="line"/>
      <point x="553" y="617"/>
      <point x="560" y="645"/>
      <point x="567" y="673" type="curve"/>
      <point x="568" y="677"/>
      <point x="568" y="680"/>
      <point x="567" y="682" type="curve" smooth="yes"/>
      <point x="558" y="694"/>
      <point x="506" y="709"/>
    </contour>
    <contour>
      <point x="282" y="447" type="curve" smooth="yes"/>
      <point x="259" y="497"/>
      <point x="257" y="513"/>
      <point x="264" y="538" type="curve" smooth="yes"/>
      <point x="268" y="557"/>
      <point x="277" y="586"/>
      <point x="291" y="610" type="curve"/>
      <point x="225" y="610"/>
      <point x="178" y="581"/>
      <point x="169" y="545" type="curve" smooth="yes"/>
      <point x="168" y="541" type="line" smooth="yes"/>
      <point x="154" y="487"/>
      <point x="162" y="457"/>
      <point x="204" y="367" type="curve" smooth="yes"/>
      <point x="253" y="263"/>
      <point x="328" y="102"/>
      <point x="346" y="63" type="curve" smooth="yes"/>
      <point x="370" y="12"/>
      <point x="398" y="-10"/>
      <point x="450" y="-10" type="curve" smooth="yes"/>
      <point x="497" y="-10" type="line" smooth="yes"/>
      <point x="505" y="-10"/>
      <point x="509" y="-6"/>
      <point x="511" y="1" type="curve" smooth="yes"/>
      <point x="520" y="40"/>
      <point x="523" y="52"/>
      <point x="532" y="88" type="curve"/>
      <point x="527" y="88" type="line"/>
      <point x="517" y="88"/>
      <point x="499" y="88"/>
      <point x="489" y="88" type="curve" smooth="yes"/>
      <point x="461" y="88"/>
      <point x="448" y="95"/>
      <point x="433" y="123" type="curve" smooth="yes"/>
      <point x="419" y="151"/>
      <point x="349" y="303"/>
    </contour>
    <contour>
      <point x="150" y="-9" type="curve" smooth="yes"/>
      <point x="232" y="-9"/>
      <point x="292" y="25"/>
      <point x="349" y="79" type="curve" smooth="yes"/>
      <point x="359" y="91"/>
      <point x="359" y="96"/>
      <point x="331" y="145" type="curve"/>
      <point x="274" y="95"/>
      <point x="232" y="78"/>
      <point x="185" y="78" type="curve" smooth="yes"/>
      <point x="120" y="78"/>
      <point x="99" y="112"/>
      <point x="114" y="172" type="curve" smooth="yes"/>
      <point x="129" y="231" type="line" smooth="yes"/>
      <point x="144" y="293"/>
      <point x="202" y="336"/>
      <point x="274" y="336" type="curve"/>
      <point x="269" y="372"/>
      <point x="257" y="392"/>
      <point x="229" y="391" type="curve" smooth="yes"/>
      <point x="141" y="385"/>
      <point x="53" y="322"/>
      <point x="30" y="230" type="curve" smooth="yes"/>
      <point x="13" y="160" type="line" smooth="yes"/>
      <point x="-15" y="51"/>
      <point x="34" y="-9"/>
    </contour>
    <contour>
      <point x="582" y="428" type="curve" smooth="yes"/>
      <point x="558" y="428"/>
      <point x="530" y="428"/>
      <point x="499" y="428" type="curve"/>
      <point x="491" y="397"/>
      <point x="485" y="373"/>
      <point x="476" y="337" type="curve" smooth="yes"/>
      <point x="458" y="267"/>
      <point x="430" y="226"/>
      <point x="384" y="185" type="curve" smooth="yes"/>
      <point x="373" y="176"/>
      <point x="372" y="170"/>
      <point x="397" y="130" type="curve"/>
      <point x="483" y="182"/>
      <point x="548" y="249"/>
      <point x="571" y="340" type="curve" smooth="yes"/>
      <point x="590" y="417" type="line" smooth="yes"/>
      <point x="591" y="424"/>
      <point x="589" y="428"/>
    </contour>
  </outline>
</glyph>
<glyph name="quotesingle" format="1">
  <advance width="600"/>
  <unicode hex="0027"/>
  <outline>
    <contour>
      <point x="394" y="450" type="curve"/>
      <point x="489" y="737" type="line" smooth="yes"/>
      <point x="492" y="746"/>
      <point x="488" y="750"/>
      <point x="482" y="750" type="curve" smooth="yes"/>
      <point x="442" y="750"/>
      <point x="398" y="750"/>
      <point x="349" y="750" type="curve"/>
      <point x="343" y="714"/>
      <point x="337" y="683"/>
      <point x="331" y="648" type="curve" smooth="yes"/>
      <point x="300" y="461" type="line" smooth="yes"/>
      <point x="299" y="454"/>
      <point x="303" y="450"/>
      <point x="309" y="450" type="curve" smooth="yes"/>
      <point x="338" y="450"/>
      <point x="365" y="450"/>
    </contour>
  </outline>
</glyph>
<glyph name="parenleft" format="1">
  <advance width="600"/>
  <unicode hex="0028"/>
  <outline>
    <contour>
      <point x="499" y="747" type="curve" smooth="yes"/>
      <point x="351" y="628"/>
      <point x="256" y="476"/>
      <point x="215" y="311" type="curve" smooth="yes"/>
      <point x="213" y="303" type="line" smooth="yes"/>
      <point x="172" y="139"/>
      <point x="191" y="-11"/>
      <point x="280" y="-130" type="curve" smooth="yes"/>
      <point x="284" y="-136"/>
      <point x="291" y="-138"/>
      <point x="298" y="-138" type="curve" smooth="yes"/>
      <point x="334" y="-138"/>
      <point x="362" y="-138"/>
      <point x="400" y="-138" type="curve"/>
      <point x="404" y="-122" type="line"/>
      <point x="306" y="-1"/>
      <point x="275" y="140"/>
      <point x="316" y="303" type="curve" smooth="yes"/>
      <point x="318" y="311" type="line" smooth="yes"/>
      <point x="359" y="475"/>
      <point x="459" y="621"/>
      <point x="617" y="739" type="curve"/>
      <point x="621" y="755" type="line"/>
      <point x="583" y="755"/>
      <point x="556" y="755"/>
      <point x="521" y="755" type="curve" smooth="yes"/>
      <point x="514" y="755"/>
      <point x="507" y="754"/>
    </contour>
  </outline>
</glyph>
<glyph name="parenright" format="1">
  <advance width="600"/>
  <unicode hex="0029"/>
  <outline>
    <contour>
      <point x="122" y="-130" type="curve" smooth="yes"/>
      <point x="270" y="-11"/>
      <point x="365" y="141"/>
      <point x="406" y="306" type="curve" smooth="yes"/>
      <point x="408" y="314" type="line" smooth="yes"/>
      <point x="449" y="478"/>
      <point x="430" y="629"/>
      <point x="341" y="747" type="curve" smooth="yes"/>
      <point x="337" y="754"/>
      <point x="331" y="755"/>
      <point x="323" y="755" type="curve" smooth="yes"/>
      <point x="287" y="755"/>
      <point x="260" y="755"/>
      <point x="221" y="755" type="curve"/>
      <point x="217" y="739" type="line"/>
      <point x="315" y="618"/>
      <point x="346" y="477"/>
      <point x="305" y="314" type="curve" smooth="yes"/>
      <point x="303" y="306" type="line" smooth="yes"/>
      <point x="262" y="142"/>
      <point x="162" y="-4"/>
      <point x="5" y="-122" type="curve"/>
      <point x="1" y="-138" type="line"/>
      <point x="38" y="-138"/>
      <point x="65" y="-138"/>
      <point x="100" y="-138" type="curve" smooth="yes"/>
      <point x="107" y="-138"/>
      <point x="114" y="-136"/>
    </contour>
  </outline>
</glyph>
<glyph name="asterisk" format="1">
  <advance width="600"/>
  <unicode hex="002A"/>
  <outline>
    <contour>
      <point x="322" y="568" type="curve"/>
      <point x="319" y="536"/>
      <point x="316" y="504"/>
      <point x="313" y="472" type="curve" smooth="yes"/>
      <point x="294" y="309" type="line"/>
      <point x="196" y="60" type="line" smooth="yes"/>
      <point x="194" y="54"/>
      <point x="196" y="50"/>
      <point x="203" y="50" type="curve"/>
      <point x="235" y="50"/>
      <point x="266" y="50"/>
      <point x="298" y="50" type="curve"/>
      <point x="301" y="82"/>
      <point x="304" y="114"/>
      <point x="307" y="146" type="curve" smooth="yes"/>
      <point x="327" y="309" type="line"/>
      <point x="424" y="558" type="line" smooth="yes"/>
      <point x="426" y="564"/>
      <point x="424" y="568"/>
      <point x="417" y="568" type="curve" smooth="yes"/>
      <point x="386" y="568"/>
      <point x="354" y="568"/>
    </contour>
    <contour>
      <point x="552" y="484" type="curve"/>
      <point x="306" y="323" type="line"/>
      <point x="49" y="230" type="line" smooth="yes"/>
      <point x="43" y="227"/>
      <point x="39" y="222"/>
      <point x="41" y="215" type="curve"/>
      <point x="50" y="187"/>
      <point x="60" y="161"/>
      <point x="69" y="134" type="curve"/>
      <point x="315" y="294" type="line"/>
      <point x="571" y="388" type="line" smooth="yes"/>
      <point x="577" y="391"/>
      <point x="581" y="396"/>
      <point x="578" y="402" type="curve" smooth="yes"/>
      <point x="570" y="430"/>
      <point x="560" y="456"/>
    </contour>
    <contour>
      <point x="540" y="226" type="curve"/>
      <point x="322" y="323" type="line"/>
      <point x="163" y="479" type="line" smooth="yes"/>
      <point x="159" y="482"/>
      <point x="154" y="481"/>
      <point x="148" y="475" type="curve"/>
      <point x="126" y="447"/>
      <point x="103" y="421"/>
      <point x="81" y="393" type="curve"/>
      <point x="299" y="295" type="line"/>
      <point x="457" y="140" type="line" smooth="yes"/>
      <point x="462" y="136"/>
      <point x="468" y="137"/>
      <point x="473" y="144" type="curve"/>
      <point x="495" y="171"/>
      <point x="517" y="198"/>
    </contour>
  </outline>
</glyph>
<glyph name="plus" format="1">
  <advance width="600"/>
  <unicode hex="002B"/>
  <outline>
    <contour>
      <point x="89" y="349" type="line"/>
      <point x="82" y="320"/>
      <point x="74" y="291"/>
      <point x="67" y="262" type="curve" smooth="yes"/>
      <point x="66" y="259"/>
      <point x="67" y="256"/>
      <point x="68" y="254" type="curve" smooth="yes"/>
      <point x="70" y="252"/>
      <point x="72" y="251"/>
      <point x="75" y="251" type="curve"/>
      <point x="528" y="251" type="line"/>
      <point x="535" y="280"/>
      <point x="542" y="309"/>
      <point x="550" y="338" type="curve" smooth="yes"/>
      <point x="551" y="344"/>
      <point x="547" y="349"/>
      <point x="541" y="349" type="curve"/>
    </contour>
    <contour>
      <point x="300" y="69" type="curve"/>
      <point x="413" y="521" type="line" smooth="yes"/>
      <point x="414" y="524"/>
      <point x="413" y="527"/>
      <point x="412" y="529" type="curve" smooth="yes"/>
      <point x="410" y="531"/>
      <point x="408" y="532"/>
      <point x="405" y="532" type="curve" smooth="yes"/>
      <point x="376" y="532"/>
      <point x="350" y="532"/>
      <point x="317" y="532" type="curve"/>
      <point x="312" y="510"/>
      <point x="303" y="475"/>
      <point x="292" y="433" type="curve" smooth="yes"/>
      <point x="204" y="80" type="line" smooth="yes"/>
      <point x="203" y="74"/>
      <point x="206" y="69"/>
      <point x="212" y="69" type="curve" smooth="yes"/>
      <point x="243" y="69"/>
      <point x="269" y="69"/>
    </contour>
  </outline>
</glyph>
<glyph name="period" format="1">
  <advance width="600"/>
  <unicode hex="002E"/>
  <outline>
    <contour>
      <point x="312" y="-7" type="curve"/>
      <point x="349" y="140" type="line" smooth="yes"/>
      <point x="350" y="146"/>
      <point x="347" y="151"/>
      <point x="341" y="151" type="curve" smooth="yes"/>
      <point x="295" y="151"/>
      <point x="237" y="151"/>
      <point x="191" y="151" type="curve"/>
      <point x="154" y="4" type="line" smooth="yes"/>
      <point x="152" y="-2"/>
      <point x="156" y="-7"/>
      <point x="162" y="-7" type="curve" smooth="yes"/>
      <point x="208" y="-7"/>
      <point x="266" y="-7"/>
    </contour>
  </outline>
</glyph>
<glyph name="zero" format="1">
  <advance width="600"/>
  <unicode hex="0030"/>
  <outline>
    <contour>
      <point x="392" y="720" type="curve" smooth="yes"/>
      <point x="255" y="720"/>
      <point x="157" y="643"/>
      <point x="113" y="467" type="curve" smooth="yes"/>
      <point x="64" y="269" type="line" smooth="yes"/>
      <point x="19" y="89"/>
      <point x="106" y="-20"/>
      <point x="248" y="-20" type="curve"/>
      <point x="253" y="-20"/>
      <point x="260" y="-10"/>
      <point x="260" y="69" type="curve"/>
      <point x="172" y="69"/>
      <point x="128" y="128"/>
      <point x="162" y="266" type="curve" smooth="yes"/>
      <point x="209" y="458" type="line" smooth="yes"/>
      <point x="240" y="587"/>
      <point x="298" y="631"/>
      <point x="381" y="631" type="curve" smooth="yes"/>
      <point x="422" y="631"/>
      <point x="464" y="631"/>
      <point x="492" y="631" type="curve"/>
      <point x="504" y="681"/>
      <point x="464" y="720"/>
    </contour>
    <contour>
      <point x="248" y="-20" type="curve" smooth="yes"/>
      <point x="386" y="-20"/>
      <point x="483" y="55"/>
      <point x="527" y="232" type="curve" smooth="yes"/>
      <point x="577" y="431" type="line" smooth="yes"/>
      <point x="621" y="611"/>
      <point x="535" y="720"/>
      <point x="392" y="720" type="curve"/>
      <point x="388" y="720"/>
      <point x="381" y="710"/>
      <point x="381" y="631" type="curve"/>
      <point x="469" y="631"/>
      <point x="512" y="572"/>
      <point x="479" y="434" type="curve" smooth="yes"/>
      <point x="432" y="242" type="line" smooth="yes"/>
      <point x="401" y="113"/>
      <point x="342" y="69"/>
      <point x="253" y="69" type="curve" smooth="yes"/>
      <point x="206" y="69"/>
      <point x="177" y="69"/>
      <point x="149" y="69" type="curve"/>
      <point x="136" y="19"/>
      <point x="177" y="-20"/>
    </contour>
    <contour>
      <point x="118" y="145" type="curve"/>
      <point x="246" y="251"/>
      <point x="375" y="357"/>
      <point x="503" y="463" type="curve"/>
      <point x="529" y="483"/>
      <point x="532" y="510"/>
      <point x="520" y="556" type="curve"/>
      <point x="387" y="447"/>
      <point x="254" y="339"/>
      <point x="121" y="231" type="curve" smooth="yes"/>
      <point x="102" y="216"/>
      <point x="103" y="186"/>
    </contour>
  </outline>
</glyph>
<glyph name="one" format="1">
  <advance width="600"/>
  <unicode hex="0031"/>
  <outline>
    <contour>
      <point x="324" y="25" type="curve"/>
      <point x="380" y="250"/>
      <point x="436" y="475"/>
      <point x="492" y="699" type="curve" smooth="yes"/>
      <point x="494" y="706"/>
      <point x="491" y="710"/>
      <point x="484" y="710" type="curve" smooth="yes"/>
      <point x="397" y="710" type="line"/>
      <point x="343" y="496"/>
      <point x="288" y="276"/>
      <point x="235" y="62" type="curve" smooth="yes"/>
      <point x="227" y="32"/>
      <point x="266" y="25"/>
    </contour>
    <contour>
      <point x="40" y="90" type="line"/>
      <point x="34" y="63"/>
      <point x="29" y="40"/>
      <point x="21" y="11" type="curve" smooth="yes"/>
      <point x="20" y="8"/>
      <point x="20" y="5"/>
      <point x="22" y="3" type="curve" smooth="yes"/>
      <point x="23" y="1"/>
      <point x="26" y="0"/>
      <point x="29" y="0" type="curve" smooth="yes"/>
      <point x="478" y="0" type="line"/>
      <point x="484" y="24"/>
      <point x="490" y="49"/>
      <point x="498" y="79" type="curve" smooth="yes"/>
      <point x="500" y="86"/>
      <point x="496" y="90"/>
      <point x="489" y="90" type="curve" smooth="yes"/>
    </contour>
    <contour>
      <point x="150" y="447" type="curve" smooth="yes"/>
      <point x="158" y="447"/>
      <point x="163" y="449"/>
      <point x="397" y="610" type="curve" smooth="yes"/>
      <point x="425" y="628"/>
      <point x="452" y="647"/>
      <point x="453" y="653" type="curve" smooth="yes"/>
      <point x="459" y="676"/>
      <point x="457" y="710"/>
      <point x="406" y="710" type="curve"/>
      <point x="386" y="710" type="line"/>
      <point x="351" y="686"/>
      <point x="315" y="661"/>
      <point x="281" y="637" type="curve"/>
      <point x="245" y="612"/>
      <point x="209" y="587"/>
      <point x="173" y="563" type="curve"/>
      <point x="146" y="455" type="line" smooth="yes"/>
      <point x="144" y="449"/>
      <point x="146" y="447"/>
    </contour>
  </outline>
</glyph>
<glyph name="three" format="1">
  <advance width="600"/>
  <unicode hex="0033"/>
  <outline>
    <contour>
      <point x="373" y="627" type="curve" smooth="yes"/>
      <point x="476" y="627"/>
      <point x="506" y="582"/>
      <point x="492" y="526" type="curve" smooth="yes"/>
      <point x="486" y="502"/>
      <point x="481" y="482"/>
      <point x="476" y="461" type="curve"/>
      <point x="528" y="461"/>
      <point x="577" y="470"/>
      <point x="589" y="516" type="curve" smooth="yes"/>
      <point x="595" y="540" type="line" smooth="yes"/>
      <point x="619" y="632"/>
      <point x="547" y="720"/>
      <point x="397" y="720" type="curve" smooth="yes"/>
      <point x="298" y="720"/>
      <point x="214" y="694"/>
      <point x="184" y="671" type="curve" smooth="yes"/>
      <point x="182" y="669"/>
      <point x="180" y="667"/>
      <point x="179" y="663" type="curve" smooth="yes"/>
      <point x="171" y="627"/>
      <point x="163" y="599"/>
      <point x="158" y="578" type="curve"/>
      <point x="174" y="578" type="line"/>
      <point x="240" y="612"/>
      <point x="291" y="627"/>
    </contour>
    <contour>
      <point x="191" y="340" type="curve" smooth="yes"/>
      <point x="408" y="340"/>
      <point x="556" y="383"/>
      <point x="589" y="516" type="curve" smooth="yes"/>
      <point x="596" y="546"/>
      <point x="557" y="589"/>
      <point x="508" y="589" type="curve"/>
      <point x="501" y="564"/>
      <point x="496" y="542"/>
      <point x="490" y="520" type="curve" smooth="yes"/>
      <point x="473" y="451"/>
      <point x="402" y="401"/>
      <point x="196" y="401" type="curve"/>
      <point x="192" y="386"/>
      <point x="187" y="365"/>
      <point x="183" y="351" type="curve" smooth="yes"/>
      <point x="181" y="345"/>
      <point x="185" y="340"/>
    </contour>
    <contour>
      <point x="185" y="313" type="curve" smooth="yes"/>
      <point x="369" y="313"/>
      <point x="438" y="273"/>
      <point x="418" y="191" type="curve" smooth="yes"/>
      <point x="411" y="167"/>
      <point x="407" y="152"/>
      <point x="400" y="122" type="curve"/>
      <point x="458" y="122"/>
      <point x="506" y="143"/>
      <point x="517" y="188" type="curve" smooth="yes"/>
      <point x="546" y="307"/>
      <point x="439" y="375"/>
      <point x="189" y="375" type="curve"/>
      <point x="185" y="359"/>
      <point x="180" y="340"/>
      <point x="177" y="324" type="curve" smooth="yes"/>
      <point x="175" y="316"/>
      <point x="178" y="313"/>
    </contour>
    <contour>
      <point x="232" y="73" type="curve" smooth="yes"/>
      <point x="147" y="73"/>
      <point x="101" y="88"/>
      <point x="46" y="126" type="curve"/>
      <point x="31" y="126" type="line"/>
      <point x="24" y="102"/>
      <point x="18" y="79"/>
      <point x="9" y="42" type="curve" smooth="yes"/>
      <point x="8" y="38"/>
      <point x="8" y="36"/>
      <point x="10" y="34" type="curve" smooth="yes"/>
      <point x="28" y="10"/>
      <point x="107" y="-20"/>
      <point x="217" y="-20" type="curve" smooth="yes"/>
      <point x="383" y="-20"/>
      <point x="482" y="49"/>
      <point x="509" y="156" type="curve" smooth="yes"/>
      <point x="517" y="188" type="line" smooth="yes"/>
      <point x="526" y="223"/>
      <point x="484" y="253"/>
      <point x="433" y="252" type="curve"/>
      <point x="426" y="226"/>
      <point x="421" y="207"/>
      <point x="415" y="184" type="curve" smooth="yes"/>
      <point x="401" y="123"/>
      <point x="344" y="73"/>
    </contour>
  </outline>
</glyph>
<glyph name="four" format="1">
  <advance width="600"/>
  <unicode hex="0034"/>
  <outline>
    <contour>
      <point x="122" y="207" type="curve"/>
      <point x="265" y="366"/>
      <point x="408" y="527"/>
      <point x="551" y="687" type="curve"/>
      <point x="555" y="700" type="line"/>
      <point x="502" y="700"/>
      <point x="466" y="700"/>
      <point x="456" y="700" type="curve" smooth="yes"/>
      <point x="450" y="700"/>
      <point x="443" y="700"/>
      <point x="436" y="691" type="curve" smooth="yes"/>
      <point x="253" y="484"/>
      <point x="40" y="240"/>
      <point x="39" y="234" type="curve" smooth="yes"/>
      <point x="35" y="215"/>
      <point x="86" y="207"/>
    </contour>
    <contour>
      <point x="532" y="152" type="line"/>
      <point x="538" y="179"/>
      <point x="544" y="203"/>
      <point x="551" y="231" type="curve" smooth="yes"/>
      <point x="553" y="237"/>
      <point x="549" y="242"/>
      <point x="543" y="242" type="curve" smooth="yes"/>
      <point x="385" y="242" type="line"/>
      <point x="322" y="242"/>
      <point x="174" y="238"/>
      <point x="39" y="234" type="curve"/>
      <point x="21" y="163" type="line" smooth="yes"/>
      <point x="21" y="160"/>
      <point x="21" y="157"/>
      <point x="22" y="155" type="curve" smooth="yes"/>
      <point x="24" y="153"/>
      <point x="27" y="152"/>
      <point x="30" y="152" type="curve" smooth="yes"/>
    </contour>
    <contour>
      <point x="418" y="0" type="curve"/>
      <point x="425" y="31"/>
      <point x="434" y="65"/>
      <point x="443" y="99" type="curve" smooth="yes"/>
      <point x="511" y="374" type="line" smooth="yes"/>
      <point x="513" y="381"/>
      <point x="510" y="385"/>
      <point x="503" y="385" type="curve" smooth="yes"/>
      <point x="431" y="385" type="line"/>
      <point x="413" y="333"/>
      <point x="395" y="282"/>
      <point x="377" y="230" type="curve"/>
      <point x="322" y="11" type="line" smooth="yes"/>
      <point x="320" y="5"/>
      <point x="324" y="0"/>
      <point x="330" y="0" type="curve" smooth="yes"/>
      <point x="359" y="0"/>
      <point x="389" y="0"/>
    </contour>
  </outline>
</glyph>
<glyph name="five" format="1">
  <advance width="600"/>
  <unicode hex="0035"/>
  <outline>
    <contour>
      <point x="267" y="700" type="line"/>
      <point x="260" y="672"/>
      <point x="254" y="650"/>
      <point x="247" y="622" type="curve" smooth="yes"/>
      <point x="247" y="619"/>
      <point x="247" y="616"/>
      <point x="248" y="614" type="curve" smooth="yes"/>
      <point x="250" y="612"/>
      <point x="253" y="611"/>
      <point x="256" y="611" type="curve" smooth="yes"/>
      <point x="596" y="611" type="line"/>
      <point x="601" y="631"/>
      <point x="607" y="657"/>
      <point x="615" y="689" type="curve" smooth="yes"/>
      <point x="617" y="695"/>
      <point x="613" y="700"/>
      <point x="607" y="700" type="curve" smooth="yes"/>
    </contour>
    <contour>
      <point x="190" y="318" type="line"/>
      <point x="331" y="677" type="line" smooth="yes"/>
      <point x="337" y="692"/>
      <point x="325" y="700"/>
      <point x="281" y="700" type="curve" smooth="yes"/>
      <point x="241" y="700" type="line"/>
      <point x="100" y="335" type="line" smooth="yes"/>
      <point x="96" y="324"/>
      <point x="98" y="318"/>
      <point x="107" y="318" type="curve" smooth="yes"/>
    </contour>
    <contour>
      <point x="178" y="374" type="curve"/>
      <point x="157" y="347"/>
      <point x="163" y="318"/>
      <point x="190" y="318" type="curve"/>
      <point x="229" y="334"/>
      <point x="272" y="345"/>
      <point x="318" y="345" type="curve" smooth="yes"/>
      <point x="424" y="345"/>
      <point x="442" y="286"/>
      <point x="425" y="215" type="curve" smooth="yes"/>
      <point x="421" y="200"/>
      <point x="417" y="182"/>
      <point x="412" y="166" type="curve"/>
      <point x="446" y="166"/>
      <point x="518" y="191"/>
      <point x="526" y="225" type="curve" smooth="yes"/>
      <point x="556" y="346"/>
      <point x="489" y="428"/>
      <point x="364" y="428" type="curve" smooth="yes"/>
      <point x="290" y="428"/>
      <point x="241" y="409"/>
    </contour>
    <contour>
      <point x="225" y="-20" type="curve" smooth="yes"/>
      <point x="389" y="-20"/>
      <point x="484" y="51"/>
      <point x="514" y="175" type="curve" smooth="yes"/>
      <point x="526" y="225" type="line" smooth="yes"/>
      <point x="535" y="264"/>
      <point x="495" y="307"/>
      <point x="445" y="297" type="curve"/>
      <point x="439" y="271"/>
      <point x="433" y="247"/>
      <point x="425" y="216" type="curve" smooth="yes"/>
      <point x="418" y="188" type="line" smooth="yes"/>
      <point x="399" y="111"/>
      <point x="338" y="73"/>
      <point x="238" y="73" type="curve" smooth="yes"/>
      <point x="148" y="73"/>
      <point x="105" y="87"/>
      <point x="56" y="125" type="curve"/>
      <point x="40" y="125" type="line"/>
      <point x="34" y="101"/>
      <point x="28" y="77"/>
      <point x="18" y="40" type="curve" smooth="yes"/>
      <point x="17" y="36"/>
      <point x="18" y="34"/>
      <point x="19" y="32" type="curve" smooth="yes"/>
      <point x="39" y="6"/>
      <point x="116" y="-20"/>
    </contour>
  </outline>
</glyph>
<glyph name="six" format="1">
  <advance width="600"/>
  <unicode hex="0036"/>
  <outline>
    <contour>
      <point x="157" y="67" type="curve"/>
      <point x="141" y="2"/>
      <point x="200" y="-20"/>
      <point x="264" y="-20" type="curve"/>
      <point x="424" y="-20"/>
      <point x="486" y="56"/>
      <point x="516" y="175" type="curve" smooth="yes"/>
      <point x="532" y="236" type="line" smooth="yes"/>
      <point x="542" y="276"/>
      <point x="503" y="305"/>
      <point x="452" y="305" type="curve"/>
      <point x="446" y="278"/>
      <point x="442" y="262"/>
      <point x="433" y="230" type="curve" smooth="yes"/>
      <point x="422" y="187" type="line" smooth="yes"/>
      <point x="402" y="110"/>
      <point x="359" y="67"/>
      <point x="268" y="67" type="curve" smooth="yes"/>
      <point x="222" y="67"/>
      <point x="183" y="67"/>
    </contour>
    <contour>
      <point x="329" y="628" type="curve"/>
      <point x="359" y="628"/>
      <point x="378" y="628"/>
      <point x="421" y="628" type="curve" smooth="yes"/>
      <point x="492" y="628"/>
      <point x="528" y="612"/>
      <point x="572" y="581" type="curve"/>
      <point x="587" y="581" type="line"/>
      <point x="593" y="604"/>
      <point x="599" y="627"/>
      <point x="608" y="663" type="curve" smooth="yes"/>
      <point x="609" y="667"/>
      <point x="608" y="670"/>
      <point x="607" y="672" type="curve" smooth="yes"/>
      <point x="590" y="692"/>
      <point x="520" y="720"/>
      <point x="441" y="720" type="curve" smooth="yes"/>
      <point x="354" y="720"/>
      <point x="341" y="675"/>
    </contour>
    <contour>
      <point x="104" y="430" type="curve" smooth="yes"/>
      <point x="68" y="284" type="line" smooth="yes"/>
      <point x="20" y="91"/>
      <point x="101" y="-20"/>
      <point x="264" y="-20" type="curve" smooth="yes"/>
      <point x="275" y="-20"/>
      <point x="274" y="-4"/>
      <point x="268" y="67" type="curve"/>
      <point x="171" y="67"/>
      <point x="129" y="130"/>
      <point x="163" y="268" type="curve" smooth="yes"/>
      <point x="201" y="418" type="line" smooth="yes"/>
      <point x="237" y="560"/>
      <point x="306" y="628"/>
      <point x="421" y="628" type="curve"/>
      <point x="471" y="707"/>
      <point x="452" y="720"/>
      <point x="441" y="720" type="curve" smooth="yes"/>
      <point x="291" y="720"/>
      <point x="160" y="657"/>
    </contour>
    <contour>
      <point x="372" y="434" type="curve" smooth="yes"/>
      <point x="301" y="434"/>
      <point x="232" y="406"/>
      <point x="189" y="372" type="curve" smooth="yes"/>
      <point x="177" y="363"/>
      <point x="169" y="348"/>
      <point x="155" y="289" type="curve"/>
      <point x="214" y="331"/>
      <point x="270" y="349"/>
      <point x="330" y="349" type="curve" smooth="yes"/>
      <point x="421" y="349"/>
      <point x="451" y="301"/>
      <point x="433" y="230" type="curve" smooth="yes"/>
      <point x="430" y="218"/>
      <point x="426" y="203"/>
      <point x="424" y="195" type="curve"/>
      <point x="506" y="198"/>
      <point x="528" y="219"/>
      <point x="532" y="236" type="curve" smooth="yes"/>
      <point x="561" y="352"/>
      <point x="494" y="434"/>
    </contour>
  </outline>
</glyph>
<glyph name="seven" format="1">
  <advance width="600"/>
  <unicode hex="0037"/>
  <outline>
    <contour>
      <point x="555" y="611" type="line" smooth="yes"/>
      <point x="581" y="611"/>
      <point x="608" y="613"/>
      <point x="635" y="616" type="curve"/>
      <point x="652" y="689" type="line"/>
      <point x="654" y="695"/>
      <point x="650" y="700"/>
      <point x="644" y="700" type="curve"/>
      <point x="173" y="700" type="line"/>
      <point x="163" y="659" type="line" smooth="yes"/>
      <point x="155" y="625"/>
      <point x="164" y="611"/>
      <point x="182" y="611" type="curve" smooth="yes"/>
    </contour>
    <contour>
      <point x="234" y="0" type="line"/>
      <point x="480" y="378"/>
      <point x="632" y="607"/>
      <point x="635" y="616" type="curve" smooth="yes"/>
      <point x="641" y="643"/>
      <point x="607" y="649"/>
      <point x="546" y="648" type="curve"/>
      <point x="293" y="265"/>
      <point x="132" y="20"/>
      <point x="130" y="11" type="curve" smooth="yes"/>
      <point x="128" y="4"/>
      <point x="132" y="0"/>
      <point x="138" y="0" type="curve" smooth="yes"/>
    </contour>
    <contour>
      <point x="220" y="493" type="curve"/>
      <point x="233" y="544"/>
      <point x="251" y="617"/>
      <point x="265" y="669" type="curve"/>
      <point x="270" y="692"/>
      <point x="248" y="700"/>
      <point x="185" y="700" type="curve" smooth="yes"/>
      <point x="173" y="700" type="line"/>
      <point x="159" y="642"/>
      <point x="139" y="561"/>
      <point x="125" y="504" type="curve"/>
      <point x="123" y="498"/>
      <point x="127" y="493"/>
      <point x="133" y="493" type="curve" smooth="yes"/>
      <point x="162" y="493"/>
      <point x="192" y="493"/>
    </contour>
  </outline>
</glyph>
<glyph name="eight" format="1">
  <advance width="600"/>
  <unicode hex="0038"/>
  <outline>
    <contour>
      <point x="395" y="361" type="curve" smooth="yes"/>
      <point x="299" y="399" type="line" smooth="yes"/>
      <point x="236" y="424"/>
      <point x="218" y="472"/>
      <point x="231" y="522" type="curve" smooth="yes"/>
      <point x="235" y="542"/>
      <point x="240" y="560"/>
      <point x="247" y="588" type="curve"/>
      <point x="198" y="588"/>
      <point x="148" y="568"/>
      <point x="138" y="526" type="curve" smooth="yes"/>
      <point x="116" y="440"/>
      <point x="149" y="373"/>
      <point x="259" y="328" type="curve" smooth="yes"/>
      <point x="353" y="290" type="line" smooth="yes"/>
      <point x="419" y="263"/>
      <point x="437" y="223"/>
      <point x="426" y="175" type="curve" smooth="yes"/>
      <point x="415" y="133"/>
      <point x="411" y="119"/>
      <point x="406" y="102" type="curve"/>
      <point x="455" y="106"/>
      <point x="509" y="138"/>
      <point x="519" y="177" type="curve"/>
      <point x="538" y="253"/>
      <point x="500" y="319"/>
    </contour>
    <contour>
      <point x="241" y="-20" type="curve" smooth="yes"/>
      <point x="410" y="-20"/>
      <point x="488" y="53"/>
      <point x="511" y="147" type="curve" smooth="yes"/>
      <point x="519" y="177" type="line" smooth="yes"/>
      <point x="526" y="207"/>
      <point x="494" y="232"/>
      <point x="440" y="235" type="curve"/>
      <point x="438" y="228"/>
      <point x="433" y="203"/>
      <point x="423" y="164" type="curve" smooth="yes"/>
      <point x="408" y="105"/>
      <point x="353" y="68"/>
      <point x="256" y="68" type="curve" smooth="yes"/>
      <point x="206" y="68"/>
      <point x="172" y="68"/>
      <point x="146" y="68" type="curve"/>
      <point x="134" y="22"/>
      <point x="186" y="-20"/>
    </contour>
    <contour>
      <point x="408" y="720" type="curve" smooth="yes"/>
      <point x="269" y="720"/>
      <point x="171" y="656"/>
      <point x="145" y="553" type="curve" smooth="yes"/>
      <point x="138" y="526" type="line" smooth="yes"/>
      <point x="128" y="488"/>
      <point x="150" y="458"/>
      <point x="215" y="458" type="curve"/>
      <point x="220" y="480"/>
      <point x="225" y="501"/>
      <point x="234" y="535" type="curve" smooth="yes"/>
      <point x="249" y="595"/>
      <point x="304" y="632"/>
      <point x="384" y="632" type="curve" smooth="yes"/>
      <point x="437" y="632"/>
      <point x="468" y="632"/>
      <point x="495" y="632" type="curve"/>
      <point x="509" y="687"/>
      <point x="468" y="720"/>
    </contour>
    <contour>
      <point x="376" y="346" type="curve" smooth="yes"/>
      <point x="451" y="346"/>
      <point x="561" y="419"/>
      <point x="583" y="501" type="curve" smooth="yes"/>
      <point x="590" y="529" type="line" smooth="yes"/>
      <point x="618" y="635"/>
      <point x="544" y="720"/>
      <point x="408" y="720" type="curve" smooth="yes"/>
      <point x="388" y="720"/>
      <point x="384" y="711"/>
      <point x="384" y="632" type="curve"/>
      <point x="477" y="632"/>
      <point x="511" y="587"/>
      <point x="493" y="518" type="curve" smooth="yes"/>
      <point x="490" y="505" type="line" smooth="yes"/>
      <point x="475" y="448"/>
      <point x="423" y="406"/>
      <point x="315" y="375" type="curve"/>
      <point x="325" y="357"/>
      <point x="348" y="346"/>
    </contour>
    <contour>
      <point x="256" y="68" type="curve"/>
      <point x="149" y="68"/>
      <point x="115" y="120"/>
      <point x="129" y="180" type="curve" smooth="yes"/>
      <point x="132" y="192" type="line" smooth="yes"/>
      <point x="146" y="252"/>
      <point x="207" y="300"/>
      <point x="317" y="319" type="curve"/>
      <point x="307" y="340"/>
      <point x="292" y="353"/>
      <point x="256" y="353" type="curve" smooth="yes"/>
      <point x="170" y="353"/>
      <point x="65" y="288"/>
      <point x="41" y="199" type="curve" smooth="yes"/>
      <point x="33" y="167" type="line" smooth="yes"/>
      <point x="6" y="64"/>
      <point x="84" y="-20"/>
      <point x="241" y="-20" type="curve" smooth="yes"/>
      <point x="249" y="-20"/>
      <point x="267" y="5"/>
    </contour>
  </outline>
</glyph>
<glyph name="nine" format="1">
  <advance width="600"/>
  <unicode hex="0039"/>
  <outline>
    <contour>
      <point x="484" y="632" type="curve"/>
      <point x="498" y="688"/>
      <point x="461" y="720"/>
      <point x="388" y="720" type="curve"/>
      <point x="246" y="720"/>
      <point x="157" y="647"/>
      <point x="126" y="525" type="curve" smooth="yes"/>
      <point x="110" y="460" type="line" smooth="yes"/>
      <point x="100" y="421"/>
      <point x="130" y="382"/>
      <point x="188" y="382" type="curve"/>
      <point x="195" y="411"/>
      <point x="201" y="433"/>
      <point x="209" y="465" type="curve" smooth="yes"/>
      <point x="221" y="514" type="line" smooth="yes"/>
      <point x="241" y="594"/>
      <point x="287" y="632"/>
      <point x="375" y="632" type="curve" smooth="yes"/>
      <point x="421" y="632"/>
      <point x="458" y="632"/>
    </contour>
    <contour>
      <point x="317" y="72" type="curve"/>
      <point x="286" y="72"/>
      <point x="266" y="72"/>
      <point x="223" y="72" type="curve" smooth="yes"/>
      <point x="157" y="72"/>
      <point x="117" y="83"/>
      <point x="69" y="114" type="curve"/>
      <point x="54" y="114" type="line"/>
      <point x="48" y="91"/>
      <point x="42" y="67"/>
      <point x="33" y="30" type="curve" smooth="yes"/>
      <point x="32" y="26"/>
      <point x="32" y="25"/>
      <point x="33" y="22" type="curve" smooth="yes"/>
      <point x="51" y="0"/>
      <point x="134" y="-20"/>
      <point x="207" y="-20" type="curve" smooth="yes"/>
      <point x="276" y="-20"/>
      <point x="301" y="9"/>
    </contour>
    <contour>
      <point x="535" y="257" type="curve" smooth="yes"/>
      <point x="575" y="416" type="line" smooth="yes"/>
      <point x="625" y="615"/>
      <point x="553" y="720"/>
      <point x="388" y="720" type="curve" smooth="yes"/>
      <point x="373" y="720"/>
      <point x="369" y="689"/>
      <point x="375" y="632" type="curve"/>
      <point x="473" y="632"/>
      <point x="514" y="572"/>
      <point x="478" y="430" type="curve" smooth="yes"/>
      <point x="438" y="272" type="line" smooth="yes"/>
      <point x="403" y="131"/>
      <point x="341" y="72"/>
      <point x="223" y="72" type="curve"/>
      <point x="193" y="25"/>
      <point x="195" y="-20"/>
      <point x="207" y="-20" type="curve" smooth="yes"/>
      <point x="392" y="-20"/>
      <point x="485" y="58"/>
    </contour>
    <contour>
      <point x="266" y="260" type="curve" smooth="yes"/>
      <point x="336" y="260"/>
      <point x="406" y="286"/>
      <point x="451" y="322" type="curve" smooth="yes"/>
      <point x="463" y="332"/>
      <point x="472" y="350"/>
      <point x="486" y="406" type="curve"/>
      <point x="425" y="364"/>
      <point x="368" y="346"/>
      <point x="305" y="346" type="curve" smooth="yes"/>
      <point x="217" y="346"/>
      <point x="191" y="393"/>
      <point x="209" y="465" type="curve" smooth="yes"/>
      <point x="212" y="481"/>
      <point x="217" y="500"/>
      <point x="219" y="509" type="curve"/>
      <point x="154" y="507"/>
      <point x="116" y="488"/>
      <point x="110" y="460" type="curve" smooth="yes"/>
      <point x="81" y="344"/>
      <point x="140" y="260"/>
    </contour>
  </outline>
</glyph>
<glyph name="colon" format="1">
  <advance width="600"/>
  <unicode hex="003A"/>
  <outline>
    <contour>
      <point x="409" y="381" type="curve"/>
      <point x="446" y="529" type="line" smooth="yes"/>
      <point x="448" y="535"/>
      <point x="444" y="540"/>
      <point x="438" y="540" type="curve" smooth="yes"/>
      <point x="392" y="540"/>
      <point x="334" y="540"/>
      <point x="288" y="540" type="curve"/>
      <point x="251" y="392" type="line" smooth="yes"/>
      <point x="250" y="386"/>
      <point x="253" y="381"/>
      <point x="259" y="381" type="curve" smooth="yes"/>
      <point x="305" y="381"/>
      <point x="363" y="381"/>
    </contour>
    <contour>
      <point x="312" y="-7" type="curve"/>
      <point x="349" y="140" type="line" smooth="yes"/>
      <point x="350" y="146"/>
      <point x="347" y="151"/>
      <point x="341" y="151" type="curve" smooth="yes"/>
      <point x="295" y="151"/>
      <point x="237" y="151"/>
      <point x="191" y="151" type="curve"/>
      <point x="154" y="4" type="line" smooth="yes"/>
      <point x="152" y="-2"/>
      <point x="156" y="-7"/>
      <point x="162" y="-7" type="curve" smooth="yes"/>
      <point x="208" y="-7"/>
      <point x="266" y="-7"/>
    </contour>
  </outline>
</glyph>
<glyph name="semicolon" format="1">
  <advance width="600"/>
  <unicode hex="003B"/>
  <outline>
    <contour>
      <point x="409" y="381" type="curve"/>
      <point x="446" y="529" type="line" smooth="yes"/>
      <point x="448" y="535"/>
      <point x="444" y="540"/>
      <point x="438" y="540" type="curve" smooth="yes"/>
      <point x="392" y="540"/>
      <point x="334" y="540"/>
      <point x="288" y="540" type="curve"/>
      <point x="251" y="392" type="line" smooth="yes"/>
      <point x="250" y="386"/>
      <point x="253" y="381"/>
      <point x="259" y="381" type="curve" smooth="yes"/>
      <point x="305" y="381"/>
      <point x="363" y="381"/>
    </contour>
    <contour>
      <point x="162" y="-214" type="curve" smooth="yes"/>
      <point x="167" y="-214"/>
      <point x="170" y="-213"/>
      <point x="174" y="-207" type="curve"/>
      <point x="240" y="-106"/>
      <point x="311" y="4"/>
      <point x="371" y="94" type="curve"/>
      <point x="376" y="102"/>
      <point x="374" y="107"/>
      <point x="366" y="107" type="curve" smooth="yes"/>
      <point x="314" y="107"/>
      <point x="283" y="107"/>
      <point x="222" y="107" type="curve"/>
      <point x="171" y="0"/>
      <point x="120" y="-107"/>
      <point x="70" y="-214" type="curve"/>
      <point x="94" y="-214"/>
      <point x="122" y="-214"/>
    </contour>
  </outline>
</glyph>
<glyph name="greater" format="1">
  <advance width="600"/>
  <unicode hex="003E"/>
  <outline>
    <contour>
      <point x="43" y="119" type="curve"/>
      <point x="21" y="30" type="line"/>
      <point x="20" y="25"/>
      <point x="21" y="21"/>
      <point x="26" y="21" type="curve" smooth="yes"/>
      <point x="30" y="21"/>
      <point x="34" y="22"/>
      <point x="50" y="29" type="curve" smooth="yes"/>
      <point x="98" y="50"/>
      <point x="355" y="162"/>
      <point x="511" y="230" type="curve"/>
      <point x="541" y="349" type="line"/>
      <point x="526" y="332"/>
      <point x="510" y="321"/>
      <point x="467" y="304" type="curve"/>
      <point x="326" y="242"/>
      <point x="184" y="181"/>
    </contour>
    <contour>
      <point x="160" y="586" type="curve"/>
      <point x="152" y="554"/>
      <point x="145" y="526"/>
      <point x="137" y="494" type="curve" smooth="yes"/>
      <point x="135" y="485"/>
      <point x="135" y="482"/>
      <point x="143" y="478" type="curve" smooth="yes"/>
      <point x="237" y="425"/>
      <point x="332" y="372"/>
      <point x="428" y="318" type="curve" smooth="yes"/>
      <point x="435" y="315"/>
      <point x="435" y="311"/>
      <point x="433" y="304" type="curve" smooth="yes"/>
      <point x="429" y="286"/>
      <point x="424" y="265"/>
      <point x="417" y="238" type="curve"/>
      <point x="488" y="240"/>
      <point x="529" y="299"/>
      <point x="539" y="342" type="curve" smooth="yes"/>
      <point x="544" y="361" type="line" smooth="yes"/>
      <point x="546" y="370"/>
      <point x="544" y="376"/>
      <point x="536" y="380" type="curve" smooth="yes"/>
      <point x="411" y="448"/>
      <point x="286" y="517"/>
    </contour>
  </outline>
</glyph>
<glyph name="at" format="1">
  <advance width="600"/>
  <unicode hex="0040"/>
  <outline>
    <contour>
      <point x="520" y="507" type="curve" smooth="yes"/>
      <point x="511" y="524"/>
      <point x="478" y="542"/>
      <point x="433" y="542" type="curve" smooth="yes"/>
      <point x="397" y="542"/>
      <point x="367" y="532"/>
      <point x="340" y="512" type="curve" smooth="yes"/>
      <point x="318" y="494"/>
      <point x="319" y="478"/>
      <point x="364" y="402" type="curve"/>
      <point x="376" y="451"/>
      <point x="403" y="466"/>
      <point x="441" y="466" type="curve" smooth="yes"/>
      <point x="470" y="466"/>
      <point x="490" y="462"/>
      <point x="514" y="449" type="curve"/>
      <point x="527" y="478"/>
      <point x="527" y="495"/>
    </contour>
    <contour>
      <point x="453" y="170" type="curve"/>
      <point x="411" y="126"/>
      <point x="361" y="104"/>
      <point x="325" y="104" type="curve" smooth="yes"/>
      <point x="303" y="104"/>
      <point x="293" y="120"/>
      <point x="299" y="145" type="curve" smooth="yes"/>
      <point x="364" y="402" type="line" smooth="yes"/>
      <point x="374" y="442"/>
      <point x="388" y="466"/>
      <point x="424" y="499" type="curve"/>
      <point x="378" y="527"/>
      <point x="364" y="531"/>
      <point x="340" y="512" type="curve" smooth="yes"/>
      <point x="308" y="486"/>
      <point x="290" y="453"/>
      <point x="279" y="408" type="curve" smooth="yes"/>
      <point x="209" y="130" type="line" smooth="yes"/>
      <point x="192" y="62"/>
      <point x="222" y="20"/>
      <point x="282" y="20" type="curve" smooth="yes"/>
      <point x="330" y="20"/>
      <point x="371" y="40"/>
      <point x="431" y="99" type="curve" smooth="yes"/>
      <point x="439" y="107"/>
      <point x="442" y="115"/>
    </contour>
    <contour>
      <point x="472" y="30" type="line"/>
      <point x="481" y="66"/>
      <point x="490" y="101"/>
      <point x="499" y="136" type="curve"/>
      <point x="600" y="543" type="line" smooth="yes"/>
      <point x="629" y="657"/>
      <point x="588" y="760"/>
      <point x="428" y="760" type="curve" smooth="yes"/>
      <point x="415" y="760"/>
      <point x="407" y="748"/>
      <point x="413" y="690" type="curve"/>
      <point x="491" y="690"/>
      <point x="543" y="658"/>
      <point x="514" y="543" type="curve" smooth="yes"/>
      <point x="406" y="110" type="line" smooth="yes"/>
      <point x="404" y="105"/>
      <point x="427" y="30"/>
      <point x="434" y="30" type="curve" smooth="yes"/>
    </contour>
    <contour>
      <point x="129" y="506" type="curve" smooth="yes"/>
      <point x="27" y="98" type="line" smooth="yes"/>
      <point x="0" y="-9"/>
      <point x="2" y="-75"/>
      <point x="40" y="-125" type="curve" smooth="yes"/>
      <point x="61" y="-153"/>
      <point x="164" y="-164"/>
      <point x="227" y="-121" type="curve"/>
      <point x="84" y="-121"/>
      <point x="70" y="-27"/>
      <point x="97" y="82" type="curve" smooth="yes"/>
      <point x="199" y="490" type="line" smooth="yes"/>
      <point x="230" y="613"/>
      <point x="305" y="690"/>
      <point x="413" y="690" type="curve" smooth="yes"/>
      <point x="474" y="690"/>
      <point x="516" y="669"/>
      <point x="539" y="636" type="curve"/>
      <point x="551" y="642"/>
      <point x="555" y="649"/>
      <point x="559" y="665" type="curve" smooth="yes"/>
      <point x="572" y="715"/>
      <point x="509" y="760"/>
      <point x="428" y="760" type="curve" smooth="yes"/>
      <point x="286" y="760"/>
      <point x="167" y="658"/>
    </contour>
    <contour>
      <point x="202" y="-190" type="curve" smooth="yes"/>
      <point x="268" y="-190"/>
      <point x="339" y="-174"/>
      <point x="358" y="-159" type="curve" smooth="yes"/>
      <point x="360" y="-157"/>
      <point x="362" y="-154"/>
      <point x="363" y="-151" type="curve" smooth="yes"/>
      <point x="377" y="-94" type="line"/>
      <point x="360" y="-94" type="line"/>
      <point x="317" y="-113"/>
      <point x="275" y="-121"/>
      <point x="227" y="-121" type="curve" smooth="yes"/>
      <point x="140" y="-121"/>
      <point x="103" y="-94"/>
      <point x="67" y="-38" type="curve"/>
      <point x="33" y="-72"/>
      <point x="25" y="-104"/>
      <point x="40" y="-125" type="curve"/>
      <point x="70" y="-164"/>
      <point x="125" y="-190"/>
    </contour>
  </outline>
</glyph>
<glyph name="A" format="1">
  <advance width="600"/>
  <unicode hex="0041"/>
  <outline>
    <contour>
      <point x="66" y="0" type="curve"/>
      <point x="224" y="327"/>
      <point x="305" y="483"/>
      <point x="397" y="657" type="curve"/>
      <point x="408" y="681"/>
      <point x="429" y="694"/>
      <point x="485" y="705" type="curve"/>
      <point x="320" y="705" type="line"/>
      <point x="230" y="535"/>
      <point x="111" y="299"/>
      <point x="-31" y="14" type="curve"/>
      <point x="-35" y="5"/>
      <point x="-31" y="0"/>
      <point x="-24" y="0" type="curve" smooth="yes"/>
      <point x="5" y="0"/>
      <point x="35" y="0"/>
    </contour>
    <contour>
      <point x="505" y="0" type="curve"/>
      <point x="503" y="254"/>
      <point x="501" y="490"/>
      <point x="496" y="693" type="curve"/>
      <point x="496" y="699"/>
      <point x="495" y="701"/>
      <point x="493" y="703" type="curve" smooth="yes"/>
      <point x="492" y="705"/>
      <point x="489" y="705"/>
      <point x="485" y="705" type="curve"/>
      <point x="395" y="705"/>
      <point x="372" y="692"/>
      <point x="352" y="610" type="curve"/>
      <point x="361" y="610"/>
      <point x="386" y="610"/>
      <point x="394" y="610" type="curve" smooth="yes"/>
      <point x="397" y="610"/>
      <point x="399" y="609"/>
      <point x="399" y="605" type="curve"/>
      <point x="403" y="438"/>
      <point x="408" y="266"/>
      <point x="407" y="15" type="curve"/>
      <point x="407" y="7"/>
      <point x="408" y="5"/>
      <point x="409" y="3" type="curve" smooth="yes"/>
      <point x="411" y="1"/>
      <point x="413" y="0"/>
      <point x="417" y="0" type="curve" smooth="yes"/>
      <point x="447" y="0"/>
      <point x="475" y="0"/>
    </contour>
    <contour>
      <point x="147" y="284" type="line"/>
      <point x="128" y="206" type="line" smooth="yes"/>
      <point x="127" y="203"/>
      <point x="127" y="200"/>
      <point x="129" y="198" type="curve" smooth="yes"/>
      <point x="130" y="196"/>
      <point x="133" y="195"/>
      <point x="136" y="195" type="curve"/>
      <point x="450" y="195" type="line"/>
      <point x="472" y="281"/>
      <point x="464" y="284"/>
      <point x="462" y="284" type="curve" smooth="yes"/>
    </contour>
    <contour>
      <point x="411" y="711" type="move" name="top"/>
    </contour>
    <contour>
      <point x="504" y="-1" type="move" name="ogonek"/>
    </contour>
    <contour>
      <point x="408" y="700" type="move" name="ring"/>
    </contour>
    <contour>
      <point x="233" y="-1" type="move" name="bottom"/>
    </contour>
  </outline>
</glyph>
<glyph name="B" format="1">
  <advance width="600"/>
  <unicode hex="0042"/>
  <outline>
    <contour>
      <point x="124" y="8" type="curve"/>
      <point x="287" y="661" type="line" smooth="yes"/>
      <point x="290" y="671"/>
      <point x="259" y="675"/>
      <point x="190" y="675" type="curve"/>
      <point x="24" y="11" type="line"/>
      <point x="23" y="10"/>
      <point x="68" y="8"/>
    </contour>
    <contour>
      <point x="138" y="700" type="curve"/>
      <point x="133" y="678"/>
      <point x="126" y="649"/>
      <point x="119" y="621" type="curve" smooth="yes"/>
      <point x="118" y="618"/>
      <point x="118" y="615"/>
      <point x="120" y="613" type="curve" smooth="yes"/>
      <point x="121" y="611"/>
      <point x="124" y="610"/>
      <point x="127" y="610" type="curve" smooth="yes"/>
      <point x="143" y="610"/>
      <point x="167" y="610"/>
      <point x="188" y="610" type="curve" smooth="yes"/>
      <point x="251" y="610"/>
      <point x="334" y="610"/>
      <point x="396" y="610" type="curve" smooth="yes"/>
      <point x="461" y="610"/>
      <point x="474" y="610"/>
      <point x="515" y="610" type="curve"/>
      <point x="527" y="659"/>
      <point x="503" y="700"/>
      <point x="412" y="700" type="curve" smooth="yes"/>
      <point x="327" y="700"/>
      <point x="225" y="700"/>
    </contour>
    <contour>
      <point x="580" y="500" type="curve" smooth="yes"/>
      <point x="587" y="527" type="line" smooth="yes"/>
      <point x="609" y="618"/>
      <point x="570" y="700"/>
      <point x="412" y="700" type="curve" smooth="yes"/>
      <point x="398" y="700"/>
      <point x="393" y="688"/>
      <point x="396" y="610" type="curve"/>
      <point x="475" y="610"/>
      <point x="498" y="578"/>
      <point x="484" y="520" type="curve" smooth="yes"/>
      <point x="476" y="488" type="line" smooth="yes"/>
      <point x="461" y="428"/>
      <point x="425" y="391"/>
      <point x="323" y="391" type="curve" smooth="yes"/>
      <point x="275" y="391"/>
      <point x="237" y="391"/>
      <point x="190" y="391" type="curve"/>
      <point x="187" y="380"/>
      <point x="183" y="365"/>
      <point x="181" y="354" type="curve" smooth="yes"/>
      <point x="179" y="348"/>
      <point x="183" y="343"/>
      <point x="191" y="343" type="curve" smooth="yes"/>
      <point x="334" y="343" type="line" smooth="yes"/>
      <point x="470" y="343"/>
      <point x="555" y="397"/>
    </contour>
    <contour>
      <point x="509" y="169" type="curve" smooth="yes"/>
      <point x="517" y="200" type="line" smooth="yes"/>
      <point x="543" y="300"/>
      <point x="474" y="368"/>
      <point x="334" y="368" type="curve" smooth="yes"/>
      <point x="198" y="368" type="line" smooth="yes"/>
      <point x="191" y="368"/>
      <point x="182" y="363"/>
      <point x="181" y="358" type="curve"/>
      <point x="171" y="319" type="line"/>
      <point x="306" y="319" type="line"/>
      <point x="413" y="319"/>
      <point x="434" y="271"/>
      <point x="420" y="215" type="curve" smooth="yes"/>
      <point x="411" y="179" type="line" smooth="yes"/>
      <point x="395" y="118"/>
      <point x="352" y="90"/>
      <point x="271" y="90" type="curve" smooth="yes"/>
      <point x="219" y="90"/>
      <point x="157" y="90"/>
      <point x="95" y="90" type="curve"/>
      <point x="31" y="25"/>
      <point x="25" y="17"/>
      <point x="24" y="11" type="curve" smooth="yes"/>
      <point x="22" y="4"/>
      <point x="25" y="0"/>
      <point x="32" y="0" type="curve" smooth="yes"/>
      <point x="263" y="0" type="line" smooth="yes"/>
      <point x="385" y="0"/>
      <point x="479" y="50"/>
    </contour>
  </outline>
</glyph>
<glyph name="C" format="1">
  <advance width="600"/>
  <unicode hex="0043"/>
  <outline>
    <contour>
      <point x="420" y="630" type="curve" smooth="yes"/>
      <point x="495" y="630"/>
      <point x="532" y="608"/>
      <point x="560" y="575" type="curve"/>
      <point x="613" y="616"/>
      <point x="623" y="626"/>
      <point x="625" y="637" type="curve" smooth="yes"/>
      <point x="628" y="648"/>
      <point x="628" y="651"/>
      <point x="624" y="656" type="curve" smooth="yes"/>
      <point x="598" y="689"/>
      <point x="532" y="720"/>
      <point x="429" y="720" type="curve" smooth="yes"/>
      <point x="265" y="720"/>
      <point x="155" y="637"/>
      <point x="111" y="462" type="curve" smooth="yes"/>
      <point x="61" y="262" type="line" smooth="yes"/>
      <point x="41" y="183"/>
      <point x="67" y="116"/>
      <point x="129" y="117" type="curve"/>
      <point x="140" y="160"/>
      <point x="149" y="194"/>
      <point x="164" y="255" type="curve" smooth="yes"/>
      <point x="214" y="452" type="line" smooth="yes"/>
      <point x="245" y="577"/>
      <point x="312" y="630"/>
    </contour>
    <contour>
      <point x="278" y="-20" type="curve" smooth="yes"/>
      <point x="362" y="-20"/>
      <point x="436" y="3"/>
      <point x="476" y="36" type="curve" smooth="yes"/>
      <point x="479" y="38"/>
      <point x="481" y="42"/>
      <point x="482" y="45" type="curve" smooth="yes"/>
      <point x="489" y="73"/>
      <point x="497" y="104"/>
      <point x="503" y="132" type="curve"/>
      <point x="488" y="132" type="line"/>
      <point x="423" y="93"/>
      <point x="369" y="73"/>
      <point x="291" y="73" type="curve" smooth="yes"/>
      <point x="178" y="73"/>
      <point x="134" y="134"/>
      <point x="164" y="255" type="curve"/>
      <point x="74" y="273"/>
      <point x="64" y="273"/>
      <point x="61" y="262" type="curve" smooth="yes"/>
      <point x="17" y="85"/>
      <point x="95" y="-20"/>
    </contour>
    <contour>
      <point x="586" y="480" type="curve"/>
      <point x="625" y="637" type="line" smooth="yes"/>
      <point x="628" y="650"/>
      <point x="607" y="656"/>
      <point x="537" y="656" type="curve"/>
      <point x="533" y="642"/>
      <point x="529" y="628"/>
      <point x="527" y="617" type="curve" smooth="yes"/>
      <point x="495" y="491" type="line"/>
      <point x="494" y="487"/>
      <point x="494" y="484"/>
      <point x="496" y="482" type="curve" smooth="yes"/>
      <point x="498" y="480"/>
      <point x="500" y="480"/>
      <point x="503" y="480" type="curve"/>
      <point x="531" y="480"/>
      <point x="558" y="480"/>
    </contour>
    <contour>
      <point x="429" y="711" type="move" name="top"/>
    </contour>
    <contour>
      <point x="261" y="-1" type="move" name="bottom"/>
    </contour>
  </outline>
</glyph>
<glyph name="D" format="1">
  <advance width="600"/>
  <unicode hex="0044"/>
  <outline>
    <contour>
      <point x="124" y="4" type="curve"/>
      <point x="286" y="654" type="line" smooth="yes"/>
      <point x="288" y="661"/>
      <point x="284" y="665"/>
      <point x="188" y="665" type="curve"/>
      <point x="24" y="11" type="line" smooth="yes"/>
      <point x="22" y="4"/>
      <point x="27" y="4"/>
    </contour>
    <contour>
      <point x="143" y="700" type="curve"/>
      <point x="136" y="672"/>
      <point x="131" y="649"/>
      <point x="124" y="621" type="curve"/>
      <point x="123" y="618"/>
      <point x="123" y="615"/>
      <point x="125" y="613" type="curve" smooth="yes"/>
      <point x="126" y="611"/>
      <point x="129" y="610"/>
      <point x="132" y="610" type="curve" smooth="yes"/>
      <point x="150" y="610"/>
      <point x="172" y="610"/>
      <point x="196" y="610" type="curve" smooth="yes"/>
      <point x="245" y="610"/>
      <point x="322" y="610"/>
      <point x="367" y="610" type="curve" smooth="yes"/>
      <point x="420" y="610"/>
      <point x="435" y="610"/>
      <point x="481" y="610" type="curve"/>
      <point x="483" y="663"/>
      <point x="455" y="700"/>
      <point x="388" y="700" type="curve" smooth="yes"/>
      <point x="322" y="700"/>
      <point x="220" y="700"/>
    </contour>
    <contour>
      <point x="527" y="226" type="curve" smooth="yes"/>
      <point x="580" y="437" type="line" smooth="yes"/>
      <point x="628" y="625"/>
      <point x="532" y="700"/>
      <point x="388" y="700" type="curve"/>
      <point x="385" y="700"/>
      <point x="366" y="686"/>
      <point x="367" y="610" type="curve"/>
      <point x="476" y="610"/>
      <point x="510" y="561"/>
      <point x="480" y="443" type="curve" smooth="yes"/>
      <point x="427" y="230" type="line" smooth="yes"/>
      <point x="403" y="136"/>
      <point x="337" y="90"/>
      <point x="238" y="90" type="curve" smooth="yes"/>
      <point x="193" y="90"/>
      <point x="114" y="90"/>
      <point x="61" y="90" type="curve"/>
      <point x="43" y="63"/>
      <point x="33" y="47"/>
      <point x="24" y="11" type="curve" smooth="yes"/>
      <point x="22" y="4"/>
      <point x="26" y="0"/>
      <point x="32" y="0" type="curve" smooth="yes"/>
      <point x="222" y="0" type="line" smooth="yes"/>
      <point x="387" y="0"/>
      <point x="489" y="76"/>
    </contour>
    <contour>
      <point x="397" y="711" type="move" name="top"/>
    </contour>
  </outline>
</glyph>
<glyph name="E" format="1">
  <advance width="600"/>
  <unicode hex="0045"/>
  <outline>
    <contour>
      <point x="138" y="700" type="line"/>
      <point x="131" y="672"/>
      <point x="126" y="649"/>
      <point x="119" y="621" type="curve" smooth="yes"/>
      <point x="118" y="618"/>
      <point x="118" y="615"/>
      <point x="120" y="613" type="curve" smooth="yes"/>
      <point x="121" y="611"/>
      <point x="124" y="610"/>
      <point x="127" y="610" type="curve" smooth="yes"/>
      <point x="621" y="610" type="line"/>
      <point x="628" y="638"/>
      <point x="633" y="661"/>
      <point x="640" y="689" type="curve" smooth="yes"/>
      <point x="641" y="693"/>
      <point x="641" y="696"/>
      <point x="639" y="698" type="curve" smooth="yes"/>
      <point x="637" y="700"/>
      <point x="635" y="700"/>
      <point x="632" y="700" type="curve" smooth="yes"/>
    </contour>
    <contour>
      <point x="139" y="59" type="curve"/>
      <point x="289" y="660" type="line" smooth="yes"/>
      <point x="290" y="666"/>
      <point x="287" y="671"/>
      <point x="189" y="671" type="curve"/>
      <point x="43" y="90" type="line"/>
      <point x="40" y="76"/>
      <point x="53" y="59"/>
    </contour>
    <contour>
      <point x="43" y="90" type="line"/>
      <point x="24" y="11" type="line" smooth="yes"/>
      <point x="22" y="5"/>
      <point x="26" y="0"/>
      <point x="32" y="0" type="curve" smooth="yes"/>
      <point x="468" y="0" type="line"/>
      <point x="475" y="28"/>
      <point x="480" y="50"/>
      <point x="488" y="79" type="curve" smooth="yes"/>
      <point x="490" y="85"/>
      <point x="485" y="90"/>
      <point x="479" y="90" type="curve" smooth="yes"/>
    </contour>
    <contour>
      <point x="165" y="399" type="line"/>
      <point x="144" y="316"/>
      <point x="148" y="312"/>
      <point x="154" y="312" type="curve" smooth="yes"/>
      <point x="491" y="312" type="line"/>
      <point x="497" y="336"/>
      <point x="503" y="360"/>
      <point x="510" y="388" type="curve" smooth="yes"/>
      <point x="511" y="391"/>
      <point x="511" y="394"/>
      <point x="509" y="396" type="curve" smooth="yes"/>
      <point x="508" y="398"/>
      <point x="505" y="399"/>
      <point x="502" y="399" type="curve" smooth="yes"/>
    </contour>
    <contour>
      <point x="411" y="711" type="move" name="top"/>
    </contour>
    <contour>
      <point x="468" y="-1" type="move" name="ogonek"/>
    </contour>
    <contour>
      <point x="253" y="-1" type="move" name="bottom"/>
    </contour>
  </outline>
</glyph>
<glyph name="F" format="1">
  <advance width="600"/>
  <unicode hex="0046"/>
  <outline>
    <contour>
      <point x="147" y="0" type="curve"/>
      <point x="155" y="32"/>
      <point x="163" y="65"/>
      <point x="172" y="98" type="curve" smooth="yes"/>
      <point x="310" y="655" type="line"/>
      <point x="313" y="663"/>
      <point x="304" y="669"/>
      <point x="211" y="669" type="curve"/>
      <point x="46" y="11" type="line" smooth="yes"/>
      <point x="44" y="5"/>
      <point x="48" y="0"/>
      <point x="54" y="0" type="curve" smooth="yes"/>
      <point x="85" y="0"/>
      <point x="116" y="0"/>
    </contour>
    <contour>
      <point x="161" y="700" type="line"/>
      <point x="154" y="672"/>
      <point x="148" y="649"/>
      <point x="141" y="621" type="curve" smooth="yes"/>
      <point x="140" y="618"/>
      <point x="140" y="615"/>
      <point x="142" y="613" type="curve" smooth="yes"/>
      <point x="144" y="611"/>
      <point x="146" y="610"/>
      <point x="149" y="610" type="curve"/>
      <point x="621" y="610" type="line"/>
      <point x="628" y="638"/>
      <point x="633" y="661"/>
      <point x="640" y="689" type="curve" smooth="yes"/>
      <point x="641" y="692"/>
      <point x="641" y="695"/>
      <point x="639" y="697" type="curve" smooth="yes"/>
      <point x="638" y="699"/>
      <point x="635" y="700"/>
      <point x="632" y="700" type="curve"/>
    </contour>
    <contour>
      <point x="182" y="374" type="line"/>
      <point x="161" y="294"/>
      <point x="162" y="285"/>
      <point x="170" y="285" type="curve"/>
      <point x="494" y="285" type="line"/>
      <point x="501" y="312"/>
      <point x="507" y="335"/>
      <point x="514" y="362" type="curve"/>
      <point x="515" y="366"/>
      <point x="514" y="369"/>
      <point x="513" y="371" type="curve" smooth="yes"/>
      <point x="511" y="373"/>
      <point x="509" y="374"/>
      <point x="506" y="374" type="curve"/>
    </contour>
  </outline>
</glyph>
<glyph name="G" format="1">
  <advance width="587"/>
  <unicode hex="0047"/>
  <outline>
    <contour>
      <point x="402" y="632" type="curve" smooth="yes"/>
      <point x="477" y="632"/>
      <point x="518" y="617"/>
      <point x="554" y="576" type="curve"/>
      <point x="605" y="620"/>
      <point x="612" y="629"/>
      <point x="614" y="638" type="curve" smooth="yes"/>
      <point x="617" y="649"/>
      <point x="617" y="652"/>
      <point x="613" y="657" type="curve" smooth="yes"/>
      <point x="586" y="692"/>
      <point x="514" y="720"/>
      <point x="420" y="720" type="curve" smooth="yes"/>
      <point x="256" y="720"/>
      <point x="157" y="644"/>
      <point x="114" y="469" type="curve" smooth="yes"/>
      <point x="57" y="244" type="line" smooth="yes"/>
      <point x="45" y="194"/>
      <point x="74" y="120"/>
      <point x="126" y="120" type="curve"/>
      <point x="135" y="157"/>
      <point x="143" y="190"/>
      <point x="154" y="235" type="curve" smooth="yes"/>
      <point x="211" y="464" type="line" smooth="yes"/>
      <point x="241" y="582"/>
      <point x="295" y="632"/>
    </contour>
    <contour>
      <point x="262" y="69" type="curve" smooth="yes"/>
      <point x="168" y="69"/>
      <point x="128" y="130"/>
      <point x="154" y="235" type="curve"/>
      <point x="81" y="259"/>
      <point x="62" y="262"/>
      <point x="57" y="244" type="curve" smooth="yes"/>
      <point x="21" y="95"/>
      <point x="83" y="-20"/>
      <point x="250" y="-20" type="curve" smooth="yes"/>
      <point x="390" y="-20"/>
      <point x="469" y="55"/>
      <point x="474" y="73" type="curve" smooth="yes"/>
      <point x="529" y="293" type="line" smooth="yes"/>
      <point x="533" y="306"/>
      <point x="475" y="312"/>
      <point x="439" y="312" type="curve"/>
      <point x="422" y="246"/>
      <point x="408" y="184"/>
      <point x="391" y="117" type="curve" smooth="yes"/>
      <point x="390" y="112"/>
      <point x="340" y="69"/>
    </contour>
    <contour>
      <point x="336" y="364" type="line"/>
      <point x="329" y="339"/>
      <point x="324" y="315"/>
      <point x="317" y="289" type="curve" smooth="yes"/>
      <point x="317" y="286"/>
      <point x="317" y="283"/>
      <point x="318" y="281" type="curve" smooth="yes"/>
      <point x="320" y="279"/>
      <point x="323" y="278"/>
      <point x="326" y="278" type="curve"/>
      <point x="567" y="278" type="line"/>
      <point x="585" y="353" type="line" smooth="yes"/>
      <point x="587" y="359"/>
      <point x="583" y="364"/>
      <point x="577" y="364" type="curve" smooth="yes"/>
    </contour>
    <contour>
      <point x="579" y="497" type="curve"/>
      <point x="614" y="638" type="line" smooth="yes"/>
      <point x="617" y="651"/>
      <point x="609" y="657"/>
      <point x="525" y="657" type="curve"/>
      <point x="522" y="647"/>
      <point x="519" y="632"/>
      <point x="516" y="623" type="curve" smooth="yes"/>
      <point x="487" y="508" type="line" smooth="yes"/>
      <point x="486" y="501"/>
      <point x="489" y="497"/>
      <point x="496" y="497" type="curve" smooth="yes"/>
      <point x="523" y="497"/>
      <point x="551" y="497"/>
    </contour>
    <contour>
      <point x="425" y="711" type="move" name="top"/>
    </contour>
    <contour>
      <point x="247" y="-1" type="move" name="bottom"/>
    </contour>
  </outline>
</glyph>
<glyph name="H" format="1">
  <advance width="600"/>
  <unicode hex="0048"/>
  <outline>
    <contour>
      <point x="184" y="700" type="curve"/>
      <point x="176" y="666"/>
      <point x="167" y="632"/>
      <point x="158" y="597" type="curve" smooth="yes"/>
      <point x="12" y="11" type="line" smooth="yes"/>
      <point x="10" y="5"/>
      <point x="14" y="0"/>
      <point x="20" y="0" type="curve" smooth="yes"/>
      <point x="51" y="0"/>
      <point x="82" y="0"/>
      <point x="113" y="0" type="curve"/>
      <point x="285" y="689" type="line" smooth="yes"/>
      <point x="286" y="692"/>
      <point x="286" y="695"/>
      <point x="284" y="697" type="curve" smooth="yes"/>
      <point x="283" y="699"/>
      <point x="280" y="700"/>
      <point x="277" y="700" type="curve" smooth="yes"/>
      <point x="246" y="700"/>
      <point x="215" y="700"/>
    </contour>
    <contour>
      <point x="457" y="0" type="curve"/>
      <point x="465" y="33"/>
      <point x="474" y="68"/>
      <point x="483" y="105" type="curve" smooth="yes"/>
      <point x="629" y="689" type="line" smooth="yes"/>
      <point x="631" y="695"/>
      <point x="627" y="700"/>
      <point x="621" y="700" type="curve" smooth="yes"/>
      <point x="590" y="700"/>
      <point x="559" y="700"/>
      <point x="529" y="700" type="curve"/>
      <point x="357" y="11" type="line" smooth="yes"/>
      <point x="356" y="8"/>
      <point x="356" y="5"/>
      <point x="358" y="3" type="curve" smooth="yes"/>
      <point x="359" y="1"/>
      <point x="362" y="0"/>
      <point x="365" y="0" type="curve" smooth="yes"/>
      <point x="395" y="0"/>
      <point x="426" y="0"/>
    </contour>
    <contour>
      <point x="159" y="399" type="line"/>
      <point x="139" y="321" type="line" smooth="yes"/>
      <point x="138" y="318"/>
      <point x="138" y="315"/>
      <point x="140" y="313" type="curve" smooth="yes"/>
      <point x="141" y="311"/>
      <point x="144" y="310"/>
      <point x="147" y="310" type="curve"/>
      <point x="490" y="310" type="line"/>
      <point x="512" y="399"/>
      <point x="507" y="399"/>
      <point x="501" y="399" type="curve" smooth="yes"/>
    </contour>
    <contour>
      <point x="411" y="711" type="move" name="top"/>
    </contour>
  </outline>
</glyph>
<glyph name="I" format="1">
  <advance width="600"/>
  <unicode hex="0049"/>
  <outline>
    <contour>
      <point x="294" y="35" type="curve"/>
      <point x="448" y="654" type="line" smooth="yes"/>
      <point x="450" y="660"/>
      <point x="446" y="665"/>
      <point x="348" y="665" type="curve"/>
      <point x="193" y="46" type="line" smooth="yes"/>
      <point x="191" y="40"/>
      <point x="195" y="35"/>
    </contour>
    <contour>
      <point x="188" y="700" type="line"/>
      <point x="181" y="672"/>
      <point x="176" y="649"/>
      <point x="169" y="621" type="curve"/>
      <point x="168" y="618"/>
      <point x="168" y="615"/>
      <point x="170" y="613" type="curve" smooth="yes"/>
      <point x="171" y="611"/>
      <point x="174" y="610"/>
      <point x="177" y="610" type="curve" smooth="yes"/>
      <point x="606" y="610" type="line"/>
      <point x="612" y="638"/>
      <point x="618" y="661"/>
      <point x="625" y="689" type="curve" smooth="yes"/>
      <point x="627" y="695"/>
      <point x="623" y="700"/>
      <point x="617" y="700" type="curve" smooth="yes"/>
    </contour>
    <contour>
      <point x="35" y="90" type="line"/>
      <point x="29" y="62"/>
      <point x="23" y="39"/>
      <point x="16" y="11" type="curve"/>
      <point x="15" y="8"/>
      <point x="15" y="5"/>
      <point x="17" y="3" type="curve" smooth="yes"/>
      <point x="18" y="1"/>
      <point x="21" y="0"/>
      <point x="24" y="0" type="curve" smooth="yes"/>
      <point x="453" y="0" type="line"/>
      <point x="460" y="28"/>
      <point x="466" y="52"/>
      <point x="473" y="79" type="curve" smooth="yes"/>
      <point x="474" y="85"/>
      <point x="470" y="90"/>
      <point x="464" y="90" type="curve" smooth="yes"/>
    </contour>
    <contour>
      <point x="411" y="711" type="move" name="top"/>
    </contour>
    <contour>
      <point x="452" y="-1" type="move" name="ogonek"/>
    </contour>
    <contour>
      <point x="233" y="-1" type="move" name="bottom"/>
    </contour>
  </outline>
</glyph>
<glyph name="J" format="1">
  <advance width="600"/>
  <unicode hex="004A"/>
  <outline>
    <contour>
      <point x="239" y="700" type="line"/>
      <point x="231" y="672"/>
      <point x="226" y="649"/>
      <point x="219" y="621" type="curve" smooth="yes"/>
      <point x="218" y="618"/>
      <point x="219" y="615"/>
      <point x="220" y="613" type="curve" smooth="yes"/>
      <point x="222" y="611"/>
      <point x="224" y="610"/>
      <point x="227" y="610" type="curve" smooth="yes"/>
      <point x="546" y="610" type="line"/>
      <point x="557" y="656"/>
      <point x="556" y="700"/>
      <point x="526" y="700" type="curve"/>
    </contour>
    <contour>
      <point x="486" y="216" type="curve" smooth="yes"/>
      <point x="605" y="689" type="line" smooth="yes"/>
      <point x="607" y="696"/>
      <point x="604" y="700"/>
      <point x="597" y="700" type="curve" smooth="yes"/>
      <point x="503" y="700" type="line"/>
      <point x="382" y="217" type="line" smooth="yes"/>
      <point x="368" y="160"/>
      <point x="361" y="134"/>
      <point x="353" y="100" type="curve"/>
      <point x="428" y="100"/>
      <point x="466" y="135"/>
    </contour>
    <contour>
      <point x="217" y="72" type="curve" smooth="yes"/>
      <point x="154" y="72"/>
      <point x="115" y="84"/>
      <point x="73" y="113" type="curve"/>
      <point x="57" y="113" type="line"/>
      <point x="50" y="87"/>
      <point x="45" y="65"/>
      <point x="38" y="39" type="curve"/>
      <point x="37" y="33"/>
      <point x="37" y="30"/>
      <point x="39" y="27" type="curve" smooth="yes"/>
      <point x="56" y="5"/>
      <point x="116" y="-20"/>
      <point x="203" y="-20" type="curve" smooth="yes"/>
      <point x="210" y="-20" type="line" smooth="yes"/>
      <point x="357" y="-20"/>
      <point x="447" y="54"/>
      <point x="486" y="216" type="curve"/>
      <point x="491" y="229"/>
      <point x="488" y="245"/>
      <point x="382" y="217" type="curve"/>
      <point x="356" y="115"/>
      <point x="305" y="72"/>
    </contour>
    <contour>
      <point x="408" y="711" type="move" name="top"/>
    </contour>
  </outline>
</glyph>
<glyph name="K" format="1">
  <advance width="600"/>
  <unicode hex="004B"/>
  <outline>
    <contour>
      <point x="188" y="700" type="curve"/>
      <point x="180" y="666"/>
      <point x="171" y="632"/>
      <point x="162" y="597" type="curve" smooth="yes"/>
      <point x="16" y="11" type="line" smooth="yes"/>
      <point x="14" y="5"/>
      <point x="18" y="0"/>
      <point x="24" y="0" type="curve" smooth="yes"/>
      <point x="55" y="0"/>
      <point x="86" y="0"/>
      <point x="117" y="0" type="curve"/>
      <point x="289" y="689" type="line" smooth="yes"/>
      <point x="290" y="693"/>
      <point x="290" y="696"/>
      <point x="288" y="698" type="curve" smooth="yes"/>
      <point x="286" y="700"/>
      <point x="284" y="700"/>
      <point x="281" y="700" type="curve" smooth="yes"/>
      <point x="250" y="700"/>
      <point x="219" y="700"/>
    </contour>
    <contour>
      <point x="648" y="700" type="curve"/>
      <point x="543" y="700" type="line"/>
      <point x="406" y="553"/>
      <point x="254" y="393"/>
      <point x="122" y="252" type="curve"/>
      <point x="112" y="241"/>
      <point x="110" y="227"/>
      <point x="131" y="150" type="curve"/>
      <point x="318" y="341"/>
      <point x="482" y="509"/>
      <point x="598" y="628" type="curve" smooth="yes"/>
      <point x="651" y="683"/>
      <point x="655" y="689"/>
      <point x="655" y="694" type="curve" smooth="yes"/>
      <point x="656" y="697"/>
      <point x="653" y="700"/>
    </contour>
    <contour>
      <point x="325" y="401" type="line"/>
      <point x="251" y="327"/>
      <point x="252" y="312"/>
      <point x="255" y="303" type="curve" smooth="yes"/>
      <point x="354" y="62" type="line" smooth="yes"/>
      <point x="375" y="11"/>
      <point x="397" y="-5"/>
      <point x="453" y="-5" type="curve" smooth="yes"/>
      <point x="485" y="-5" type="line" smooth="yes"/>
      <point x="492" y="-5"/>
      <point x="497" y="-1"/>
      <point x="499" y="6" type="curve" smooth="yes"/>
      <point x="507" y="35"/>
      <point x="514" y="64"/>
      <point x="521" y="93" type="curve"/>
      <point x="513" y="93" type="line"/>
      <point x="506" y="93"/>
      <point x="501" y="93"/>
      <point x="487" y="93" type="curve" smooth="yes"/>
      <point x="457" y="93"/>
      <point x="447" y="99"/>
      <point x="436" y="125" type="curve" smooth="yes"/>
    </contour>
    <contour>
      <point x="255" y="-1" type="move" name="bottom"/>
    </contour>
  </outline>
</glyph>
<glyph name="M" format="1">
  <advance width="600"/>
  <unicode hex="004D"/>
  <outline>
    <contour>
      <point x="94" y="0" type="curve"/>
      <point x="108" y="54"/>
      <point x="121" y="108"/>
      <point x="135" y="162" type="curve" smooth="yes"/>
      <point x="161" y="271"/>
      <point x="213" y="553"/>
      <point x="247" y="689" type="curve" smooth="yes"/>
      <point x="247" y="692"/>
      <point x="247" y="695"/>
      <point x="245" y="697" type="curve" smooth="yes"/>
      <point x="244" y="699"/>
      <point x="241" y="700"/>
      <point x="238" y="700" type="curve" smooth="yes"/>
      <point x="216" y="700"/>
      <point x="188" y="700"/>
      <point x="170" y="700" type="curve"/>
      <point x="162" y="667"/>
      <point x="153" y="633"/>
      <point x="145" y="600" type="curve" smooth="yes"/>
      <point x="-2" y="11" type="line" smooth="yes"/>
      <point x="-3" y="8"/>
      <point x="-3" y="5"/>
      <point x="-1" y="3" type="curve" smooth="yes"/>
      <point x="0" y="1"/>
      <point x="3" y="0"/>
      <point x="6" y="0" type="curve" smooth="yes"/>
      <point x="35" y="0"/>
      <point x="65" y="0"/>
    </contour>
    <contour>
      <point x="471" y="0" type="curve"/>
      <point x="479" y="34"/>
      <point x="488" y="68"/>
      <point x="496" y="101" type="curve" smooth="yes"/>
      <point x="643" y="689" type="line" smooth="yes"/>
      <point x="644" y="692"/>
      <point x="644" y="695"/>
      <point x="642" y="697" type="curve" smooth="yes"/>
      <point x="641" y="699"/>
      <point x="638" y="700"/>
      <point x="635" y="700" type="curve" smooth="yes"/>
      <point x="567" y="700" type="line"/>
      <point x="566" y="697"/>
      <point x="565" y="695"/>
      <point x="564" y="691" type="curve" smooth="yes"/>
      <point x="540" y="594"/>
      <point x="439" y="269"/>
      <point x="413" y="162" type="curve" smooth="yes"/>
      <point x="400" y="112"/>
      <point x="388" y="61"/>
      <point x="375" y="11" type="curve" smooth="yes"/>
      <point x="374" y="8"/>
      <point x="374" y="5"/>
      <point x="376" y="3" type="curve" smooth="yes"/>
      <point x="377" y="1"/>
      <point x="380" y="0"/>
      <point x="383" y="0" type="curve"/>
      <point x="412" y="0"/>
      <point x="442" y="0"/>
    </contour>
    <contour>
      <point x="192" y="700" type="line"/>
      <point x="215" y="522"/>
      <point x="238" y="345"/>
      <point x="261" y="169" type="curve"/>
      <point x="262" y="164"/>
      <point x="266" y="162"/>
      <point x="270" y="162" type="curve"/>
      <point x="282" y="162"/>
      <point x="302" y="231"/>
      <point x="316" y="289" type="curve"/>
      <point x="300" y="423"/>
      <point x="285" y="555"/>
      <point x="270" y="689" type="curve"/>
      <point x="268" y="697"/>
      <point x="265" y="700"/>
      <point x="257" y="700" type="curve"/>
    </contour>
    <contour>
      <point x="572" y="700" type="curve" smooth="yes"/>
      <point x="563" y="700"/>
      <point x="551" y="700"/>
      <point x="542" y="700" type="curve"/>
      <point x="458" y="563"/>
      <point x="371" y="423"/>
      <point x="286" y="287" type="curve"/>
      <point x="263" y="247"/>
      <point x="260" y="162"/>
      <point x="270" y="162" type="curve"/>
      <point x="281" y="162" type="line"/>
      <point x="388" y="326"/>
      <point x="494" y="490"/>
      <point x="599" y="654" type="curve"/>
      <point x="614" y="679"/>
      <point x="605" y="700"/>
    </contour>
  </outline>
</glyph>
<glyph name="N" format="1">
  <advance width="600"/>
  <unicode hex="004E"/>
  <outline>
    <contour>
      <point x="103" y="0" type="curve"/>
      <point x="211" y="434" type="line"/>
      <point x="217" y="455"/>
      <point x="257" y="694"/>
      <point x="254" y="697" type="curve" smooth="yes"/>
      <point x="253" y="699"/>
      <point x="250" y="700"/>
      <point x="247" y="700" type="curve"/>
      <point x="226" y="700"/>
      <point x="188" y="700"/>
      <point x="179" y="700" type="curve"/>
      <point x="167" y="653"/>
      <point x="156" y="607"/>
      <point x="144" y="560" type="curve" smooth="yes"/>
      <point x="7" y="11" type="line"/>
      <point x="5" y="5"/>
      <point x="9" y="0"/>
      <point x="15" y="0" type="curve"/>
      <point x="44" y="0"/>
      <point x="74" y="0"/>
    </contour>
    <contour>
      <point x="462" y="0" type="line"/>
      <point x="634" y="689" type="line"/>
      <point x="636" y="695"/>
      <point x="632" y="700"/>
      <point x="626" y="700" type="curve"/>
      <point x="538" y="700" type="line"/>
      <point x="425" y="245" type="line"/>
      <point x="421" y="229"/>
      <point x="385" y="5"/>
      <point x="387" y="3" type="curve" smooth="yes"/>
      <point x="388" y="1"/>
      <point x="391" y="0"/>
      <point x="394" y="0" type="curve"/>
    </contour>
    <contour>
      <point x="247" y="700" type="line"/>
      <point x="201" y="695"/>
      <point x="200" y="683"/>
      <point x="203" y="670" type="curve" smooth="yes"/>
      <point x="256" y="449"/>
      <point x="307" y="228"/>
      <point x="359" y="7" type="curve"/>
      <point x="360" y="2"/>
      <point x="364" y="0"/>
      <point x="370" y="0" type="curve" smooth="yes"/>
      <point x="384" y="0"/>
      <point x="392" y="0"/>
      <point x="405" y="0" type="curve"/>
      <point x="413" y="6"/>
      <point x="420" y="64"/>
      <point x="424" y="98" type="curve"/>
      <point x="379" y="296"/>
      <point x="333" y="495"/>
      <point x="289" y="690" type="curve"/>
      <point x="287" y="698"/>
      <point x="284" y="700"/>
      <point x="274" y="700" type="curve"/>
    </contour>
    <contour>
      <point x="411" y="711" type="move" name="top"/>
    </contour>
    <contour>
      <point x="233" y="-1" type="move" name="bottom"/>
    </contour>
  </outline>
</glyph>
<glyph name="O" format="1">
  <advance width="600"/>
  <unicode hex="004F"/>
  <outline>
    <contour>
      <point x="395" y="720" type="curve" smooth="yes"/>
      <point x="251" y="720"/>
      <point x="157" y="648"/>
      <point x="115" y="480" type="curve" smooth="yes"/>
      <point x="53" y="234" type="line" smooth="yes"/>
      <point x="13" y="73"/>
      <point x="100" y="-20"/>
      <point x="243" y="-20" type="curve" smooth="yes"/>
      <point x="252" y="-20"/>
      <point x="264" y="-5"/>
      <point x="258" y="70" type="curve"/>
      <point x="146" y="70"/>
      <point x="128" y="140"/>
      <point x="152" y="235" type="curve" smooth="yes"/>
      <point x="212" y="475" type="line" smooth="yes"/>
      <point x="236" y="573"/>
      <point x="289" y="630"/>
      <point x="381" y="630" type="curve" smooth="yes"/>
      <point x="428" y="630"/>
      <point x="457" y="630"/>
      <point x="478" y="630" type="curve"/>
      <point x="488" y="671"/>
      <point x="469" y="720"/>
    </contour>
    <contour>
      <point x="243" y="-20" type="curve" smooth="yes"/>
      <point x="380" y="-20"/>
      <point x="482" y="42"/>
      <point x="527" y="223" type="curve" smooth="yes"/>
      <point x="589" y="470" type="line" smooth="yes"/>
      <point x="629" y="632"/>
      <point x="536" y="720"/>
      <point x="395" y="720" type="curve" smooth="yes"/>
      <point x="386" y="720"/>
      <point x="374" y="705"/>
      <point x="381" y="630" type="curve"/>
      <point x="491" y="630"/>
      <point x="515" y="566"/>
      <point x="490" y="469" type="curve" smooth="yes"/>
      <point x="430" y="229" type="line" smooth="yes"/>
      <point x="405" y="129"/>
      <point x="352" y="70"/>
      <point x="258" y="70" type="curve" smooth="yes"/>
      <point x="211" y="70"/>
      <point x="184" y="70"/>
      <point x="163" y="70" type="curve"/>
      <point x="152" y="27"/>
      <point x="174" y="-20"/>
    </contour>
    <contour>
      <point x="411" y="711" type="move" name="top"/>
    </contour>
    <contour>
      <point x="335" y="-1" type="move" name="ogonek"/>
    </contour>
    <contour>
      <point x="233" y="-1" type="move" name="bottom"/>
    </contour>
  </outline>
</glyph>
<glyph name="P" format="1">
  <advance width="600"/>
  <unicode hex="0050"/>
  <outline>
    <contour>
      <point x="122" y="0" type="curve"/>
      <point x="130" y="32"/>
      <point x="138" y="66"/>
      <point x="147" y="100" type="curve" smooth="yes"/>
      <point x="285" y="654" type="line" smooth="yes"/>
      <point x="287" y="660"/>
      <point x="283" y="665"/>
      <point x="188" y="665" type="curve"/>
      <point x="24" y="11" type="line" smooth="yes"/>
      <point x="23" y="8"/>
      <point x="23" y="5"/>
      <point x="25" y="3" type="curve" smooth="yes"/>
      <point x="26" y="1"/>
      <point x="29" y="0"/>
      <point x="32" y="0" type="curve" smooth="yes"/>
      <point x="62" y="0"/>
      <point x="92" y="0"/>
    </contour>
    <contour>
      <point x="143" y="700" type="curve"/>
      <point x="136" y="672"/>
      <point x="131" y="649"/>
      <point x="124" y="621" type="curve"/>
      <point x="123" y="618"/>
      <point x="123" y="615"/>
      <point x="125" y="613" type="curve" smooth="yes"/>
      <point x="126" y="611"/>
      <point x="129" y="610"/>
      <point x="132" y="610" type="curve" smooth="yes"/>
      <point x="150" y="610"/>
      <point x="172" y="610"/>
      <point x="196" y="610" type="curve" smooth="yes"/>
      <point x="253" y="610"/>
      <point x="343" y="610"/>
      <point x="396" y="610" type="curve" smooth="yes"/>
      <point x="448" y="610"/>
      <point x="464" y="610"/>
      <point x="491" y="610" type="curve"/>
      <point x="503" y="663"/>
      <point x="483" y="700"/>
      <point x="416" y="700" type="curve" smooth="yes"/>
      <point x="343" y="700"/>
      <point x="229" y="700"/>
    </contour>
    <contour>
      <point x="579" y="421" type="curve" smooth="yes"/>
      <point x="596" y="491" type="line" smooth="yes"/>
      <point x="630" y="627"/>
      <point x="559" y="700"/>
      <point x="416" y="700" type="curve"/>
      <point x="413" y="700"/>
      <point x="394" y="686"/>
      <point x="396" y="610" type="curve"/>
      <point x="485" y="610"/>
      <point x="512" y="576"/>
      <point x="494" y="502" type="curve" smooth="yes"/>
      <point x="477" y="432" type="line" smooth="yes"/>
      <point x="460" y="365"/>
      <point x="410" y="329"/>
      <point x="335" y="329" type="curve" smooth="yes"/>
      <point x="291" y="329"/>
      <point x="224" y="329"/>
      <point x="173" y="329" type="curve"/>
      <point x="166" y="300"/>
      <point x="162" y="284"/>
      <point x="153" y="251" type="curve" smooth="yes"/>
      <point x="152" y="245"/>
      <point x="156" y="240"/>
      <point x="162" y="240" type="curve" smooth="yes"/>
      <point x="319" y="240" type="line" smooth="yes"/>
      <point x="454" y="240"/>
      <point x="547" y="294"/>
    </contour>
  </outline>
</glyph>
<glyph name="Q" format="1">
  <advance width="600"/>
  <unicode hex="0051"/>
  <outline>
    <contour>
      <point x="395" y="720" type="curve" smooth="yes"/>
      <point x="251" y="720"/>
      <point x="157" y="648"/>
      <point x="115" y="480" type="curve" smooth="yes"/>
      <point x="53" y="234" type="line" smooth="yes"/>
      <point x="13" y="73"/>
      <point x="100" y="-20"/>
      <point x="243" y="-20" type="curve" smooth="yes"/>
      <point x="252" y="-20"/>
      <point x="264" y="-5"/>
      <point x="258" y="70" type="curve"/>
      <point x="147" y="70"/>
      <point x="128" y="140"/>
      <point x="152" y="235" type="curve" smooth="yes"/>
      <point x="212" y="475" type="line" smooth="yes"/>
      <point x="236" y="573"/>
      <point x="289" y="630"/>
      <point x="381" y="630" type="curve" smooth="yes"/>
      <point x="428" y="630"/>
      <point x="457" y="630"/>
      <point x="478" y="630" type="curve"/>
      <point x="488" y="671"/>
      <point x="469" y="720"/>
    </contour>
    <contour>
      <point x="243" y="-20" type="curve" smooth="yes"/>
      <point x="380" y="-20"/>
      <point x="482" y="42"/>
      <point x="527" y="223" type="curve" smooth="yes"/>
      <point x="589" y="470" type="line" smooth="yes"/>
      <point x="629" y="632"/>
      <point x="536" y="720"/>
      <point x="395" y="720" type="curve" smooth="yes"/>
      <point x="386" y="720"/>
      <point x="375" y="705"/>
      <point x="381" y="630" type="curve"/>
      <point x="491" y="630"/>
      <point x="515" y="566"/>
      <point x="490" y="469" type="curve" smooth="yes"/>
      <point x="430" y="229" type="line" smooth="yes"/>
      <point x="405" y="129"/>
      <point x="352" y="70"/>
      <point x="258" y="70" type="curve" smooth="yes"/>
      <point x="211" y="70"/>
      <point x="184" y="70"/>
      <point x="163" y="70" type="curve"/>
      <point x="152" y="27"/>
      <point x="174" y="-20"/>
    </contour>
    <contour>
      <point x="373" y="76" type="line"/>
      <point x="285" y="42"/>
      <point x="279" y="39"/>
      <point x="285" y="24" type="curve" smooth="yes"/>
      <point x="331" y="-86" type="line" smooth="yes"/>
      <point x="349" y="-132"/>
      <point x="371" y="-150"/>
      <point x="428" y="-150" type="curve" smooth="yes"/>
      <point x="453" y="-150" type="line" smooth="yes"/>
      <point x="460" y="-150"/>
      <point x="465" y="-146"/>
      <point x="467" y="-139" type="curve" smooth="yes"/>
      <point x="474" y="-109"/>
      <point x="481" y="-82"/>
      <point x="489" y="-52" type="curve"/>
      <point x="481" y="-52" type="line"/>
      <point x="476" y="-52"/>
      <point x="471" y="-52"/>
      <point x="463" y="-52" type="curve" smooth="yes"/>
      <point x="437" y="-52"/>
      <point x="424" y="-47"/>
      <point x="414" y="-23" type="curve" smooth="yes"/>
    </contour>
  </outline>
</glyph>
<glyph name="S" format="1">
  <advance width="600"/>
  <unicode hex="0053"/>
  <outline>
    <contour>
      <point x="426" y="718" type="curve" smooth="yes"/>
      <point x="278" y="718"/>
      <point x="181" y="665"/>
      <point x="153" y="554" type="curve" smooth="yes"/>
      <point x="142" y="510" type="line" smooth="yes"/>
      <point x="136" y="484"/>
      <point x="170" y="447"/>
      <point x="221" y="442" type="curve"/>
      <point x="227" y="465"/>
      <point x="239" y="514"/>
      <point x="245" y="539" type="curve" smooth="yes"/>
      <point x="261" y="603"/>
      <point x="316" y="630"/>
      <point x="406" y="630" type="curve" smooth="yes"/>
      <point x="470" y="630"/>
      <point x="533" y="614"/>
      <point x="564" y="585" type="curve"/>
      <point x="608" y="629"/>
      <point x="611" y="635"/>
      <point x="613" y="643" type="curve" smooth="yes"/>
      <point x="615" y="654"/>
      <point x="615" y="656"/>
      <point x="610" y="662" type="curve" smooth="yes"/>
      <point x="589" y="689"/>
      <point x="516" y="718"/>
    </contour>
    <contour>
      <point x="400" y="376" type="curve" smooth="yes"/>
      <point x="313" y="404" type="line" smooth="yes"/>
      <point x="235" y="428"/>
      <point x="225" y="458"/>
      <point x="238" y="511" type="curve" smooth="yes"/>
      <point x="245" y="538"/>
      <point x="248" y="552"/>
      <point x="261" y="601" type="curve"/>
      <point x="195" y="595"/>
      <point x="162" y="587"/>
      <point x="142" y="510" type="curve" smooth="yes"/>
      <point x="124" y="440"/>
      <point x="146" y="365"/>
      <point x="263" y="327" type="curve" smooth="yes"/>
      <point x="351" y="298" type="line" smooth="yes"/>
      <point x="424" y="274"/>
      <point x="435" y="249"/>
      <point x="422" y="193" type="curve" smooth="yes"/>
      <point x="416" y="170"/>
      <point x="404" y="125"/>
      <point x="397" y="95" type="curve"/>
      <point x="439" y="95"/>
      <point x="505" y="142"/>
      <point x="517" y="191" type="curve"/>
      <point x="538" y="274"/>
      <point x="508" y="341"/>
    </contour>
    <contour>
      <point x="243" y="-18" type="curve" smooth="yes"/>
      <point x="389" y="-18"/>
      <point x="477" y="31"/>
      <point x="505" y="140" type="curve" smooth="yes"/>
      <point x="517" y="190" type="line" smooth="yes"/>
      <point x="522" y="207"/>
      <point x="488" y="236"/>
      <point x="433" y="236" type="curve"/>
      <point x="426" y="209"/>
      <point x="418" y="178"/>
      <point x="411" y="153" type="curve" smooth="yes"/>
      <point x="399" y="104"/>
      <point x="346" y="73"/>
      <point x="255" y="73" type="curve" smooth="yes"/>
      <point x="159" y="73"/>
      <point x="106" y="97"/>
      <point x="55" y="145" type="curve"/>
      <point x="40" y="145" type="line"/>
      <point x="35" y="127"/>
      <point x="28" y="102"/>
      <point x="18" y="66" type="curve" smooth="yes"/>
      <point x="17" y="62"/>
      <point x="17" y="59"/>
      <point x="19" y="55" type="curve" smooth="yes"/>
      <point x="47" y="18"/>
      <point x="130" y="-18"/>
    </contour>
    <contour>
      <point x="582" y="514" type="curve"/>
      <point x="613" y="643" type="line" smooth="yes"/>
      <point x="616" y="655"/>
      <point x="611" y="666"/>
      <point x="523" y="666" type="curve"/>
      <point x="521" y="657"/>
      <point x="519" y="647"/>
      <point x="516" y="635" type="curve" smooth="yes"/>
      <point x="488" y="525" type="line" smooth="yes"/>
      <point x="487" y="519"/>
      <point x="487" y="517"/>
      <point x="489" y="516" type="curve" smooth="yes"/>
      <point x="490" y="514"/>
      <point x="493" y="514"/>
      <point x="496" y="514" type="curve" smooth="yes"/>
      <point x="525" y="514"/>
      <point x="553" y="514"/>
    </contour>
    <contour>
      <point x="421" y="711" type="move" name="top"/>
    </contour>
    <contour>
      <point x="235" y="-1" type="move" name="bottom"/>
    </contour>
  </outline>
</glyph>
<glyph name="T" format="1">
  <advance width="600"/>
  <unicode hex="0054"/>
  <outline>
    <contour>
      <point x="163" y="700" type="line"/>
      <point x="157" y="673"/>
      <point x="150" y="647"/>
      <point x="144" y="621" type="curve" smooth="yes"/>
      <point x="143" y="618"/>
      <point x="143" y="615"/>
      <point x="145" y="613" type="curve" smooth="yes"/>
      <point x="146" y="611"/>
      <point x="149" y="610"/>
      <point x="152" y="610" type="curve" smooth="yes"/>
      <point x="631" y="610" type="line"/>
      <point x="637" y="636"/>
      <point x="643" y="663"/>
      <point x="650" y="689" type="curve" smooth="yes"/>
      <point x="652" y="695"/>
      <point x="648" y="700"/>
      <point x="642" y="700" type="curve" smooth="yes"/>
    </contour>
    <contour>
      <point x="285" y="0" type="curve"/>
      <point x="293" y="32"/>
      <point x="301" y="66"/>
      <point x="310" y="100" type="curve" smooth="yes"/>
      <point x="448" y="654" type="line" smooth="yes"/>
      <point x="450" y="660"/>
      <point x="446" y="665"/>
      <point x="348" y="665" type="curve"/>
      <point x="184" y="11" type="line" smooth="yes"/>
      <point x="183" y="7"/>
      <point x="183" y="4"/>
      <point x="185" y="2" type="curve" smooth="yes"/>
      <point x="187" y="0"/>
      <point x="189" y="0"/>
      <point x="192" y="0" type="curve" smooth="yes"/>
      <point x="223" y="0"/>
      <point x="254" y="0"/>
    </contour>
    <contour>
      <point x="411" y="711" type="move" name="top"/>
    </contour>
    <contour>
      <point x="233" y="-1" type="move" name="bottom"/>
    </contour>
  </outline>
</glyph>
<glyph name="U" format="1">
  <advance width="600"/>
  <unicode hex="0055"/>
  <outline>
    <contour>
      <point x="177" y="700" type="curve"/>
      <point x="169" y="667"/>
      <point x="160" y="633"/>
      <point x="152" y="600" type="curve" smooth="yes"/>
      <point x="40" y="151" type="line"/>
      <point x="32" y="122"/>
      <point x="67" y="109"/>
      <point x="132" y="109" type="curve"/>
      <point x="139" y="134"/>
      <point x="142" y="145"/>
      <point x="149" y="175" type="curve" smooth="yes"/>
      <point x="277" y="689" type="line"/>
      <point x="279" y="695"/>
      <point x="275" y="700"/>
      <point x="269" y="700" type="curve"/>
      <point x="238" y="700"/>
      <point x="208" y="700"/>
    </contour>
    <contour>
      <point x="160" y="-15" type="curve" smooth="yes"/>
      <point x="235" y="-15"/>
      <point x="309" y="22"/>
      <point x="373" y="82" type="curve" smooth="yes"/>
      <point x="421" y="123"/>
      <point x="443" y="161"/>
      <point x="443" y="212" type="curve"/>
      <point x="339" y="119"/>
      <point x="281" y="86"/>
      <point x="208" y="86" type="curve" smooth="yes"/>
      <point x="161" y="86"/>
      <point x="135" y="119"/>
      <point x="149" y="175" type="curve"/>
      <point x="69" y="174"/>
      <point x="42" y="163"/>
      <point x="40" y="151" type="curve" smooth="yes"/>
      <point x="17" y="63"/>
      <point x="54" y="-15"/>
    </contour>
    <contour>
      <point x="462" y="0" type="curve"/>
      <point x="470" y="33"/>
      <point x="479" y="68"/>
      <point x="488" y="105" type="curve" smooth="yes"/>
      <point x="634" y="689" type="line" smooth="yes"/>
      <point x="636" y="695"/>
      <point x="632" y="700"/>
      <point x="626" y="700" type="curve" smooth="yes"/>
      <point x="595" y="700"/>
      <point x="564" y="700"/>
      <point x="533" y="700" type="curve"/>
      <point x="361" y="11" type="line" smooth="yes"/>
      <point x="360" y="8"/>
      <point x="360" y="4"/>
      <point x="362" y="2" type="curve" smooth="yes"/>
      <point x="364" y="0"/>
      <point x="366" y="0"/>
      <point x="369" y="0" type="curve" smooth="yes"/>
      <point x="400" y="0"/>
      <point x="431" y="0"/>
    </contour>
    <contour>
      <point x="411" y="711" type="move" name="top"/>
    </contour>
    <contour>
      <point x="461" y="-1" type="move" name="ogonek"/>
    </contour>
    <contour>
      <point x="403" y="686" type="move" name="ring"/>
    </contour>
    <contour>
      <point x="205" y="-1" type="move" name="bottom"/>
    </contour>
  </outline>
</glyph>
<glyph name="V" format="1">
  <advance width="600"/>
  <unicode hex="0056"/>
  <outline>
    <contour>
      <point x="235" y="700" type="curve"/>
      <point x="143" y="700" type="line"/>
      <point x="146" y="469"/>
      <point x="149" y="238"/>
      <point x="152" y="8" type="curve" smooth="yes"/>
      <point x="152" y="-1"/>
      <point x="158" y="-5"/>
      <point x="166" y="-5" type="curve" smooth="yes"/>
      <point x="193" y="-5" type="line" smooth="yes"/>
      <point x="224" y="-5"/>
      <point x="278" y="22"/>
      <point x="302" y="84" type="curve"/>
      <point x="283" y="84"/>
      <point x="272" y="84"/>
      <point x="258" y="84" type="curve" smooth="yes"/>
      <point x="251" y="84"/>
      <point x="250" y="85"/>
      <point x="249" y="96" type="curve"/>
      <point x="248" y="293"/>
      <point x="246" y="492"/>
      <point x="245" y="689" type="curve"/>
      <point x="245" y="697"/>
      <point x="241" y="700"/>
    </contour>
    <contour>
      <point x="661" y="700" type="curve"/>
      <point x="572" y="700" type="line"/>
      <point x="464" y="485"/>
      <point x="354" y="269"/>
      <point x="250" y="62" type="curve"/>
      <point x="228" y="17"/>
      <point x="202" y="3"/>
      <point x="181" y="-5" type="curve"/>
      <point x="312" y="-5" type="line"/>
      <point x="431" y="225"/>
      <point x="549" y="455"/>
      <point x="666" y="685" type="curve"/>
      <point x="671" y="694"/>
      <point x="669" y="700"/>
    </contour>
  </outline>
</glyph>
<glyph name="W" format="1">
  <advance width="600"/>
  <unicode hex="0057"/>
  <outline>
    <contour>
      <point x="136" y="700" type="curve"/>
      <point x="107" y="469"/>
      <point x="78" y="238"/>
      <point x="49" y="8" type="curve"/>
      <point x="47" y="-1"/>
      <point x="55" y="-5"/>
      <point x="62" y="-5" type="curve"/>
      <point x="83" y="-5" type="line" smooth="yes"/>
      <point x="100" y="-5"/>
      <point x="118" y="10"/>
      <point x="126" y="25" type="curve"/>
      <point x="160" y="245"/>
      <point x="194" y="466"/>
      <point x="228" y="686" type="curve"/>
      <point x="229" y="695"/>
      <point x="228" y="697"/>
      <point x="227" y="699" type="curve" smooth="yes"/>
      <point x="225" y="700"/>
      <point x="224" y="700"/>
      <point x="220" y="700" type="curve"/>
      <point x="191" y="700"/>
      <point x="165" y="700"/>
    </contour>
    <contour>
      <point x="582" y="700" type="curve"/>
      <point x="508" y="486"/>
      <point x="433" y="271"/>
      <point x="359" y="57" type="curve"/>
      <point x="345" y="19"/>
      <point x="338" y="7"/>
      <point x="325" y="-5" type="curve"/>
      <point x="415" y="-5" type="line"/>
      <point x="502" y="225"/>
      <point x="589" y="457"/>
      <point x="675" y="688" type="curve"/>
      <point x="677" y="693"/>
      <point x="678" y="696"/>
      <point x="676" y="698" type="curve" smooth="yes"/>
      <point x="675" y="700"/>
      <point x="674" y="700"/>
      <point x="670" y="700" type="curve"/>
      <point x="641" y="700"/>
      <point x="611" y="700"/>
    </contour>
    <contour>
      <point x="392" y="586" type="curve"/>
      <point x="340" y="586" type="line"/>
      <point x="267" y="410"/>
      <point x="194" y="233"/>
      <point x="120" y="57" type="curve"/>
      <point x="100" y="16"/>
      <point x="86" y="6"/>
      <point x="62" y="-5" type="curve"/>
      <point x="160" y="-5" type="line"/>
      <point x="240" y="185"/>
      <point x="319" y="376"/>
      <point x="397" y="566" type="curve"/>
      <point x="403" y="579"/>
      <point x="401" y="586"/>
    </contour>
    <contour>
      <point x="408" y="586" type="curve"/>
      <point x="354" y="586" type="line"/>
      <point x="337" y="394"/>
      <point x="320" y="200"/>
      <point x="304" y="8" type="curve"/>
      <point x="303" y="-1"/>
      <point x="310" y="-5"/>
      <point x="317" y="-5" type="curve"/>
      <point x="342" y="-5" type="line"/>
      <point x="353" y="-5"/>
      <point x="364" y="5"/>
      <point x="368" y="20" type="curve"/>
      <point x="384" y="205"/>
      <point x="401" y="391"/>
      <point x="417" y="575" type="curve"/>
      <point x="417" y="583"/>
      <point x="414" y="586"/>
    </contour>
    <contour>
      <point x="409" y="711" type="move" name="top"/>
    </contour>
  </outline>
</glyph>
<glyph name="X" format="1">
  <advance width="600"/>
  <unicode hex="0058"/>
  <outline>
    <contour>
      <point x="412" y="0" type="curve" smooth="yes"/>
      <point x="444" y="0"/>
      <point x="471" y="0"/>
      <point x="504" y="0" type="curve"/>
      <point x="461" y="125"/>
      <point x="417" y="250"/>
      <point x="375" y="371" type="curve" smooth="yes"/>
      <point x="369" y="390"/>
      <point x="355" y="398"/>
      <point x="349" y="414" type="curve" smooth="yes"/>
      <point x="317" y="503"/>
      <point x="284" y="597"/>
      <point x="252" y="688" type="curve" smooth="yes"/>
      <point x="249" y="695"/>
      <point x="244" y="700"/>
      <point x="235" y="700" type="curve" smooth="yes"/>
      <point x="145" y="700" type="line"/>
      <point x="187" y="578"/>
      <point x="232" y="454"/>
      <point x="273" y="334" type="curve" smooth="yes"/>
      <point x="278" y="318"/>
      <point x="295" y="308"/>
      <point x="300" y="290" type="curve" smooth="yes"/>
      <point x="332" y="200"/>
      <point x="364" y="105"/>
      <point x="397" y="12" type="curve" smooth="yes"/>
      <point x="400" y="4"/>
      <point x="403" y="0"/>
    </contour>
    <contour>
      <point x="671" y="700" type="curve"/>
      <point x="571" y="700" type="line"/>
      <point x="480" y="591"/>
      <point x="390" y="483"/>
      <point x="298" y="374" type="curve"/>
      <point x="283" y="357"/>
      <point x="301" y="342"/>
      <point x="362" y="318" type="curve"/>
      <point x="466" y="439"/>
      <point x="571" y="560"/>
      <point x="675" y="681" type="curve"/>
      <point x="681" y="687"/>
      <point x="682" y="693"/>
      <point x="680" y="697" type="curve" smooth="yes"/>
      <point x="679" y="699"/>
      <point x="675" y="700"/>
    </contour>
    <contour>
      <point x="-27" y="0" type="curve" smooth="yes"/>
      <point x="79" y="0" type="line"/>
      <point x="170" y="109"/>
      <point x="260" y="217"/>
      <point x="350" y="326" type="curve"/>
      <point x="366" y="343"/>
      <point x="342" y="358"/>
      <point x="282" y="382" type="curve"/>
      <point x="178" y="261"/>
      <point x="73" y="140"/>
      <point x="-31" y="19" type="curve"/>
      <point x="-37" y="13"/>
      <point x="-38" y="6"/>
      <point x="-35" y="3" type="curve" smooth="yes"/>
      <point x="-34" y="1"/>
      <point x="-31" y="0"/>
    </contour>
  </outline>
</glyph>
<glyph name="Y" format="1">
  <advance width="600"/>
  <unicode hex="0059"/>
  <outline>
    <contour>
      <point x="136" y="700" type="line"/>
      <point x="175" y="554"/>
      <point x="215" y="403"/>
      <point x="253" y="256" type="curve"/>
      <point x="255" y="250"/>
      <point x="261" y="247"/>
      <point x="268" y="247" type="curve"/>
      <point x="305" y="247"/>
      <point x="329" y="298"/>
      <point x="327" y="327" type="curve"/>
      <point x="299" y="446"/>
      <point x="271" y="568"/>
      <point x="243" y="687" type="curve"/>
      <point x="242" y="695"/>
      <point x="239" y="700"/>
      <point x="229" y="700" type="curve" smooth="yes"/>
    </contour>
    <contour>
      <point x="563" y="700" type="line"/>
      <point x="473" y="575"/>
      <point x="384" y="450"/>
      <point x="294" y="326" type="curve"/>
      <point x="267" y="286"/>
      <point x="275" y="260"/>
      <point x="268" y="247" type="curve"/>
      <point x="334" y="247" type="line"/>
      <point x="444" y="391"/>
      <point x="559" y="540"/>
      <point x="670" y="684" type="curve"/>
      <point x="675" y="693"/>
      <point x="672" y="700"/>
      <point x="664" y="700" type="curve"/>
    </contour>
    <contour>
      <point x="283" y="0" type="curve"/>
      <point x="291" y="32"/>
      <point x="299" y="66"/>
      <point x="308" y="100" type="curve" smooth="yes"/>
      <point x="357" y="299" type="line" smooth="yes"/>
      <point x="359" y="305"/>
      <point x="355" y="310"/>
      <point x="257" y="310" type="curve"/>
      <point x="182" y="11" type="line" smooth="yes"/>
      <point x="181" y="8"/>
      <point x="181" y="5"/>
      <point x="183" y="3" type="curve" smooth="yes"/>
      <point x="184" y="1"/>
      <point x="187" y="0"/>
      <point x="190" y="0" type="curve" smooth="yes"/>
      <point x="221" y="0"/>
      <point x="252" y="0"/>
    </contour>
    <contour>
      <point x="411" y="711" type="move" name="top"/>
    </contour>
  </outline>
</glyph>
<glyph name="Z" format="1">
  <advance width="600"/>
  <unicode hex="005A"/>
  <outline>
    <contour>
      <point x="203" y="700" type="line"/>
      <point x="196" y="672"/>
      <point x="191" y="649"/>
      <point x="184" y="621" type="curve" smooth="yes"/>
      <point x="183" y="618"/>
      <point x="183" y="615"/>
      <point x="185" y="613" type="curve" smooth="yes"/>
      <point x="186" y="611"/>
      <point x="189" y="610"/>
      <point x="192" y="610" type="curve" smooth="yes"/>
      <point x="510" y="610" type="line" smooth="yes"/>
      <point x="539" y="610"/>
      <point x="584" y="612"/>
      <point x="618" y="617" type="curve" smooth="yes"/>
      <point x="624" y="617"/>
      <point x="630" y="617"/>
      <point x="633" y="618" type="curve"/>
      <point x="650" y="689" type="line" smooth="yes"/>
      <point x="652" y="695"/>
      <point x="648" y="700"/>
      <point x="642" y="700" type="curve" smooth="yes"/>
    </contour>
    <contour>
      <point x="538" y="650" type="curve"/>
      <point x="363" y="463"/>
      <point x="184" y="270"/>
      <point x="8" y="82" type="curve"/>
      <point x="87" y="50"/>
      <point x="103" y="48"/>
      <point x="112" y="57" type="curve" smooth="yes"/>
      <point x="366" y="329"/>
      <point x="632" y="616"/>
      <point x="633" y="618" type="curve"/>
      <point x="564" y="656"/>
      <point x="547" y="659"/>
    </contour>
    <contour>
      <point x="480" y="0" type="line"/>
      <point x="487" y="28"/>
      <point x="493" y="50"/>
      <point x="500" y="79" type="curve" smooth="yes"/>
      <point x="501" y="82"/>
      <point x="501" y="85"/>
      <point x="499" y="87" type="curve" smooth="yes"/>
      <point x="497" y="89"/>
      <point x="495" y="90"/>
      <point x="492" y="90" type="curve" smooth="yes"/>
      <point x="134" y="90" type="line" smooth="yes"/>
      <point x="97" y="90"/>
      <point x="48" y="89"/>
      <point x="8" y="82" type="curve"/>
      <point x="-9" y="11" type="line" smooth="yes"/>
      <point x="-10" y="5"/>
      <point x="-7" y="0"/>
      <point x="-1" y="0" type="curve" smooth="yes"/>
    </contour>
    <contour>
      <point x="230" y="531" type="curve"/>
      <point x="243" y="582"/>
      <point x="254" y="628"/>
      <point x="267" y="680" type="curve"/>
      <point x="271" y="695"/>
      <point x="265" y="700"/>
      <point x="251" y="700" type="curve" smooth="yes"/>
      <point x="173" y="700" type="line"/>
      <point x="160" y="645"/>
      <point x="148" y="596"/>
      <point x="134" y="542" type="curve"/>
      <point x="132" y="536"/>
      <point x="136" y="531"/>
      <point x="142" y="531" type="curve" smooth="yes"/>
      <point x="171" y="531"/>
      <point x="201" y="531"/>
    </contour>
    <contour>
      <point x="411" y="711" type="move" name="top"/>
    </contour>
  </outline>
</glyph>
<glyph name="bracketleft" format="1">
  <advance width="600"/>
  <unicode hex="005B"/>
  <outline>
    <contour>
      <point x="300" y="648" type="curve" smooth="yes"/>
      <point x="125" y="-52" type="line" smooth="yes"/>
      <point x="123" y="-62"/>
      <point x="145" y="-63"/>
      <point x="226" y="-63" type="curve"/>
      <point x="428" y="744" type="line" smooth="yes"/>
      <point x="429" y="750"/>
      <point x="423" y="755"/>
      <point x="396" y="755" type="curve" smooth="yes"/>
      <point x="368" y="755"/>
      <point x="355" y="755"/>
      <point x="327" y="755" type="curve"/>
      <point x="318" y="719"/>
      <point x="309" y="684"/>
    </contour>
    <contour>
      <point x="619" y="661" type="line"/>
      <point x="626" y="690"/>
      <point x="632" y="715"/>
      <point x="639" y="744" type="curve" smooth="yes"/>
      <point x="640" y="747"/>
      <point x="640" y="750"/>
      <point x="638" y="752" type="curve" smooth="yes"/>
      <point x="637" y="754"/>
      <point x="634" y="755"/>
      <point x="631" y="755" type="curve" smooth="yes"/>
      <point x="396" y="755" type="line"/>
      <point x="373" y="666"/>
      <point x="378" y="661"/>
      <point x="383" y="661" type="curve"/>
    </contour>
    <contour>
      <point x="417" y="-146" type="line"/>
      <point x="424" y="-116"/>
      <point x="430" y="-92"/>
      <point x="438" y="-62" type="curve" smooth="yes"/>
      <point x="439" y="-56"/>
      <point x="436" y="-51"/>
      <point x="430" y="-51" type="curve" smooth="yes"/>
      <point x="126" y="-51" type="line"/>
      <point x="105" y="-135" type="line" smooth="yes"/>
      <point x="103" y="-141"/>
      <point x="107" y="-146"/>
      <point x="113" y="-146" type="curve" smooth="yes"/>
    </contour>
  </outline>
</glyph>
<glyph name="bracketright" format="1">
  <advance width="600"/>
  <unicode hex="005D"/>
  <outline>
    <contour>
      <point x="319" y="-38" type="curve" smooth="yes"/>
      <point x="494" y="662" type="line" smooth="yes"/>
      <point x="496" y="672"/>
      <point x="474" y="673"/>
      <point x="393" y="673" type="curve"/>
      <point x="191" y="-134" type="line" smooth="yes"/>
      <point x="190" y="-140"/>
      <point x="197" y="-145"/>
      <point x="224" y="-145" type="curve" smooth="yes"/>
      <point x="251" y="-145"/>
      <point x="265" y="-145"/>
      <point x="292" y="-145" type="curve"/>
      <point x="301" y="-109"/>
      <point x="310" y="-74"/>
    </contour>
    <contour>
      <point x="1" y="-51" type="line"/>
      <point x="-7" y="-80"/>
      <point x="-13" y="-105"/>
      <point x="-20" y="-134" type="curve" smooth="yes"/>
      <point x="-21" y="-137"/>
      <point x="-21" y="-140"/>
      <point x="-19" y="-142" type="curve" smooth="yes"/>
      <point x="-18" y="-144"/>
      <point x="-15" y="-145"/>
      <point x="-12" y="-145" type="curve" smooth="yes"/>
      <point x="224" y="-145" type="line"/>
      <point x="246" y="-56"/>
      <point x="241" y="-51"/>
      <point x="236" y="-51" type="curve"/>
    </contour>
    <contour>
      <point x="202" y="756" type="line"/>
      <point x="195" y="726"/>
      <point x="189" y="702"/>
      <point x="181" y="672" type="curve" smooth="yes"/>
      <point x="180" y="666"/>
      <point x="184" y="661"/>
      <point x="190" y="661" type="curve" smooth="yes"/>
      <point x="494" y="661" type="line"/>
      <point x="515" y="745" type="line" smooth="yes"/>
      <point x="516" y="751"/>
      <point x="512" y="756"/>
      <point x="506" y="756" type="curve" smooth="yes"/>
    </contour>
  </outline>
</glyph>
<glyph name="underscore" format="1">
  <advance width="600"/>
  <unicode hex="005F"/>
  <outline>
    <contour>
      <point x="-22" y="-76" type="line"/>
      <point x="-29" y="-105"/>
      <point x="-36" y="-130"/>
      <point x="-43" y="-159" type="curve" smooth="yes"/>
      <point x="-44" y="-162"/>
      <point x="-44" y="-165"/>
      <point x="-42" y="-167" type="curve" smooth="yes"/>
      <point x="-41" y="-169"/>
      <point x="-38" y="-170"/>
      <point x="-35" y="-170" type="curve"/>
      <point x="427" y="-170" type="line"/>
      <point x="435" y="-141"/>
      <point x="441" y="-116"/>
      <point x="448" y="-87" type="curve" smooth="yes"/>
      <point x="450" y="-81"/>
      <point x="446" y="-76"/>
      <point x="440" y="-76" type="curve"/>
    </contour>
  </outline>
</glyph>
<glyph name="grave" format="1">
  <advance width="600"/>
  <unicode hex="0060"/>
  <outline>
    <contour>
      <point x="431" y="411" type="curve"/>
      <point x="432" y="517"/>
      <point x="432" y="610"/>
      <point x="433" y="716" type="curve"/>
      <point x="372" y="716"/>
      <point x="341" y="716"/>
      <point x="288" y="716" type="curve" smooth="yes"/>
      <point x="280" y="716"/>
      <point x="274" y="710"/>
      <point x="275" y="702" type="curve" smooth="yes"/>
      <point x="295" y="613"/>
      <point x="315" y="519"/>
      <point x="336" y="420" type="curve" smooth="yes"/>
      <point x="337" y="414"/>
      <point x="342" y="411"/>
      <point x="349" y="411" type="curve" smooth="yes"/>
      <point x="388" y="411"/>
      <point x="407" y="411"/>
    </contour>
  </outline>
</glyph>
<glyph name="a" format="1">
  <advance width="600"/>
  <unicode hex="0061"/>
  <outline>
    <contour>
      <point x="300" y="544" type="curve" smooth="yes"/>
      <point x="198" y="544"/>
      <point x="122" y="493"/>
      <point x="85" y="347" type="curve" smooth="yes"/>
      <point x="48" y="196" type="line" smooth="yes"/>
      <point x="34" y="139"/>
      <point x="58" y="70"/>
      <point x="104" y="70" type="curve" smooth="yes"/>
      <point x="125" y="70"/>
      <point x="141" y="83"/>
      <point x="145" y="97" type="curve"/>
      <point x="135" y="128"/>
      <point x="138" y="153"/>
      <point x="153" y="211" type="curve" smooth="yes"/>
      <point x="182" y="326" type="line" smooth="yes"/>
      <point x="204" y="418"/>
      <point x="248" y="445"/>
      <point x="307" y="445" type="curve" smooth="yes"/>
      <point x="370" y="445"/>
      <point x="410" y="413"/>
      <point x="439" y="359" type="curve"/>
      <point x="455" y="363"/>
      <point x="469" y="386"/>
      <point x="469" y="405" type="curve" smooth="yes"/>
      <point x="467" y="461"/>
      <point x="414" y="544"/>
    </contour>
    <contour>
      <point x="180" y="-10" type="curve" smooth="yes"/>
      <point x="252" y="-10"/>
      <point x="309" y="22"/>
      <point x="370" y="85" type="curve" smooth="yes"/>
      <point x="406" y="123"/>
      <point x="421" y="169"/>
      <point x="412" y="211" type="curve"/>
      <point x="339" y="128"/>
      <point x="282" y="89"/>
      <point x="222" y="89" type="curve" smooth="yes"/>
      <point x="160" y="89"/>
      <point x="133" y="132"/>
      <point x="153" y="211" type="curve"/>
      <point x="64" y="226"/>
      <point x="53" y="217"/>
      <point x="48" y="196" type="curve" smooth="yes"/>
      <point x="18" y="77"/>
      <point x="65" y="-10"/>
    </contour>
    <contour>
      <point x="575" y="533" type="line"/>
      <point x="545" y="533"/>
      <point x="515" y="533"/>
      <point x="485" y="533" type="curve" smooth="yes"/>
      <point x="478" y="533"/>
      <point x="473" y="529"/>
      <point x="471" y="522" type="curve" smooth="yes"/>
      <point x="370" y="118" type="line" smooth="yes"/>
      <point x="358" y="72"/>
      <point x="393" y="28"/>
      <point x="449" y="28" type="curve"/>
      <point x="454" y="50"/>
      <point x="460" y="74"/>
      <point x="469" y="109" type="curve"/>
    </contour>
    <contour>
      <point x="520" y="83" type="line"/>
      <point x="505" y="83" type="line"/>
      <point x="502" y="83"/>
      <point x="499" y="83"/>
      <point x="495" y="83" type="curve" smooth="yes"/>
      <point x="472" y="83"/>
      <point x="465" y="95"/>
      <point x="473" y="124" type="curve"/>
      <point x="386" y="139"/>
      <point x="374" y="132"/>
      <point x="370" y="118" type="curve" smooth="yes"/>
      <point x="353" y="52"/>
      <point x="381" y="-10"/>
      <point x="459" y="-10" type="curve" smooth="yes"/>
      <point x="486" y="-10" type="line" smooth="yes"/>
      <point x="493" y="-10"/>
      <point x="498" y="-7"/>
      <point x="500" y="1" type="curve"/>
    </contour>
  </outline>
</glyph>
<glyph name="b" format="1">
  <advance width="600"/>
  <unicode hex="0062"/>
  <outline>
    <contour>
      <point x="24" y="0" type="line"/>
      <point x="41" y="0"/>
      <point x="59" y="0"/>
      <point x="76" y="0" type="curve" smooth="yes"/>
      <point x="89" y="0"/>
      <point x="143" y="71"/>
      <point x="150" y="99" type="curve" smooth="yes"/>
      <point x="311" y="739" type="line"/>
      <point x="313" y="745"/>
      <point x="309" y="750"/>
      <point x="303" y="750" type="curve" smooth="yes"/>
      <point x="273" y="750"/>
      <point x="243" y="750"/>
      <point x="213" y="750" type="curve"/>
      <point x="203" y="710"/>
      <point x="192" y="668"/>
      <point x="182" y="627" type="curve" smooth="yes"/>
    </contour>
    <contour>
      <point x="416" y="544" type="curve" smooth="yes"/>
      <point x="352" y="544"/>
      <point x="294" y="514"/>
      <point x="237" y="463" type="curve" smooth="yes"/>
      <point x="197" y="424"/>
      <point x="177" y="389"/>
      <point x="182" y="354" type="curve"/>
      <point x="269" y="424"/>
      <point x="324" y="451"/>
      <point x="386" y="451" type="curve" smooth="yes"/>
      <point x="446" y="451"/>
      <point x="472" y="416"/>
      <point x="450" y="332" type="curve"/>
      <point x="529" y="315"/>
      <point x="548" y="322"/>
      <point x="551" y="332" type="curve" smooth="yes"/>
      <point x="582" y="451"/>
      <point x="532" y="544"/>
    </contour>
    <contour>
      <point x="300" y="-10" type="curve" smooth="yes"/>
      <point x="407" y="-10"/>
      <point x="481" y="43"/>
      <point x="519" y="203" type="curve" smooth="yes"/>
      <point x="551" y="332" type="line" smooth="yes"/>
      <point x="566" y="390"/>
      <point x="540" y="470"/>
      <point x="489" y="470" type="curve"/>
      <point x="469" y="470"/>
      <point x="455" y="463"/>
      <point x="451" y="449" type="curve"/>
      <point x="464" y="413"/>
      <point x="467" y="395"/>
      <point x="450" y="332" type="curve" smooth="yes"/>
      <point x="422" y="214" type="line" smooth="yes"/>
      <point x="398" y="115"/>
      <point x="353" y="81"/>
      <point x="290" y="81" type="curve" smooth="yes"/>
      <point x="230" y="81"/>
      <point x="185" y="103"/>
      <point x="146" y="172" type="curve"/>
      <point x="134" y="161"/>
      <point x="120" y="133"/>
      <point x="122" y="120" type="curve" smooth="yes"/>
      <point x="129" y="64"/>
      <point x="192" y="-10"/>
    </contour>
  </outline>
</glyph>
<glyph name="d" format="1">
  <advance width="600"/>
  <unicode hex="0064"/>
  <outline>
    <contour>
      <point x="300" y="544" type="curve" smooth="yes"/>
      <point x="198" y="544"/>
      <point x="122" y="494"/>
      <point x="87" y="354" type="curve" smooth="yes"/>
      <point x="45" y="189" type="line" smooth="yes"/>
      <point x="31" y="129"/>
      <point x="63" y="65"/>
      <point x="114" y="65" type="curve" smooth="yes"/>
      <point x="134" y="65"/>
      <point x="149" y="72"/>
      <point x="152" y="87" type="curve"/>
      <point x="141" y="119"/>
      <point x="135" y="140"/>
      <point x="150" y="200" type="curve" smooth="yes"/>
      <point x="185" y="341" type="line" smooth="yes"/>
      <point x="205" y="422"/>
      <point x="249" y="450"/>
      <point x="312" y="450" type="curve" smooth="yes"/>
      <point x="360" y="450"/>
      <point x="415" y="421"/>
      <point x="446" y="362" type="curve"/>
      <point x="459" y="368"/>
      <point x="471" y="394"/>
      <point x="470" y="408" type="curve" smooth="yes"/>
      <point x="463" y="468"/>
      <point x="394" y="544"/>
    </contour>
    <contour>
      <point x="172" y="-10" type="curve" smooth="yes"/>
      <point x="240" y="-10"/>
      <point x="302" y="20"/>
      <point x="363" y="79" type="curve" smooth="yes"/>
      <point x="405" y="118"/>
      <point x="418" y="157"/>
      <point x="413" y="189" type="curve"/>
      <point x="322" y="111"/>
      <point x="269" y="82"/>
      <point x="217" y="82" type="curve" smooth="yes"/>
      <point x="152" y="82"/>
      <point x="130" y="120"/>
      <point x="150" y="200" type="curve"/>
      <point x="94" y="213"/>
      <point x="47" y="194"/>
      <point x="45" y="189" type="curve" smooth="yes"/>
      <point x="17" y="73"/>
      <point x="66" y="-10"/>
    </contour>
    <contour>
      <point x="530" y="750" type="curve"/>
      <point x="522" y="716"/>
      <point x="513" y="682"/>
      <point x="505" y="650" type="curve" smooth="yes"/>
      <point x="344" y="11" type="line"/>
      <point x="344" y="8"/>
      <point x="344" y="5"/>
      <point x="345" y="3" type="curve" smooth="yes"/>
      <point x="346" y="1"/>
      <point x="349" y="0"/>
      <point x="352" y="0" type="curve" smooth="yes"/>
      <point x="382" y="0"/>
      <point x="412" y="0"/>
      <point x="442" y="0" type="curve"/>
      <point x="451" y="35"/>
      <point x="462" y="77"/>
      <point x="473" y="124" type="curve" smooth="yes"/>
      <point x="628" y="739" type="line"/>
      <point x="629" y="742"/>
      <point x="629" y="745"/>
      <point x="627" y="747" type="curve" smooth="yes"/>
      <point x="626" y="749"/>
      <point x="623" y="750"/>
      <point x="620" y="750" type="curve" smooth="yes"/>
      <point x="590" y="750"/>
      <point x="560" y="750"/>
    </contour>
    <contour>
      <point x="678" y="711" type="move" name="caronslovak"/>
    </contour>
  </outline>
</glyph>
<glyph name="e" format="1">
  <advance width="600"/>
  <unicode hex="0065"/>
  <outline>
    <contour>
      <point x="340" y="455" type="curve" smooth="yes"/>
      <point x="414" y="455"/>
      <point x="455" y="432"/>
      <point x="469" y="370" type="curve"/>
      <point x="489" y="382"/>
      <point x="508" y="402"/>
      <point x="514" y="427" type="curve"/>
      <point x="531" y="493"/>
      <point x="440" y="544"/>
      <point x="357" y="544" type="curve"/>
      <point x="220" y="544"/>
      <point x="131" y="483"/>
      <point x="91" y="327" type="curve" smooth="yes"/>
      <point x="66" y="226" type="line" smooth="yes"/>
      <point x="27" y="73"/>
      <point x="120" y="-11"/>
      <point x="272" y="-11" type="curve" smooth="yes"/>
      <point x="293" y="-11"/>
      <point x="290" y="6"/>
      <point x="288" y="82" type="curve"/>
      <point x="185" y="82"/>
      <point x="139" y="125"/>
      <point x="162" y="217" type="curve" smooth="yes"/>
      <point x="187" y="318" type="line" smooth="yes"/>
      <point x="211" y="416"/>
      <point x="253" y="455"/>
    </contour>
    <contour>
      <point x="443" y="31" type="curve" smooth="yes"/>
      <point x="446" y="35"/>
      <point x="447" y="37"/>
      <point x="449" y="41" type="curve" smooth="yes"/>
      <point x="456" y="69"/>
      <point x="464" y="97"/>
      <point x="470" y="122" type="curve"/>
      <point x="454" y="122" type="line"/>
      <point x="405" y="99"/>
      <point x="358" y="82"/>
      <point x="288" y="82" type="curve" smooth="yes"/>
      <point x="205" y="82"/>
      <point x="176" y="99"/>
      <point x="135" y="129" type="curve"/>
      <point x="107" y="60"/>
      <point x="176" y="-11"/>
      <point x="272" y="-11" type="curve" smooth="yes"/>
      <point x="373" y="-11"/>
      <point x="423" y="13"/>
    </contour>
    <contour>
      <point x="501" y="233" type="line" smooth="yes"/>
      <point x="507" y="233"/>
      <point x="512" y="237"/>
      <point x="514" y="244" type="curve" smooth="yes"/>
      <point x="532" y="318" type="line" smooth="yes"/>
      <point x="571" y="475"/>
      <point x="491" y="544"/>
      <point x="357" y="544" type="curve" smooth="yes"/>
      <point x="346" y="544"/>
      <point x="337" y="531"/>
      <point x="340" y="455" type="curve"/>
      <point x="426" y="455"/>
      <point x="460" y="420"/>
      <point x="437" y="328" type="curve" smooth="yes"/>
      <point x="431" y="306" type="line" smooth="yes"/>
      <point x="431" y="305"/>
      <point x="431" y="305"/>
      <point x="430" y="305" type="curve" smooth="yes"/>
      <point x="286" y="305"/>
      <point x="229" y="305"/>
      <point x="118" y="305" type="curve"/>
      <point x="109" y="272"/>
      <point x="108" y="257"/>
      <point x="117" y="246" type="curve" smooth="yes"/>
      <point x="123" y="237"/>
      <point x="134" y="233"/>
      <point x="148" y="233" type="curve" smooth="yes"/>
    </contour>
    <contour>
      <point x="373" y="544" type="move" name="top"/>
    </contour>
    <contour>
      <point x="397" y="9" type="move" name="ogonek"/>
    </contour>
    <contour>
      <point x="238" y="-1" type="move" name="bottom"/>
    </contour>
  </outline>
</glyph>
<glyph name="f" format="1">
  <advance width="600"/>
  <unicode hex="0066"/>
  <outline>
    <contour>
      <point x="400" y="645" type="curve"/>
      <point x="445" y="668"/>
      <point x="469" y="674"/>
      <point x="526" y="674" type="curve" smooth="yes"/>
      <point x="575" y="674"/>
      <point x="618" y="664"/>
      <point x="650" y="648" type="curve"/>
      <point x="666" y="648" type="line"/>
      <point x="673" y="674"/>
      <point x="678" y="692"/>
      <point x="685" y="720" type="curve"/>
      <point x="686" y="724"/>
      <point x="686" y="728"/>
      <point x="683" y="730" type="curve" smooth="yes"/>
      <point x="675" y="740"/>
      <point x="611" y="765"/>
      <point x="536" y="765" type="curve" smooth="yes"/>
      <point x="440" y="765"/>
      <point x="381" y="719"/>
    </contour>
    <contour>
      <point x="296" y="571" type="curve"/>
      <point x="131" y="-89" type="line" smooth="yes"/>
      <point x="129" y="-96"/>
      <point x="133" y="-100"/>
      <point x="140" y="-100" type="curve"/>
      <point x="168" y="-100"/>
      <point x="198" y="-100"/>
      <point x="227" y="-100" type="curve"/>
      <point x="235" y="-66"/>
      <point x="244" y="-33"/>
      <point x="252" y="1" type="curve"/>
      <point x="381" y="514" type="line"/>
      <point x="385" y="532"/>
      <point x="388" y="542"/>
      <point x="391" y="554" type="curve"/>
      <point x="412" y="639"/>
      <point x="446" y="674"/>
      <point x="526" y="674" type="curve"/>
      <point x="571" y="750"/>
      <point x="551" y="765"/>
      <point x="536" y="765" type="curve" smooth="yes"/>
      <point x="397" y="765"/>
      <point x="327" y="697"/>
    </contour>
    <contour>
      <point x="144" y="523" type="line"/>
      <point x="137" y="495"/>
      <point x="131" y="472"/>
      <point x="124" y="444" type="curve" smooth="yes"/>
      <point x="123" y="440"/>
      <point x="123" y="437"/>
      <point x="125" y="435" type="curve" smooth="yes"/>
      <point x="127" y="433"/>
      <point x="130" y="433"/>
      <point x="133" y="433" type="curve"/>
      <point x="556" y="433" type="line"/>
      <point x="563" y="461"/>
      <point x="569" y="484"/>
      <point x="576" y="512" type="curve" smooth="yes"/>
      <point x="578" y="519"/>
      <point x="574" y="523"/>
      <point x="568" y="523" type="curve"/>
    </contour>
  </outline>
</glyph>
<glyph name="g" format="1">
  <advance width="600"/>
  <unicode hex="0067"/>
  <outline>
    <contour>
      <point x="309" y="544" type="curve" smooth="yes"/>
      <point x="201" y="544"/>
      <point x="124" y="491"/>
      <point x="84" y="336" type="curve" smooth="yes"/>
      <point x="47" y="194" type="line" smooth="yes"/>
      <point x="32" y="137"/>
      <point x="60" y="75"/>
      <point x="108" y="75" type="curve" smooth="yes"/>
      <point x="128" y="75"/>
      <point x="144" y="87"/>
      <point x="148" y="102" type="curve"/>
      <point x="135" y="134"/>
      <point x="140" y="160"/>
      <point x="156" y="225" type="curve" smooth="yes"/>
      <point x="180" y="316" type="line" smooth="yes"/>
      <point x="204" y="412"/>
      <point x="246" y="445"/>
      <point x="314" y="445" type="curve" smooth="yes"/>
      <point x="371" y="445"/>
      <point x="414" y="412"/>
      <point x="439" y="349" type="curve"/>
      <point x="450" y="353"/>
      <point x="467" y="381"/>
      <point x="467" y="400" type="curve" smooth="yes"/>
      <point x="464" y="466"/>
      <point x="409" y="544"/>
    </contour>
    <contour>
      <point x="179" y="0" type="curve" smooth="yes"/>
      <point x="253" y="0"/>
      <point x="311" y="29"/>
      <point x="370" y="87" type="curve" smooth="yes"/>
      <point x="405" y="124"/>
      <point x="420" y="170"/>
      <point x="411" y="204" type="curve"/>
      <point x="331" y="124"/>
      <point x="281" y="98"/>
      <point x="219" y="98" type="curve" smooth="yes"/>
      <point x="158" y="98"/>
      <point x="136" y="142"/>
      <point x="156" y="225" type="curve"/>
      <point x="75" y="230"/>
      <point x="53" y="218"/>
      <point x="47" y="194" type="curve" smooth="yes"/>
      <point x="20" y="83"/>
      <point x="67" y="0"/>
    </contour>
    <contour>
      <point x="438" y="-13" type="curve" smooth="yes"/>
      <point x="551" y="432" type="line" smooth="yes"/>
      <point x="559" y="465"/>
      <point x="568" y="499"/>
      <point x="576" y="533" type="curve"/>
      <point x="545" y="533"/>
      <point x="519" y="533"/>
      <point x="489" y="533" type="curve" smooth="yes"/>
      <point x="486" y="533"/>
      <point x="483" y="532"/>
      <point x="480" y="530" type="curve" smooth="yes"/>
      <point x="478" y="528"/>
      <point x="476" y="525"/>
      <point x="475" y="522" type="curve" smooth="yes"/>
      <point x="344" y="5" type="line" smooth="yes"/>
      <point x="322" y="-85"/>
      <point x="297" y="-129"/>
      <point x="249" y="-173" type="curve"/>
      <point x="326" y="-185"/>
      <point x="409" y="-127"/>
    </contour>
    <contour>
      <point x="151" y="-155" type="curve" smooth="yes"/>
      <point x="86" y="-155"/>
      <point x="47" y="-143"/>
      <point x="8" y="-123" type="curve"/>
      <point x="-8" y="-123" type="line"/>
      <point x="-15" y="-152"/>
      <point x="-22" y="-175"/>
      <point x="-29" y="-203" type="curve" smooth="yes"/>
      <point x="-30" y="-207"/>
      <point x="-30" y="-210"/>
      <point x="-28" y="-212" type="curve" smooth="yes"/>
      <point x="-16" y="-227"/>
      <point x="46" y="-250"/>
      <point x="141" y="-250" type="curve" smooth="yes"/>
      <point x="298" y="-250"/>
      <point x="394" y="-187"/>
      <point x="438" y="-13" type="curve" smooth="yes"/>
      <point x="442" y="3"/>
      <point x="398" y="5"/>
      <point x="344" y="5" type="curve"/>
      <point x="314" y="-114"/>
      <point x="247" y="-155"/>
    </contour>
  </outline>
</glyph>
<glyph name="h" format="1">
  <advance width="600"/>
  <unicode hex="0068"/>
  <outline>
    <contour>
      <point x="127" y="0" type="curve"/>
      <point x="315" y="740" type="line" smooth="yes"/>
      <point x="315" y="743"/>
      <point x="315" y="746"/>
      <point x="314" y="748" type="curve" smooth="yes"/>
      <point x="312" y="750"/>
      <point x="309" y="751"/>
      <point x="306" y="751" type="curve" smooth="yes"/>
      <point x="278" y="751"/>
      <point x="248" y="751"/>
      <point x="214" y="751" type="curve"/>
      <point x="209" y="729"/>
      <point x="200" y="694"/>
      <point x="189" y="651" type="curve" smooth="yes"/>
      <point x="27" y="11" type="line" smooth="yes"/>
      <point x="25" y="5"/>
      <point x="29" y="0"/>
      <point x="35" y="0" type="curve" smooth="yes"/>
      <point x="66" y="0"/>
      <point x="96" y="0"/>
    </contour>
    <contour>
      <point x="434" y="544" type="curve" smooth="yes"/>
      <point x="364" y="544"/>
      <point x="304" y="512"/>
      <point x="234" y="444" type="curve" smooth="yes"/>
      <point x="205" y="417"/>
      <point x="194" y="387"/>
      <point x="182" y="323" type="curve"/>
      <point x="273" y="411"/>
      <point x="334" y="449"/>
      <point x="390" y="449" type="curve" smooth="yes"/>
      <point x="441" y="449"/>
      <point x="469" y="424"/>
      <point x="460" y="354" type="curve"/>
      <point x="518" y="360"/>
      <point x="538" y="369"/>
      <point x="544" y="392" type="curve" smooth="yes"/>
      <point x="564" y="470"/>
      <point x="527" y="544"/>
    </contour>
    <contour>
      <point x="445" y="0" type="curve"/>
      <point x="454" y="32"/>
      <point x="462" y="65"/>
      <point x="471" y="98" type="curve" smooth="yes"/>
      <point x="544" y="392" type="line"/>
      <point x="559" y="443"/>
      <point x="507" y="468"/>
      <point x="444" y="442" type="curve"/>
      <point x="446" y="420"/>
      <point x="447" y="409"/>
      <point x="437" y="371" type="curve" smooth="yes"/>
      <point x="345" y="11" type="line" smooth="yes"/>
      <point x="343" y="5"/>
      <point x="347" y="0"/>
      <point x="353" y="0" type="curve" smooth="yes"/>
      <point x="384" y="0"/>
      <point x="414" y="0"/>
    </contour>
    <contour>
      <point x="257" y="730" type="move" name="top"/>
    </contour>
  </outline>
</glyph>
<glyph name="i" format="1">
  <advance width="600"/>
  <unicode hex="0069"/>
  <outline>
    <contour>
      <point x="132" y="533" type="curve"/>
      <point x="125" y="506"/>
      <point x="118" y="478"/>
      <point x="111" y="452" type="curve" smooth="yes"/>
      <point x="109" y="444"/>
      <point x="113" y="441"/>
      <point x="120" y="441" type="curve" smooth="yes"/>
      <point x="194" y="441"/>
      <point x="258" y="441"/>
      <point x="317" y="441" type="curve"/>
      <point x="338" y="525"/>
      <point x="335" y="533"/>
      <point x="322" y="533" type="curve"/>
      <point x="259" y="533"/>
      <point x="195" y="533"/>
    </contour>
    <contour>
      <point x="417" y="531" type="curve" smooth="yes"/>
      <point x="415" y="533"/>
      <point x="413" y="533"/>
      <point x="410" y="533" type="curve" smooth="yes"/>
      <point x="322" y="533" type="line"/>
      <point x="228" y="153" type="line" smooth="yes"/>
      <point x="215" y="104"/>
      <point x="246" y="59"/>
      <point x="302" y="59" type="curve"/>
      <point x="309" y="87"/>
      <point x="318" y="122"/>
      <point x="325" y="150" type="curve" smooth="yes"/>
      <point x="418" y="522" type="line" smooth="yes"/>
      <point x="419" y="526"/>
      <point x="419" y="529"/>
    </contour>
    <contour>
      <point x="491" y="92" type="curve"/>
      <point x="476" y="92" type="line"/>
      <point x="426" y="92"/>
      <point x="426" y="92"/>
      <point x="370" y="92" type="curve"/>
      <point x="325" y="92"/>
      <point x="314" y="106"/>
      <point x="325" y="150" type="curve"/>
      <point x="243" y="168"/>
      <point x="231" y="165"/>
      <point x="228" y="153" type="curve" smooth="yes"/>
      <point x="205" y="69"/>
      <point x="237" y="0"/>
      <point x="349" y="0" type="curve" smooth="yes"/>
      <point x="457" y="0" type="line" smooth="yes"/>
      <point x="461" y="0"/>
      <point x="464" y="1"/>
      <point x="467" y="3" type="curve" smooth="yes"/>
      <point x="469" y="5"/>
      <point x="470" y="7"/>
      <point x="471" y="11" type="curve"/>
      <point x="477" y="38"/>
      <point x="484" y="65"/>
    </contour>
    <contour>
      <point x="463" y="663" type="curve"/>
      <point x="488" y="766" type="line" smooth="yes"/>
      <point x="490" y="772"/>
      <point x="486" y="777"/>
      <point x="480" y="777" type="curve" smooth="yes"/>
      <point x="441" y="777"/>
      <point x="402" y="777"/>
      <point x="363" y="777" type="curve"/>
      <point x="337" y="674" type="line" smooth="yes"/>
      <point x="336" y="668"/>
      <point x="340" y="663"/>
      <point x="346" y="663" type="curve" smooth="yes"/>
      <point x="385" y="663"/>
      <point x="424" y="663"/>
    </contour>
  </outline>
</glyph>
<glyph name="j" format="1">
  <advance width="600"/>
  <unicode hex="006A"/>
  <outline>
    <contour>
      <point x="144" y="533" type="curve"/>
      <point x="137" y="506"/>
      <point x="131" y="482"/>
      <point x="124" y="455" type="curve" smooth="yes"/>
      <point x="122" y="448"/>
      <point x="126" y="444"/>
      <point x="132" y="444" type="curve" smooth="yes"/>
      <point x="233" y="444"/>
      <point x="343" y="444"/>
      <point x="444" y="444" type="curve"/>
      <point x="454" y="485"/>
      <point x="453" y="533"/>
      <point x="424" y="533" type="curve" smooth="yes"/>
      <point x="334" y="533"/>
      <point x="234" y="533"/>
    </contour>
    <contour>
      <point x="366" y="-13" type="curve" smooth="yes"/>
      <point x="503" y="522" type="line" smooth="yes"/>
      <point x="504" y="525"/>
      <point x="504" y="528"/>
      <point x="502" y="530" type="curve" smooth="yes"/>
      <point x="500" y="532"/>
      <point x="498" y="533"/>
      <point x="495" y="533" type="curve" smooth="yes"/>
      <point x="407" y="533" type="line"/>
      <point x="273" y="6" type="line" smooth="yes"/>
      <point x="252" y="-79"/>
      <point x="223" y="-124"/>
      <point x="152" y="-174" type="curve"/>
      <point x="220" y="-215"/>
      <point x="337" y="-129"/>
    </contour>
    <contour>
      <point x="82" y="-155" type="curve" smooth="yes"/>
      <point x="28" y="-155"/>
      <point x="-5" y="-147"/>
      <point x="-46" y="-125" type="curve"/>
      <point x="-62" y="-125" type="line"/>
      <point x="-69" y="-153"/>
      <point x="-75" y="-176"/>
      <point x="-82" y="-204" type="curve" smooth="yes"/>
      <point x="-83" y="-207"/>
      <point x="-83" y="-210"/>
      <point x="-81" y="-212" type="curve" smooth="yes"/>
      <point x="-70" y="-227"/>
      <point x="-13" y="-250"/>
      <point x="73" y="-250" type="curve" smooth="yes"/>
      <point x="232" y="-250"/>
      <point x="324" y="-178"/>
      <point x="366" y="-13" type="curve" smooth="yes"/>
      <point x="371" y="3"/>
      <point x="337" y="9"/>
      <point x="273" y="6" type="curve"/>
      <point x="243" y="-109"/>
      <point x="188" y="-155"/>
    </contour>
    <contour>
      <point x="549" y="663" type="curve"/>
      <point x="575" y="766" type="line" smooth="yes"/>
      <point x="577" y="772"/>
      <point x="573" y="777"/>
      <point x="567" y="777" type="curve" smooth="yes"/>
      <point x="528" y="777"/>
      <point x="488" y="777"/>
      <point x="449" y="777" type="curve"/>
      <point x="423" y="674" type="line" smooth="yes"/>
      <point x="421" y="668"/>
      <point x="425" y="663"/>
      <point x="431" y="663" type="curve" smooth="yes"/>
      <point x="470" y="663"/>
      <point x="510" y="663"/>
    </contour>
  </outline>
</glyph>
<glyph name="l" format="1">
  <advance width="600"/>
  <unicode hex="006C"/>
  <outline>
    <contour>
      <point x="186" y="750" type="curve"/>
      <point x="180" y="723"/>
      <point x="173" y="696"/>
      <point x="166" y="669" type="curve" smooth="yes"/>
      <point x="164" y="662"/>
      <point x="168" y="658"/>
      <point x="174" y="658" type="curve" smooth="yes"/>
      <point x="248" y="658"/>
      <point x="312" y="658"/>
      <point x="371" y="658" type="curve"/>
      <point x="393" y="742"/>
      <point x="390" y="750"/>
      <point x="377" y="750" type="curve"/>
      <point x="314" y="750"/>
      <point x="250" y="750"/>
    </contour>
    <contour>
      <point x="471" y="748" type="curve" smooth="yes"/>
      <point x="469" y="750"/>
      <point x="467" y="750"/>
      <point x="464" y="750" type="curve" smooth="yes"/>
      <point x="377" y="750" type="line"/>
      <point x="228" y="153" type="line" smooth="yes"/>
      <point x="215" y="104"/>
      <point x="246" y="59"/>
      <point x="302" y="59" type="curve"/>
      <point x="309" y="87"/>
      <point x="318" y="122"/>
      <point x="325" y="150" type="curve" smooth="yes"/>
      <point x="472" y="739" type="line" smooth="yes"/>
      <point x="473" y="743"/>
      <point x="473" y="746"/>
    </contour>
    <contour>
      <point x="491" y="92" type="curve"/>
      <point x="476" y="92" type="line"/>
      <point x="426" y="92"/>
      <point x="426" y="92"/>
      <point x="370" y="92" type="curve"/>
      <point x="325" y="92"/>
      <point x="314" y="106"/>
      <point x="325" y="150" type="curve"/>
      <point x="243" y="168"/>
      <point x="231" y="165"/>
      <point x="228" y="153" type="curve" smooth="yes"/>
      <point x="205" y="69"/>
      <point x="237" y="0"/>
      <point x="349" y="0" type="curve" smooth="yes"/>
      <point x="457" y="0" type="line" smooth="yes"/>
      <point x="461" y="0"/>
      <point x="464" y="1"/>
      <point x="467" y="3" type="curve" smooth="yes"/>
      <point x="469" y="5"/>
      <point x="470" y="7"/>
      <point x="471" y="11" type="curve"/>
      <point x="477" y="38"/>
      <point x="484" y="65"/>
    </contour>
  </outline>
</glyph>
<glyph name="m" format="1">
  <advance width="600"/>
  <unicode hex="006D"/>
  <outline>
    <contour>
      <point x="67" y="0" type="curve"/>
      <point x="188" y="480" type="line" smooth="yes"/>
      <point x="195" y="505"/>
      <point x="190" y="527"/>
      <point x="188" y="530" type="curve" smooth="yes"/>
      <point x="186" y="533"/>
      <point x="183" y="533"/>
      <point x="179" y="533" type="curve" smooth="yes"/>
      <point x="157" y="533"/>
      <point x="135" y="533"/>
      <point x="113" y="533" type="curve"/>
      <point x="107" y="509"/>
      <point x="98" y="474"/>
      <point x="88" y="433" type="curve" smooth="yes"/>
      <point x="-19" y="11" type="line" smooth="yes"/>
      <point x="-20" y="5"/>
      <point x="-17" y="0"/>
      <point x="-11" y="0" type="curve" smooth="yes"/>
      <point x="15" y="0"/>
      <point x="42" y="0"/>
    </contour>
    <contour>
      <point x="322" y="544" type="curve" smooth="yes"/>
      <point x="280" y="544"/>
      <point x="238" y="522"/>
      <point x="192" y="473" type="curve" smooth="yes"/>
      <point x="161" y="442"/>
      <point x="135" y="399"/>
      <point x="131" y="354" type="curve"/>
      <point x="190" y="415"/>
      <point x="233" y="443"/>
      <point x="268" y="443" type="curve" smooth="yes"/>
      <point x="289" y="443"/>
      <point x="299" y="430"/>
      <point x="291" y="394" type="curve"/>
      <point x="380" y="430"/>
      <point x="385" y="437"/>
      <point x="386" y="440" type="curve" smooth="yes"/>
      <point x="402" y="502"/>
      <point x="373" y="544"/>
    </contour>
    <contour>
      <point x="275" y="0" type="curve"/>
      <point x="386" y="440" type="line" smooth="yes"/>
      <point x="395" y="476"/>
      <point x="356" y="475"/>
      <point x="292" y="452" type="curve"/>
      <point x="297" y="433"/>
      <point x="298" y="425"/>
      <point x="289" y="391" type="curve" smooth="yes"/>
      <point x="194" y="11" type="line" smooth="yes"/>
      <point x="193" y="5"/>
      <point x="196" y="0"/>
      <point x="202" y="0" type="curve" smooth="yes"/>
      <point x="226" y="0"/>
      <point x="251" y="0"/>
    </contour>
    <contour>
      <point x="531" y="544" type="curve" smooth="yes"/>
      <point x="489" y="544"/>
      <point x="445" y="519"/>
      <point x="402" y="473" type="curve" smooth="yes"/>
      <point x="375" y="447"/>
      <point x="339" y="398"/>
      <point x="337" y="356" type="curve"/>
      <point x="397" y="419"/>
      <point x="440" y="443"/>
      <point x="473" y="443" type="curve" smooth="yes"/>
      <point x="498" y="443"/>
      <point x="509" y="430"/>
      <point x="499" y="393" type="curve"/>
      <point x="592" y="425"/>
      <point x="595" y="428"/>
      <point x="596" y="434" type="curve" smooth="yes"/>
      <point x="613" y="496"/>
      <point x="589" y="544"/>
    </contour>
    <contour>
      <point x="487" y="0" type="curve"/>
      <point x="496" y="34"/>
      <point x="504" y="67"/>
      <point x="512" y="98" type="curve" smooth="yes"/>
      <point x="596" y="434" type="line" smooth="yes"/>
      <point x="606" y="474"/>
      <point x="577" y="480"/>
      <point x="501" y="456" type="curve"/>
      <point x="506" y="437"/>
      <point x="506" y="427"/>
      <point x="497" y="390" type="curve" smooth="yes"/>
      <point x="402" y="11" type="line" smooth="yes"/>
      <point x="400" y="5"/>
      <point x="404" y="0"/>
      <point x="410" y="0" type="curve" smooth="yes"/>
      <point x="436" y="0"/>
      <point x="461" y="0"/>
    </contour>
  </outline>
</glyph>
<glyph name="n" format="1">
  <advance width="600"/>
  <unicode hex="006E"/>
  <outline>
    <contour>
      <point x="127" y="0" type="curve"/>
      <point x="258" y="522" type="line" smooth="yes"/>
      <point x="259" y="525"/>
      <point x="259" y="528"/>
      <point x="257" y="530" type="curve" smooth="yes"/>
      <point x="255" y="532"/>
      <point x="253" y="533"/>
      <point x="250" y="533" type="curve" smooth="yes"/>
      <point x="221" y="533"/>
      <point x="191" y="533"/>
      <point x="158" y="533" type="curve"/>
      <point x="152" y="511"/>
      <point x="143" y="476"/>
      <point x="133" y="434" type="curve" smooth="yes"/>
      <point x="27" y="11" type="line" smooth="yes"/>
      <point x="25" y="5"/>
      <point x="29" y="0"/>
      <point x="35" y="0" type="curve" smooth="yes"/>
      <point x="66" y="0"/>
      <point x="96" y="0"/>
    </contour>
    <contour>
      <point x="436" y="544" type="curve" smooth="yes"/>
      <point x="365" y="544"/>
      <point x="302" y="508"/>
      <point x="232" y="434" type="curve" smooth="yes"/>
      <point x="205" y="405"/>
      <point x="182" y="363"/>
      <point x="187" y="310" type="curve"/>
      <point x="270" y="406"/>
      <point x="333" y="443"/>
      <point x="385" y="443" type="curve" smooth="yes"/>
      <point x="429" y="443"/>
      <point x="446" y="416"/>
      <point x="433" y="364" type="curve"/>
      <point x="523" y="365"/>
      <point x="538" y="375"/>
      <point x="542" y="389" type="curve" smooth="yes"/>
      <point x="562" y="469"/>
      <point x="528" y="544"/>
    </contour>
    <contour>
      <point x="445" y="0" type="curve"/>
      <point x="453" y="32"/>
      <point x="461" y="65"/>
      <point x="470" y="97" type="curve" smooth="yes"/>
      <point x="542" y="389" type="line"/>
      <point x="551" y="426"/>
      <point x="504" y="458"/>
      <point x="446" y="436" type="curve"/>
      <point x="445" y="415"/>
      <point x="442" y="400"/>
      <point x="433" y="364" type="curve" smooth="yes"/>
      <point x="345" y="11" type="line" smooth="yes"/>
      <point x="343" y="5"/>
      <point x="347" y="0"/>
      <point x="353" y="0" type="curve" smooth="yes"/>
      <point x="384" y="0"/>
      <point x="414" y="0"/>
    </contour>
    <contour>
      <point x="436" y="711" type="move" name="caronslovak"/>
    </contour>
    <contour>
      <point x="403" y="544" type="move" name="top"/>
    </contour>
    <contour>
      <point x="201" y="-1" type="move" name="bottom"/>
    </contour>
  </outline>
</glyph>
<glyph name="p" format="1">
  <advance width="600"/>
  <unicode hex="0070"/>
  <outline>
    <contour>
      <point x="72" y="-210" type="curve"/>
      <point x="257" y="522" type="line" smooth="yes"/>
      <point x="258" y="525"/>
      <point x="257" y="528"/>
      <point x="256" y="530" type="curve" smooth="yes"/>
      <point x="254" y="532"/>
      <point x="252" y="533"/>
      <point x="249" y="533" type="curve"/>
      <point x="219" y="533"/>
      <point x="189" y="533"/>
      <point x="159" y="533" type="curve"/>
      <point x="151" y="501"/>
      <point x="142" y="467"/>
      <point x="134" y="432" type="curve" smooth="yes"/>
      <point x="-26" y="-199" type="line" smooth="yes"/>
      <point x="-28" y="-206"/>
      <point x="-23" y="-210"/>
      <point x="-17" y="-210" type="curve"/>
      <point x="13" y="-210"/>
      <point x="42" y="-210"/>
    </contour>
    <contour>
      <point x="414" y="544" type="curve" smooth="yes"/>
      <point x="349" y="544"/>
      <point x="294" y="513"/>
      <point x="238" y="463" type="curve" smooth="yes"/>
      <point x="198" y="424"/>
      <point x="178" y="388"/>
      <point x="182" y="354" type="curve"/>
      <point x="269" y="423"/>
      <point x="321" y="451"/>
      <point x="381" y="451" type="curve" smooth="yes"/>
      <point x="445" y="451"/>
      <point x="470" y="409"/>
      <point x="450" y="329" type="curve"/>
      <point x="534" y="319"/>
      <point x="551" y="324"/>
      <point x="553" y="333" type="curve" smooth="yes"/>
      <point x="581" y="447"/>
      <point x="529" y="544"/>
    </contour>
    <contour>
      <point x="298" y="-11" type="curve" smooth="yes"/>
      <point x="406" y="-11"/>
      <point x="482" y="50"/>
      <point x="521" y="208" type="curve" smooth="yes"/>
      <point x="553" y="334" type="line" smooth="yes"/>
      <point x="568" y="392"/>
      <point x="538" y="470"/>
      <point x="486" y="470" type="curve" smooth="yes"/>
      <point x="466" y="470"/>
      <point x="452" y="463"/>
      <point x="448" y="449" type="curve"/>
      <point x="461" y="415"/>
      <point x="467" y="394"/>
      <point x="450" y="329" type="curve" smooth="yes"/>
      <point x="422" y="215" type="line" smooth="yes"/>
      <point x="397" y="116"/>
      <point x="351" y="81"/>
      <point x="291" y="81" type="curve" smooth="yes"/>
      <point x="229" y="81"/>
      <point x="189" y="98"/>
      <point x="139" y="167" type="curve"/>
      <point x="121" y="145"/>
      <point x="115" y="127"/>
      <point x="118" y="115" type="curve" smooth="yes"/>
      <point x="130" y="61"/>
      <point x="192" y="-11"/>
    </contour>
  </outline>
</glyph>
<glyph name="r" format="1">
  <advance width="600"/>
  <unicode hex="0072"/>
  <outline>
    <contour>
      <point x="134" y="533" type="curve"/>
      <point x="127" y="504"/>
      <point x="121" y="482"/>
      <point x="114" y="453" type="curve" smooth="yes"/>
      <point x="112" y="447"/>
      <point x="116" y="442"/>
      <point x="122" y="442" type="curve" smooth="yes"/>
      <point x="180" y="442"/>
      <point x="246" y="442"/>
      <point x="304" y="442" type="curve"/>
      <point x="316" y="489"/>
      <point x="319" y="533"/>
      <point x="308" y="533" type="curve" smooth="yes"/>
      <point x="253" y="533"/>
      <point x="189" y="533"/>
    </contour>
    <contour>
      <point x="228" y="0" type="curve"/>
      <point x="237" y="36"/>
      <point x="245" y="66"/>
      <point x="253" y="99" type="curve" smooth="yes"/>
      <point x="343" y="454" type="line" smooth="yes"/>
      <point x="346" y="466"/>
      <point x="327" y="533"/>
      <point x="308" y="533" type="curve" smooth="yes"/>
      <point x="299" y="533"/>
      <point x="286" y="532"/>
      <point x="263" y="527" type="curve"/>
      <point x="132" y="11" type="line" smooth="yes"/>
      <point x="131" y="5"/>
      <point x="134" y="0"/>
      <point x="140" y="0" type="curve" smooth="yes"/>
      <point x="171" y="0"/>
      <point x="198" y="0"/>
    </contour>
    <contour>
      <point x="283" y="334" type="curve"/>
      <point x="385" y="421"/>
      <point x="438" y="440"/>
      <point x="499" y="440" type="curve" smooth="yes"/>
      <point x="525" y="440"/>
      <point x="550" y="438"/>
      <point x="574" y="434" type="curve"/>
      <point x="587" y="434" type="line"/>
      <point x="594" y="461"/>
      <point x="608" y="518"/>
      <point x="611" y="529" type="curve"/>
      <point x="613" y="536"/>
      <point x="609" y="540"/>
      <point x="602" y="540" type="curve" smooth="yes"/>
      <point x="549" y="540" type="line" smooth="yes"/>
      <point x="454" y="540"/>
      <point x="392" y="512"/>
      <point x="322" y="438" type="curve" smooth="yes"/>
      <point x="304" y="420"/>
      <point x="297" y="401"/>
    </contour>
  </outline>
</glyph>
<glyph name="s" format="1">
  <advance width="600"/>
  <unicode hex="0073"/>
  <outline>
    <contour>
      <point x="380" y="541" type="curve" smooth="yes"/>
      <point x="372" y="541" type="line" smooth="yes"/>
      <point x="234" y="541"/>
      <point x="151" y="491"/>
      <point x="125" y="393" type="curve" smooth="yes"/>
      <point x="115" y="355"/>
      <point x="158" y="332"/>
      <point x="209" y="332" type="curve"/>
      <point x="213" y="348"/>
      <point x="219" y="373"/>
      <point x="223" y="387" type="curve" smooth="yes"/>
      <point x="234" y="429"/>
      <point x="279" y="450"/>
      <point x="360" y="450" type="curve" smooth="yes"/>
      <point x="423" y="450"/>
      <point x="466" y="441"/>
      <point x="513" y="423" type="curve"/>
      <point x="529" y="423" type="line"/>
      <point x="536" y="448"/>
      <point x="542" y="470"/>
      <point x="549" y="497" type="curve"/>
      <point x="550" y="502"/>
      <point x="550" y="505"/>
      <point x="548" y="507" type="curve" smooth="yes"/>
      <point x="539" y="517"/>
      <point x="476" y="541"/>
    </contour>
    <contour>
      <point x="370" y="302" type="curve" smooth="yes"/>
      <point x="286" y="318" type="line" smooth="yes"/>
      <point x="225" y="332"/>
      <point x="214" y="352"/>
      <point x="223" y="387" type="curve" smooth="yes"/>
      <point x="227" y="405"/>
      <point x="233" y="427"/>
      <point x="240" y="452" type="curve"/>
      <point x="184" y="452"/>
      <point x="134" y="429"/>
      <point x="125" y="393" type="curve"/>
      <point x="106" y="318"/>
      <point x="143" y="260"/>
      <point x="239" y="241" type="curve" smooth="yes"/>
      <point x="323" y="224" type="line" smooth="yes"/>
      <point x="390" y="209"/>
      <point x="404" y="187"/>
      <point x="394" y="149" type="curve" smooth="yes"/>
      <point x="389" y="130"/>
      <point x="381" y="104"/>
      <point x="377" y="84" type="curve"/>
      <point x="439" y="85"/>
      <point x="483" y="113"/>
      <point x="489" y="142" type="curve" smooth="yes"/>
      <point x="508" y="217"/>
      <point x="477" y="282"/>
    </contour>
    <contour>
      <point x="255" y="83" type="curve" smooth="yes"/>
      <point x="164" y="83"/>
      <point x="114" y="99"/>
      <point x="61" y="133" type="curve"/>
      <point x="45" y="133" type="line"/>
      <point x="40" y="108"/>
      <point x="34" y="85"/>
      <point x="26" y="53" type="curve" smooth="yes"/>
      <point x="25" y="49"/>
      <point x="25" y="46"/>
      <point x="27" y="44" type="curve" smooth="yes"/>
      <point x="45" y="25"/>
      <point x="118" y="-8"/>
      <point x="233" y="-8" type="curve" smooth="yes"/>
      <point x="243" y="-8" type="line" smooth="yes"/>
      <point x="379" y="-8"/>
      <point x="462" y="38"/>
      <point x="489" y="142" type="curve" smooth="yes"/>
      <point x="500" y="184"/>
      <point x="464" y="212"/>
      <point x="411" y="212" type="curve"/>
      <point x="404" y="188"/>
      <point x="399" y="169"/>
      <point x="394" y="149" type="curve" smooth="yes"/>
      <point x="383" y="111"/>
      <point x="344" y="83"/>
    </contour>
    <contour>
      <point x="378" y="544" type="move" name="top"/>
    </contour>
    <contour>
      <point x="238" y="-1" type="move" name="bottom"/>
    </contour>
  </outline>
</glyph>
<glyph name="t" format="1">
  <advance width="600"/>
  <unicode hex="0074"/>
  <outline>
    <contour>
      <point x="306" y="700" type="curve"/>
      <point x="182" y="203" type="line" smooth="yes"/>
      <point x="157" y="103"/>
      <point x="200" y="55"/>
      <point x="285" y="66" type="curve"/>
      <point x="266" y="112"/>
      <point x="263" y="134"/>
      <point x="283" y="213" type="curve" smooth="yes"/>
      <point x="402" y="689" type="line" smooth="yes"/>
      <point x="404" y="695"/>
      <point x="400" y="700"/>
      <point x="394" y="700" type="curve" smooth="yes"/>
      <point x="366" y="700"/>
      <point x="336" y="700"/>
    </contour>
    <contour>
      <point x="456" y="92" type="curve"/>
      <point x="441" y="92" type="line"/>
      <point x="411" y="92"/>
      <point x="403" y="92"/>
      <point x="364" y="92" type="curve" smooth="yes"/>
      <point x="279" y="92"/>
      <point x="259" y="119"/>
      <point x="283" y="213" type="curve"/>
      <point x="211" y="233"/>
      <point x="186" y="220"/>
      <point x="182" y="203" type="curve" smooth="yes"/>
      <point x="146" y="57"/>
      <point x="224" y="0"/>
      <point x="340" y="0" type="curve" smooth="yes"/>
      <point x="422" y="0" type="line" smooth="yes"/>
      <point x="426" y="0"/>
      <point x="429" y="0"/>
      <point x="432" y="3" type="curve" smooth="yes"/>
      <point x="434" y="5"/>
      <point x="435" y="7"/>
      <point x="436" y="11" type="curve" smooth="yes"/>
      <point x="443" y="39"/>
      <point x="449" y="64"/>
    </contour>
    <contour>
      <point x="137" y="533" type="line"/>
      <point x="130" y="504"/>
      <point x="124" y="482"/>
      <point x="117" y="453" type="curve" smooth="yes"/>
      <point x="116" y="450"/>
      <point x="116" y="447"/>
      <point x="118" y="445" type="curve" smooth="yes"/>
      <point x="119" y="443"/>
      <point x="122" y="442"/>
      <point x="125" y="442" type="curve" smooth="yes"/>
      <point x="544" y="442" type="line"/>
      <point x="551" y="471"/>
      <point x="557" y="493"/>
      <point x="563" y="522" type="curve" smooth="yes"/>
      <point x="565" y="528"/>
      <point x="561" y="533"/>
      <point x="555" y="533" type="curve" smooth="yes"/>
    </contour>
    <contour>
      <point x="550" y="700" type="move" name="caronslovak"/>
    </contour>
    <contour>
      <point x="303" y="-1" type="move" name="bottom"/>
    </contour>
  </outline>
</glyph>
<glyph name="v" format="1">
  <advance width="600"/>
  <unicode hex="0076"/>
  <outline>
    <contour>
      <point x="607" y="533" type="curve" smooth="yes"/>
      <point x="513" y="533" type="line"/>
      <point x="423" y="375"/>
      <point x="333" y="220"/>
      <point x="242" y="62" type="curve"/>
      <point x="221" y="22"/>
      <point x="212" y="11"/>
      <point x="187" y="0" type="curve"/>
      <point x="306" y="0" type="line"/>
      <point x="409" y="173"/>
      <point x="511" y="345"/>
      <point x="613" y="518" type="curve"/>
      <point x="618" y="526"/>
      <point x="615" y="533"/>
    </contour>
    <contour>
      <point x="201" y="533" type="curve" smooth="yes"/>
      <point x="112" y="533" type="line"/>
      <point x="127" y="359"/>
      <point x="142" y="186"/>
      <point x="157" y="13" type="curve"/>
      <point x="158" y="4"/>
      <point x="163" y="0"/>
      <point x="172" y="0" type="curve" smooth="yes"/>
      <point x="193" y="0" type="line" smooth="yes"/>
      <point x="234" y="0"/>
      <point x="309" y="22"/>
      <point x="327" y="92" type="curve"/>
      <point x="300" y="92"/>
      <point x="275" y="92"/>
      <point x="253" y="92" type="curve" smooth="yes"/>
      <point x="247" y="92"/>
      <point x="245" y="94"/>
      <point x="244" y="101" type="curve"/>
      <point x="234" y="241"/>
      <point x="224" y="377"/>
      <point x="213" y="518" type="curve"/>
      <point x="213" y="528"/>
      <point x="209" y="533"/>
    </contour>
  </outline>
</glyph>
<glyph name="w" format="1">
  <advance width="600"/>
  <unicode hex="0077"/>
  <outline>
    <contour>
      <point x="104" y="533" type="curve"/>
      <point x="86" y="360"/>
      <point x="67" y="186"/>
      <point x="48" y="13" type="curve" smooth="yes"/>
      <point x="47" y="4"/>
      <point x="53" y="0"/>
      <point x="62" y="0" type="curve" smooth="yes"/>
      <point x="86" y="0" type="line" smooth="yes"/>
      <point x="99" y="0"/>
      <point x="114" y="13"/>
      <point x="124" y="30" type="curve" smooth="yes"/>
      <point x="147" y="193"/>
      <point x="171" y="356"/>
      <point x="194" y="518" type="curve"/>
      <point x="195" y="526"/>
      <point x="194" y="529"/>
      <point x="193" y="530" type="curve" smooth="yes"/>
      <point x="192" y="532"/>
      <point x="190" y="533"/>
      <point x="186" y="533" type="curve"/>
      <point x="157" y="533"/>
      <point x="131" y="533"/>
    </contour>
    <contour>
      <point x="347" y="424" type="curve" smooth="yes"/>
      <point x="300" y="424" type="line"/>
      <point x="241" y="304"/>
      <point x="180" y="183"/>
      <point x="120" y="62" type="curve"/>
      <point x="100" y="22"/>
      <point x="93" y="10"/>
      <point x="76" y="0" type="curve"/>
      <point x="156" y="0" type="line"/>
      <point x="221" y="135"/>
      <point x="287" y="270"/>
      <point x="352" y="404" type="curve" smooth="yes"/>
      <point x="358" y="417"/>
      <point x="356" y="424"/>
    </contour>
    <contour>
      <point x="366" y="424" type="curve" smooth="yes"/>
      <point x="318" y="424" type="line"/>
      <point x="314" y="288"/>
      <point x="310" y="150"/>
      <point x="307" y="13" type="curve" smooth="yes"/>
      <point x="307" y="4"/>
      <point x="313" y="0"/>
      <point x="320" y="0" type="curve" smooth="yes"/>
      <point x="342" y="0" type="line" smooth="yes"/>
      <point x="353" y="0"/>
      <point x="364" y="10"/>
      <point x="367" y="25" type="curve" smooth="yes"/>
      <point x="370" y="165"/>
      <point x="372" y="289"/>
      <point x="374" y="413" type="curve" smooth="yes"/>
      <point x="375" y="422"/>
      <point x="371" y="424"/>
    </contour>
    <contour>
      <point x="531" y="533" type="curve"/>
      <point x="475" y="376"/>
      <point x="417" y="219"/>
      <point x="361" y="62" type="curve"/>
      <point x="346" y="24"/>
      <point x="342" y="12"/>
      <point x="332" y="0" type="curve"/>
      <point x="414" y="0" type="line"/>
      <point x="485" y="173"/>
      <point x="555" y="347"/>
      <point x="624" y="520" type="curve"/>
      <point x="626" y="527"/>
      <point x="626" y="529"/>
      <point x="624" y="531" type="curve" smooth="yes"/>
      <point x="623" y="532"/>
      <point x="622" y="533"/>
      <point x="618" y="533" type="curve"/>
      <point x="590" y="533"/>
      <point x="560" y="533"/>
    </contour>
    <contour>
      <point x="367" y="544" type="move" name="top"/>
    </contour>
  </outline>
</glyph>
<glyph name="z" format="1">
  <advance width="600"/>
  <unicode hex="007A"/>
  <outline>
    <contour>
      <point x="145" y="533" type="line"/>
      <point x="138" y="506"/>
      <point x="131" y="481"/>
      <point x="125" y="453" type="curve" smooth="yes"/>
      <point x="124" y="450"/>
      <point x="124" y="447"/>
      <point x="126" y="445" type="curve" smooth="yes"/>
      <point x="127" y="443"/>
      <point x="130" y="442"/>
      <point x="133" y="442" type="curve" smooth="yes"/>
      <point x="460" y="442" type="line" smooth="yes"/>
      <point x="494" y="442"/>
      <point x="543" y="444"/>
      <point x="574" y="449" type="curve"/>
      <point x="591" y="522" type="line" smooth="yes"/>
      <point x="592" y="525"/>
      <point x="592" y="528"/>
      <point x="590" y="530" type="curve" smooth="yes"/>
      <point x="589" y="532"/>
      <point x="586" y="533"/>
      <point x="583" y="533" type="curve" smooth="yes"/>
    </contour>
    <contour>
      <point x="478" y="478" type="curve"/>
      <point x="326" y="345"/>
      <point x="180" y="216"/>
      <point x="30" y="84" type="curve"/>
      <point x="16" y="23"/>
      <point x="105" y="35"/>
      <point x="142" y="62" type="curve" smooth="yes"/>
      <point x="295" y="200"/>
      <point x="573" y="448"/>
      <point x="574" y="449" type="curve"/>
      <point x="579" y="470"/>
      <point x="544" y="478"/>
    </contour>
    <contour>
      <point x="459" y="0" type="line"/>
      <point x="466" y="28"/>
      <point x="472" y="53"/>
      <point x="479" y="80" type="curve"/>
      <point x="481" y="86"/>
      <point x="478" y="91"/>
      <point x="471" y="91" type="curve" smooth="yes"/>
      <point x="146" y="91" type="line" smooth="yes"/>
      <point x="109" y="91"/>
      <point x="70" y="90"/>
      <point x="30" y="84" type="curve"/>
      <point x="12" y="11" type="line" smooth="yes"/>
      <point x="11" y="7"/>
      <point x="11" y="4"/>
      <point x="13" y="2" type="curve" smooth="yes"/>
      <point x="15" y="0"/>
      <point x="18" y="0"/>
      <point x="21" y="0" type="curve" smooth="yes"/>
    </contour>
    <contour>
      <point x="369" y="544" type="move" name="top"/>
    </contour>
  </outline>
</glyph>
<glyph name="braceleft" format="1">
  <advance width="600"/>
  <unicode hex="007B"/>
  <outline>
    <contour>
      <point x="466" y="665" type="curve" smooth="yes"/>
      <point x="528" y="665"/>
      <point x="540" y="665"/>
      <point x="595" y="665" type="curve"/>
      <point x="615" y="665" type="line"/>
      <point x="622" y="693"/>
      <point x="629" y="721"/>
      <point x="636" y="749" type="curve"/>
      <point x="637" y="756"/>
      <point x="634" y="760"/>
      <point x="627" y="760" type="curve" smooth="yes"/>
      <point x="455" y="760" type="line" smooth="yes"/>
      <point x="375" y="760"/>
      <point x="332" y="699"/>
      <point x="323" y="662" type="curve" smooth="yes"/>
      <point x="322" y="658" type="line" smooth="yes"/>
      <point x="320" y="649"/>
      <point x="327" y="645"/>
      <point x="409" y="622" type="curve"/>
      <point x="421" y="654"/>
      <point x="436" y="665"/>
    </contour>
    <contour>
      <point x="434" y="446" type="curve" smooth="yes"/>
      <point x="455" y="531"/>
      <point x="396" y="561"/>
      <point x="408" y="608" type="curve" smooth="yes"/>
      <point x="411" y="620"/>
      <point x="421" y="659"/>
      <point x="426" y="679" type="curve"/>
      <point x="330" y="672"/>
      <point x="325" y="668"/>
      <point x="323" y="662" type="curve" smooth="yes"/>
      <point x="311" y="614" type="line" smooth="yes"/>
      <point x="291" y="532"/>
      <point x="352" y="511"/>
      <point x="335" y="445" type="curve" smooth="yes"/>
      <point x="320" y="383"/>
      <point x="242" y="347"/>
      <point x="125" y="347" type="curve" smooth="yes"/>
      <point x="93" y="347" type="line"/>
      <point x="78" y="286" type="line" smooth="yes"/>
      <point x="75" y="277"/>
      <point x="81" y="272"/>
      <point x="89" y="272" type="curve" smooth="yes"/>
      <point x="106" y="272" type="line" smooth="yes"/>
      <point x="298" y="272"/>
      <point x="409" y="347"/>
    </contour>
    <contour>
      <point x="361" y="153" type="curve" smooth="yes"/>
      <point x="386" y="254"/>
      <point x="314" y="328"/>
      <point x="120" y="328" type="curve" smooth="yes"/>
      <point x="109" y="328"/>
      <point x="99" y="328"/>
      <point x="88" y="328" type="curve"/>
      <point x="72" y="264" type="line" smooth="yes"/>
      <point x="70" y="257"/>
      <point x="73" y="253"/>
      <point x="80" y="253" type="curve" smooth="yes"/>
      <point x="101" y="253" type="line" smooth="yes"/>
      <point x="218" y="253"/>
      <point x="277" y="214"/>
      <point x="262" y="153" type="curve" smooth="yes"/>
      <point x="246" y="88"/>
      <point x="174" y="67"/>
      <point x="154" y="-15" type="curve" smooth="yes"/>
      <point x="142" y="-63" type="line" smooth="yes"/>
      <point x="140" y="-69"/>
      <point x="144" y="-73"/>
      <point x="237" y="-78" type="curve"/>
      <point x="242" y="-55"/>
      <point x="248" y="-32"/>
      <point x="254" y="-9" type="curve" smooth="yes"/>
      <point x="265" y="38"/>
      <point x="339" y="68"/>
    </contour>
    <contour>
      <point x="283" y="-66" type="curve" smooth="yes"/>
      <point x="253" y="-66"/>
      <point x="244" y="-55"/>
      <point x="248" y="-23" type="curve"/>
      <point x="155" y="-46"/>
      <point x="145" y="-50"/>
      <point x="143" y="-59" type="curve" smooth="yes"/>
      <point x="142" y="-63" type="line" smooth="yes"/>
      <point x="133" y="-100"/>
      <point x="145" y="-161"/>
      <point x="225" y="-161" type="curve" smooth="yes"/>
      <point x="397" y="-161" type="line" smooth="yes"/>
      <point x="404" y="-161"/>
      <point x="409" y="-157"/>
      <point x="411" y="-150" type="curve"/>
      <point x="432" y="-66" type="line"/>
      <point x="412" y="-66" type="line"/>
      <point x="357" y="-66"/>
      <point x="345" y="-66"/>
    </contour>
  </outline>
</glyph>
<glyph name="bar" format="1">
  <advance width="600"/>
  <unicode hex="007C"/>
  <outline>
    <contour>
      <point x="372" y="760" type="curve"/>
      <point x="363" y="726"/>
      <point x="355" y="692"/>
      <point x="346" y="657" type="curve" smooth="yes"/>
      <point x="144" y="-150" type="line" smooth="yes"/>
      <point x="143" y="-156"/>
      <point x="147" y="-161"/>
      <point x="153" y="-161" type="curve" smooth="yes"/>
      <point x="184" y="-161"/>
      <point x="214" y="-161"/>
      <point x="245" y="-161" type="curve"/>
      <point x="472" y="749" type="line" smooth="yes"/>
      <point x="473" y="752"/>
      <point x="473" y="755"/>
      <point x="471" y="757" type="curve" smooth="yes"/>
      <point x="470" y="759"/>
      <point x="467" y="760"/>
      <point x="464" y="760" type="curve" smooth="yes"/>
      <point x="433" y="760"/>
      <point x="403" y="760"/>
    </contour>
  </outline>
</glyph>
<glyph name="braceright" format="1">
  <advance width="600"/>
  <unicode hex="007D"/>
  <outline>
    <contour>
      <point x="150" y="-66" type="curve" smooth="yes"/>
      <point x="88" y="-66"/>
      <point x="77" y="-66"/>
      <point x="22" y="-66" type="curve"/>
      <point x="2" y="-66" type="line"/>
      <point x="-5" y="-94"/>
      <point x="-12" y="-122"/>
      <point x="-19" y="-150" type="curve"/>
      <point x="-21" y="-157"/>
      <point x="-18" y="-161"/>
      <point x="-11" y="-161" type="curve" smooth="yes"/>
      <point x="161" y="-161" type="line" smooth="yes"/>
      <point x="241" y="-161"/>
      <point x="284" y="-100"/>
      <point x="293" y="-63" type="curve" smooth="yes"/>
      <point x="294" y="-59" type="line" smooth="yes"/>
      <point x="297" y="-50"/>
      <point x="290" y="-46"/>
      <point x="207" y="-23" type="curve"/>
      <point x="196" y="-55"/>
      <point x="180" y="-66"/>
    </contour>
    <contour>
      <point x="183" y="153" type="curve" smooth="yes"/>
      <point x="161" y="68"/>
      <point x="220" y="38"/>
      <point x="209" y="-9" type="curve" smooth="yes"/>
      <point x="206" y="-21"/>
      <point x="196" y="-60"/>
      <point x="191" y="-80" type="curve"/>
      <point x="287" y="-73"/>
      <point x="292" y="-69"/>
      <point x="293" y="-63" type="curve" smooth="yes"/>
      <point x="305" y="-15" type="line" smooth="yes"/>
      <point x="326" y="67"/>
      <point x="265" y="88"/>
      <point x="281" y="154" type="curve" smooth="yes"/>
      <point x="297" y="216"/>
      <point x="375" y="252"/>
      <point x="492" y="252" type="curve" smooth="yes"/>
      <point x="524" y="252" type="line"/>
      <point x="539" y="313" type="line" smooth="yes"/>
      <point x="541" y="322"/>
      <point x="536" y="327"/>
      <point x="528" y="327" type="curve" smooth="yes"/>
      <point x="510" y="327" type="line" smooth="yes"/>
      <point x="319" y="327"/>
      <point x="207" y="252"/>
    </contour>
    <contour>
      <point x="256" y="446" type="curve" smooth="yes"/>
      <point x="231" y="345"/>
      <point x="302" y="271"/>
      <point x="496" y="271" type="curve" smooth="yes"/>
      <point x="507" y="271"/>
      <point x="517" y="271"/>
      <point x="528" y="271" type="curve"/>
      <point x="544" y="335" type="line" smooth="yes"/>
      <point x="546" y="342"/>
      <point x="543" y="346"/>
      <point x="536" y="346" type="curve" smooth="yes"/>
      <point x="515" y="346" type="line" smooth="yes"/>
      <point x="398" y="346"/>
      <point x="339" y="385"/>
      <point x="354" y="446" type="curve" smooth="yes"/>
      <point x="371" y="511"/>
      <point x="442" y="532"/>
      <point x="463" y="614" type="curve" smooth="yes"/>
      <point x="475" y="662" type="line" smooth="yes"/>
      <point x="476" y="668"/>
      <point x="472" y="672"/>
      <point x="380" y="677" type="curve"/>
      <point x="374" y="654"/>
      <point x="369" y="631"/>
      <point x="363" y="608" type="curve" smooth="yes"/>
      <point x="351" y="561"/>
      <point x="277" y="531"/>
    </contour>
    <contour>
      <point x="333" y="665" type="curve" smooth="yes"/>
      <point x="364" y="665"/>
      <point x="373" y="654"/>
      <point x="368" y="622" type="curve"/>
      <point x="462" y="645"/>
      <point x="472" y="649"/>
      <point x="474" y="658" type="curve" smooth="yes"/>
      <point x="475" y="662" type="line" smooth="yes"/>
      <point x="484" y="699"/>
      <point x="472" y="760"/>
      <point x="391" y="760" type="curve" smooth="yes"/>
      <point x="220" y="760" type="line" smooth="yes"/>
      <point x="213" y="760"/>
      <point x="208" y="756"/>
      <point x="206" y="749" type="curve"/>
      <point x="185" y="665" type="line"/>
      <point x="205" y="665" type="line"/>
      <point x="260" y="665"/>
      <point x="272" y="665"/>
    </contour>
  </outline>
</glyph>
<glyph name="asciitilde" format="1">
  <advance width="600"/>
  <unicode hex="007E"/>
  <outline>
    <contour>
      <point x="434" y="297" type="curve" smooth="yes"/>
      <point x="351" y="297"/>
      <point x="311" y="397"/>
      <point x="209" y="397" type="curve" smooth="yes"/>
      <point x="156" y="397"/>
      <point x="118" y="380"/>
      <point x="87" y="354" type="curve" smooth="yes"/>
      <point x="77" y="345"/>
      <point x="75" y="340"/>
      <point x="73" y="332" type="curve" smooth="yes"/>
      <point x="67" y="308"/>
      <point x="60" y="280"/>
      <point x="54" y="253" type="curve"/>
      <point x="70" y="253" type="line"/>
      <point x="109" y="289"/>
      <point x="141" y="304"/>
      <point x="183" y="304" type="curve" smooth="yes"/>
      <point x="266" y="304"/>
      <point x="307" y="204"/>
      <point x="408" y="204" type="curve" smooth="yes"/>
      <point x="461" y="204"/>
      <point x="499" y="221"/>
      <point x="530" y="247" type="curve" smooth="yes"/>
      <point x="540" y="256"/>
      <point x="542" y="261"/>
      <point x="544" y="269" type="curve" smooth="yes"/>
      <point x="550" y="293"/>
      <point x="557" y="321"/>
      <point x="563" y="348" type="curve"/>
      <point x="548" y="348" type="line"/>
      <point x="508" y="312"/>
      <point x="476" y="297"/>
    </contour>
  </outline>
</glyph>
<glyph name="exclamdown" format="1">
  <advance width="600"/>
  <unicode hex="00A1"/>
  <outline>
    <contour>
      <point x="263" y="269" type="line"/>
      <point x="235" y="189"/>
      <point x="207" y="110"/>
      <point x="179" y="31" type="curve"/>
      <point x="133" y="-156" type="line" smooth="yes"/>
      <point x="131" y="-163"/>
      <point x="135" y="-167"/>
      <point x="141" y="-167" type="curve" smooth="yes"/>
      <point x="186" y="-167"/>
      <point x="223" y="-167"/>
      <point x="253" y="-167" type="curve"/>
      <point x="263" y="-129"/>
      <point x="271" y="-94"/>
      <point x="281" y="-57" type="curve" smooth="yes"/>
      <point x="303" y="31" type="line"/>
      <point x="338" y="257"/>
      <point x="338" y="262"/>
      <point x="335" y="266" type="curve" smooth="yes"/>
      <point x="334" y="268"/>
      <point x="332" y="269"/>
      <point x="328" y="269" type="curve"/>
    </contour>
    <contour>
      <point x="288" y="540" type="curve"/>
      <point x="251" y="392" type="line" smooth="yes"/>
      <point x="250" y="386"/>
      <point x="253" y="381"/>
      <point x="259" y="381" type="curve" smooth="yes"/>
      <point x="305" y="381"/>
      <point x="363" y="381"/>
      <point x="409" y="381" type="curve"/>
      <point x="446" y="529" type="line" smooth="yes"/>
      <point x="448" y="535"/>
      <point x="444" y="540"/>
      <point x="438" y="540" type="curve" smooth="yes"/>
      <point x="392" y="540"/>
      <point x="334" y="540"/>
    </contour>
  </outline>
</glyph>
<glyph name="cent" format="1">
  <advance width="600"/>
  <unicode hex="00A2"/>
  <outline>
    <contour>
      <point x="404" y="394" type="line"/>
      <point x="538" y="759" type="line" smooth="yes"/>
      <point x="542" y="768"/>
      <point x="538" y="772"/>
      <point x="532" y="772" type="curve" smooth="yes"/>
      <point x="494" y="772"/>
      <point x="478" y="772"/>
      <point x="441" y="772" type="curve"/>
      <point x="433" y="741"/>
      <point x="426" y="711"/>
      <point x="418" y="681" type="curve"/>
      <point x="353" y="419" type="line" smooth="yes"/>
      <point x="351" y="411"/>
      <point x="353" y="407"/>
      <point x="360" y="405" type="curve" smooth="yes"/>
    </contour>
    <contour>
      <point x="325" y="306" type="line"/>
      <point x="190" y="-59" type="line" smooth="yes"/>
      <point x="187" y="-68"/>
      <point x="191" y="-72"/>
      <point x="197" y="-72" type="curve" smooth="yes"/>
      <point x="235" y="-72"/>
      <point x="251" y="-72"/>
      <point x="288" y="-72" type="curve"/>
      <point x="296" y="-42"/>
      <point x="303" y="-11"/>
      <point x="311" y="19" type="curve"/>
      <point x="376" y="280" type="line" smooth="yes"/>
      <point x="378" y="288"/>
      <point x="376" y="293"/>
      <point x="369" y="294" type="curve" smooth="yes"/>
    </contour>
    <contour>
      <point x="432" y="628" type="curve" smooth="yes"/>
      <point x="280" y="628"/>
      <point x="151" y="539"/>
      <point x="114" y="388" type="curve" smooth="yes"/>
      <point x="94" y="309" type="line" smooth="yes"/>
      <point x="56" y="158"/>
      <point x="125" y="74"/>
      <point x="291" y="74" type="curve" smooth="yes"/>
      <point x="303" y="74"/>
      <point x="315" y="94"/>
      <point x="313" y="171" type="curve"/>
      <point x="208" y="171"/>
      <point x="172" y="219"/>
      <point x="196" y="316" type="curve" smooth="yes"/>
      <point x="213" y="383" type="line" smooth="yes"/>
      <point x="239" y="486"/>
      <point x="306" y="531"/>
      <point x="406" y="531" type="curve" smooth="yes"/>
      <point x="467" y="531"/>
      <point x="508" y="516"/>
      <point x="549" y="492" type="curve"/>
      <point x="565" y="492" type="line"/>
      <point x="572" y="518"/>
      <point x="579" y="546"/>
      <point x="586" y="576" type="curve" smooth="yes"/>
      <point x="587" y="580"/>
      <point x="587" y="583"/>
      <point x="584" y="586" type="curve" smooth="yes"/>
      <point x="573" y="602"/>
      <point x="522" y="628"/>
    </contour>
    <contour>
      <point x="146" y="245" type="curve"/>
      <point x="99" y="141"/>
      <point x="156" y="74"/>
      <point x="291" y="74" type="curve" smooth="yes"/>
      <point x="374" y="74"/>
      <point x="443" y="96"/>
      <point x="468" y="116" type="curve" smooth="yes"/>
      <point x="471" y="118"/>
      <point x="472" y="121"/>
      <point x="473" y="124" type="curve"/>
      <point x="480" y="152"/>
      <point x="487" y="180"/>
      <point x="494" y="209" type="curve"/>
      <point x="478" y="209" type="line"/>
      <point x="423" y="185"/>
      <point x="376" y="171"/>
      <point x="313" y="171" type="curve" smooth="yes"/>
      <point x="227" y="171"/>
      <point x="184" y="196"/>
    </contour>
  </outline>
</glyph>
<glyph name="sterling" format="1">
  <advance width="600"/>
  <unicode hex="00A3"/>
  <outline>
    <contour>
      <point x="459" y="623" type="curve" smooth="yes"/>
      <point x="515" y="623"/>
      <point x="546" y="609"/>
      <point x="585" y="581" type="curve"/>
      <point x="600" y="581" type="line"/>
      <point x="606" y="602"/>
      <point x="613" y="632"/>
      <point x="622" y="669" type="curve" smooth="yes"/>
      <point x="623" y="672"/>
      <point x="623" y="674"/>
      <point x="622" y="676" type="curve" smooth="yes"/>
      <point x="607" y="696"/>
      <point x="559" y="720"/>
      <point x="482" y="720" type="curve" smooth="yes"/>
      <point x="343" y="720"/>
      <point x="247" y="641"/>
      <point x="222" y="541" type="curve" smooth="yes"/>
      <point x="216" y="520" type="line" smooth="yes"/>
      <point x="213" y="505"/>
      <point x="223" y="504"/>
      <point x="316" y="523" type="curve"/>
      <point x="333" y="591"/>
      <point x="379" y="623"/>
    </contour>
    <contour>
      <point x="216" y="520" type="curve" smooth="yes"/>
      <point x="188" y="405"/>
      <point x="164" y="312"/>
      <point x="134" y="189" type="curve" smooth="yes"/>
      <point x="118" y="126"/>
      <point x="72" y="91"/>
      <point x="20" y="91" type="curve" smooth="yes"/>
      <point x="15" y="91"/>
      <point x="10" y="91"/>
      <point x="5" y="91" type="curve"/>
      <point x="1" y="91" type="line"/>
      <point x="-5" y="64"/>
      <point x="-11" y="43"/>
      <point x="-19" y="11" type="curve" smooth="yes"/>
      <point x="-21" y="3"/>
      <point x="-17" y="0"/>
      <point x="-10" y="0" type="curve" smooth="yes"/>
      <point x="-5" y="0" type="line" smooth="yes"/>
      <point x="101" y="0"/>
      <point x="199" y="58"/>
      <point x="236" y="205" type="curve" smooth="yes"/>
      <point x="264" y="317"/>
      <point x="289" y="418"/>
      <point x="316" y="523" type="curve" smooth="yes"/>
      <point x="323" y="552"/>
      <point x="330" y="580"/>
      <point x="337" y="608" type="curve"/>
      <point x="282" y="608"/>
      <point x="230" y="576"/>
    </contour>
    <contour>
      <point x="-5" y="0" type="curve"/>
      <point x="169" y="0"/>
      <point x="271" y="0"/>
      <point x="402" y="0" type="curve" smooth="yes"/>
      <point x="467" y="0" type="line" smooth="yes"/>
      <point x="475" y="0"/>
      <point x="479" y="3"/>
      <point x="481" y="11" type="curve"/>
      <point x="488" y="38"/>
      <point x="494" y="64"/>
      <point x="501" y="91" type="curve"/>
      <point x="481" y="91" type="line"/>
      <point x="457" y="91"/>
      <point x="438" y="91"/>
      <point x="407" y="91" type="curve" smooth="yes"/>
      <point x="309" y="91"/>
      <point x="237" y="91"/>
      <point x="86" y="91" type="curve"/>
      <point x="-10" y="7"/>
      <point x="-10" y="0"/>
    </contour>
    <contour>
      <point x="96" y="389" type="line"/>
      <point x="89" y="361"/>
      <point x="87" y="353"/>
      <point x="80" y="325" type="curve" smooth="yes"/>
      <point x="79" y="322"/>
      <point x="79" y="319"/>
      <point x="81" y="317" type="curve" smooth="yes"/>
      <point x="82" y="315"/>
      <point x="85" y="314"/>
      <point x="88" y="314" type="curve" smooth="yes"/>
      <point x="462" y="314" type="line"/>
      <point x="469" y="342"/>
      <point x="471" y="350"/>
      <point x="478" y="378" type="curve" smooth="yes"/>
      <point x="480" y="384"/>
      <point x="476" y="389"/>
      <point x="470" y="389" type="curve" smooth="yes"/>
    </contour>
  </outline>
</glyph>
<glyph name="currency" format="1">
  <advance width="600"/>
  <unicode hex="00A4"/>
  <outline>
    <contour>
      <point x="274" y="422" type="curve"/>
      <point x="254" y="449"/>
      <point x="229" y="482"/>
      <point x="208" y="511" type="curve" smooth="yes"/>
      <point x="206" y="513"/>
      <point x="204" y="514"/>
      <point x="202" y="514" type="curve" smooth="yes"/>
      <point x="200" y="514"/>
      <point x="198" y="513"/>
      <point x="196" y="511" type="curve" smooth="yes"/>
      <point x="173" y="492"/>
      <point x="149" y="473"/>
      <point x="130" y="458" type="curve"/>
      <point x="151" y="431"/>
      <point x="176" y="397"/>
      <point x="197" y="370" type="curve" smooth="yes"/>
      <point x="200" y="366"/>
      <point x="204" y="366"/>
      <point x="209" y="370" type="curve" smooth="yes"/>
      <point x="230" y="386"/>
      <point x="255" y="407"/>
    </contour>
    <contour>
      <point x="402" y="422" type="curve"/>
      <point x="408" y="414"/>
      <point x="434" y="379"/>
      <point x="441" y="370" type="curve" smooth="yes"/>
      <point x="444" y="366"/>
      <point x="448" y="366"/>
      <point x="453" y="370" type="curve" smooth="yes"/>
      <point x="487" y="397"/>
      <point x="529" y="431"/>
      <point x="564" y="458" type="curve"/>
      <point x="551" y="476"/>
      <point x="538" y="492"/>
      <point x="524" y="511" type="curve" smooth="yes"/>
      <point x="523" y="513"/>
      <point x="521" y="514"/>
      <point x="519" y="514" type="curve" smooth="yes"/>
      <point x="517" y="514"/>
      <point x="515" y="513"/>
      <point x="512" y="511" type="curve" smooth="yes"/>
      <point x="477" y="482"/>
      <point x="436" y="449"/>
    </contour>
    <contour>
      <point x="340" y="177" type="curve"/>
      <point x="361" y="150"/>
      <point x="386" y="117"/>
      <point x="407" y="88" type="curve" smooth="yes"/>
      <point x="408" y="86"/>
      <point x="410" y="85"/>
      <point x="412" y="85" type="curve" smooth="yes"/>
      <point x="414" y="85"/>
      <point x="416" y="86"/>
      <point x="419" y="88" type="curve" smooth="yes"/>
      <point x="442" y="107"/>
      <point x="466" y="126"/>
      <point x="484" y="141" type="curve"/>
      <point x="464" y="168"/>
      <point x="438" y="202"/>
      <point x="418" y="229" type="curve" smooth="yes"/>
      <point x="415" y="233"/>
      <point x="411" y="233"/>
      <point x="406" y="229" type="curve" smooth="yes"/>
      <point x="385" y="213"/>
      <point x="359" y="192"/>
    </contour>
    <contour>
      <point x="213" y="177" type="curve"/>
      <point x="207" y="185"/>
      <point x="181" y="220"/>
      <point x="174" y="229" type="curve" smooth="yes"/>
      <point x="171" y="233"/>
      <point x="167" y="233"/>
      <point x="162" y="229" type="curve" smooth="yes"/>
      <point x="128" y="202"/>
      <point x="85" y="168"/>
      <point x="51" y="141" type="curve"/>
      <point x="64" y="123"/>
      <point x="76" y="107"/>
      <point x="90" y="88" type="curve" smooth="yes"/>
      <point x="92" y="86"/>
      <point x="93" y="85"/>
      <point x="95" y="85" type="curve" smooth="yes"/>
      <point x="97" y="85"/>
      <point x="100" y="86"/>
      <point x="102" y="88" type="curve" smooth="yes"/>
      <point x="138" y="117"/>
      <point x="179" y="150"/>
    </contour>
    <contour>
      <point x="284" y="201" type="curve"/>
      <point x="223" y="201"/>
      <point x="197" y="231"/>
      <point x="209" y="280" type="curve" smooth="yes"/>
      <point x="219" y="321" type="line" smooth="yes"/>
      <point x="232" y="371"/>
      <point x="274" y="400"/>
      <point x="333" y="400" type="curve" smooth="yes"/>
      <point x="372" y="400"/>
      <point x="390" y="397"/>
      <point x="414" y="387" type="curve"/>
      <point x="435" y="431"/>
      <point x="414" y="472"/>
      <point x="351" y="472" type="curve"/>
      <point x="248" y="472"/>
      <point x="168" y="415"/>
      <point x="146" y="326" type="curve" smooth="yes"/>
      <point x="133" y="276" type="line" smooth="yes"/>
      <point x="111" y="186"/>
      <point x="162" y="130"/>
      <point x="266" y="130" type="curve"/>
      <point x="275" y="130"/>
      <point x="284" y="168"/>
    </contour>
    <contour>
      <point x="333" y="400" type="curve"/>
      <point x="394" y="400"/>
      <point x="421" y="371"/>
      <point x="408" y="321" type="curve" smooth="yes"/>
      <point x="398" y="280" type="line" smooth="yes"/>
      <point x="386" y="231"/>
      <point x="343" y="201"/>
      <point x="284" y="201" type="curve" smooth="yes"/>
      <point x="245" y="201"/>
      <point x="228" y="204"/>
      <point x="203" y="215" type="curve"/>
      <point x="183" y="171"/>
      <point x="203" y="130"/>
      <point x="266" y="130" type="curve"/>
      <point x="369" y="130"/>
      <point x="449" y="186"/>
      <point x="472" y="276" type="curve" smooth="yes"/>
      <point x="484" y="326" type="line" smooth="yes"/>
      <point x="507" y="415"/>
      <point x="455" y="472"/>
      <point x="351" y="472" type="curve"/>
      <point x="339" y="472"/>
      <point x="331" y="436"/>
    </contour>
  </outline>
</glyph>
